<svg xmlns="http://www.w3.org/2000/svg" viewBox="0 0 32 32">
  <path d="M15.435 29.817a3.606 3.606 0 01-.902-.299c-.21-.105-8.788-5.189-9.088-5.386a3.498 3.498 0 01-1.527-2.352c-.04-.245-.043-.785-.035-5.885.008-5.199.012-5.629.055-5.804a3.78 3.78 0 01.521-1.225c.195-.3.677-.781.973-.972.417-.269 8.906-5.296 9.134-5.41a3.306 3.306 0 012.893.001c.222.112 8.928 5.277 9.16 5.435.685.465 1.214 1.25 1.409 2.09.095.414.098.614.09 6.17l-.01 5.466-.058.251c-.115.496-.285.9-.545 1.29a4.17 4.17 0 01-.77.809c-.107.081-1.565.96-3.239 1.954l-4.411 2.619c-.752.446-1.477.869-1.612.938a3.651 3.651 0 01-.85.3c-.238.05-.926.056-1.188.01z" fill="#fff"/>
  <path d="M15.43 29.969a3.646 3.646 0 01-.913-.303c-.212-.107-8.884-5.246-9.188-5.445a3.537 3.537 0 01-1.543-2.378c-.04-.247-.044-.794-.036-5.949.008-5.256.012-5.69.056-5.868.117-.48.275-.85.527-1.238.196-.303.684-.79.984-.983.42-.271 9.003-5.354 9.233-5.468a3.343 3.343 0 012.925 0c.224.113 9.026 5.335 9.26 5.494.693.47 1.227 1.263 1.424 2.113.097.419.1.621.09 6.237l-.008 5.527-.059.254a3.804 3.804 0 01-.551 1.304 4.215 4.215 0 01-.778.817c-.108.082-1.582.971-3.275 1.976a8178.73 8178.73 0 00-4.46 2.647c-.76.452-1.492.879-1.629.949-.246.126-.571.24-.86.302-.24.052-.935.058-1.2.012zm.882-.61l.134-.018-.12-.053c-.257-.113-.476-.418-.573-.798-.053-.207-.054-.321-.054-5.687 0-3.816.009-5.525.03-5.637.048-.26.185-.602.332-.828.173-.268.593-.682.91-.899.518-.352 9.01-5.578 9.186-5.652.527-.222 1.064-.102 1.33.297.079.118.087.124.072.051a2.928 2.928 0 00-1.272-1.833c-.415-.268-9.025-5.362-9.19-5.437a3.437 3.437 0 00-.44-.15c-.22-.059-.32-.07-.657-.07-.339 0-.436.011-.662.07a3.385 3.385 0 00-.493.18c-.215.102-8.54 5.03-9.117 5.397a2.915 2.915 0 00-1.326 2.031c-.041.298-.041 11.063 0 11.361.105.755.581 1.53 1.195 1.948.192.13 9.013 5.368 9.2 5.462a2.799 2.799 0 001.515.265zm3.029-4.137c.356-.204.352-.197.352-.693v-.414l.206-.203c.584-.58.896-1.361.854-2.147-.03-.555-.235-.86-.67-.991a3.438 3.438 0 00-.513-.065c-.42-.028-.546-.055-.653-.138-.158-.125-.158-.448 0-.764.117-.234.25-.354.557-.503.229-.111.239-.113.542-.117.363-.004.362-.003.428-.295.12-.527.138-.643.103-.678-.02-.02-.124-.039-.234-.044-.181-.01-.285.007-.586.093l-.061.018v-.41c0-.491-.008-.506-.206-.39-.263.152-.408.26-.443.328-.023.046-.034.202-.035.471v.403l-.214.213c-.474.47-.732 1.02-.813 1.732-.022.188.026.543.093.695.108.243.332.416.622.481.072.016.293.04.493.052.45.027.591.084.688.275.116.232.053.61-.156.922a1.34 1.34 0 01-1.268.562c-.276-.043-.29-.025-.414.493-.053.222-.09.422-.08.445.024.063.132.082.447.08.221-.002.324-.017.449-.062.089-.032.166-.059.17-.059.006 0 .01.183.01.406 0 .223.009.414.019.424.033.033.068.02.313-.12z"/>
  <path d="M24.32 22.958v-.741l-2.384 1.439v.74z" fill="#3ab14a"/>
</svg>
