<svg xmlns="http://www.w3.org/2000/svg" viewBox="0 0 32 32">
  <path d="M5.245 19.254A3.247 3.247 0 012 16.009a3.228 3.228 0 013.227-3.227 3.24 3.24 0 013.228 3.227c0 1.773-1.419 3.245-3.21 3.245zm16.74-15.126c-2.394 0-2.5 2.022-6.154 2.022-3.688 0-3.99-2.022-6.17-2.022a3.228 3.228 0 00-3.228 3.227 3.24 3.24 0 003.227 3.228c2.412 0 2.519-2.022 6.171-2.022 3.689 0 3.99 2.022 6.171 2.022a3.228 3.228 0 003.228-3.228c0-1.773-1.454-3.227-3.245-3.227zm0 17.29c-2.412 0-2.518 2.02-6.171 2.02-3.689 0-3.99-2.02-6.171-2.02a3.228 3.228 0 00-3.228 3.227 3.24 3.24 0 003.228 3.227c2.411 0 2.518-2.022 6.17-2.022 3.69 0 3.99 2.022 6.172 2.022a3.228 3.228 0 000-6.455zm4.787-8.636c-2.429 0-2.34 2.127-5.39 2.127-2.82 0-2.855-2.11-5.568-2.11-1.685 0-3.068 1.543-3.068 3.228 0 1.684 1.4 3.227 3.227 3.227 2.43 0 2.341-2.128 5.391-2.128 2.82 0 2.855 2.11 5.568 2.11 1.685 0 3.068-1.543 3.068-3.227.018-1.685-1.383-3.227-3.228-3.227z" fill="#004eeb"/>
</svg>
