<svg xmlns="http://www.w3.org/2000/svg" xmlns:xlink="http://www.w3.org/1999/xlink" viewBox="0 0 32 32">
  <defs>
    <linearGradient id="prefixx_a">
      <stop offset="0" stop-color="#4584ff"/>
      <stop offset="1" stop-color="#9a57ff"/>
    </linearGradient>
    <linearGradient xlink:href="#prefixx_a" id="prefixx_c" x1="28.38" y1="27.755" x2="6.568" y2="8.306" gradientUnits="userSpaceOnUse" gradientTransform="matrix(.94763 0 0 .94763 .992 .982)"/>
    <mask maskUnits="userSpaceOnUse" id="prefixx_b">
      <g stroke-width=".145" fill="#fff">
        <path d="M5.988 9.281c.86-.828 2.775-1.846 4.797-2.548 3.48-1.208 8.666-2.02 15.033-2.352l1.835-.096.451-1.022c.249-.561.452-1.088.452-1.17 0-.1-.87-.12-2.65-.057-11.66.41-20.283 3.048-20.822 6.372-.074.457.029 1.567.145 1.567.022 0 .363-.312.759-.694z"/>
        <path d="M10.707 12.06c1.727-1.883 6.194-3.145 13.057-3.69 1.158-.092 2.133-.193 2.166-.225.07-.066 1.028-2.253 1.028-2.346 0-.09-2.786.092-5.227.343-4.77.49-8.667 1.627-10.588 3.09-.637.485-1.319 1.555-1.319 2.069 0 .48.236 1.143.407 1.143.068 0 .282-.173.476-.384zM15.9 14.06c1.468-1.037 3.477-1.675 6.397-2.034l1.975-.242.55-1.14c.303-.628.514-1.178.469-1.223-.126-.126-3.7.256-5.124.547-2.32.475-4.399 1.479-4.966 2.396-.333.54-.382 1.25-.114 1.679.223.357.328.359.814.016z"/>
        <path d="M24.39 18.949a69.914 69.914 0 00-.628-1.935c-.106-.28-.298-.326-1.981-.486-9.91-.94-16.645-3.379-18.106-6.553-.144-.313-.173-.193-.213.871-.074 1.979.076 2.935.577 3.692 1.562 2.359 6.49 4.35 13.189 5.332 2.064.302 5.655.66 6.922.688l.749.017z"/>
        <path d="M25.886 23.443l-.63-1.78-1.653-.108c-10.12-.663-16.226-2.426-19.079-5.507-.439-.474-.798-.924-.798-1 0-.074-.058-.136-.128-.136-.172 0-.083 3.314.1 3.775.357.894 2.41 2.487 4.297 3.333 2.99 1.342 7.86 2.429 13.01 2.903l2.178.203c.28.027 1.144.06 1.92.072l1.412.023z"/>
        <path d="M28.084 29.832c-.036-.1-.307-.908-.602-1.796l-.535-1.614-1.99-.102c-11.033-.563-18.78-2.815-20.868-6.067-.24-.373-.468-.682-.508-.687-.04-.004-.055.76-.032 1.698.053 2.208.23 2.685 1.402 3.782 2.277 2.13 7.273 3.656 14.602 4.46 4.447.489 8.65.649 8.531.326z"/>
      </g>
    </mask>
  </defs>
  <path mask="url(#prefixx_b)" fill="url(#prefixx_c)" paint-order="markers fill stroke" d="M2.579 1.784h28.03v28.385H2.579z"/>
</svg>