<svg xmlns="http://www.w3.org/2000/svg" viewBox="0 0 32 32">
  <path d="M16.551 2.332l9.03 8.63H6.514l8.665-8.665z" fill="#fff"/>
  <path d="M15.222 29.651c-1.386-.337-1.175-2.66-3.027-2.434-1.29.083-2.094-1.294-.803-2.04 1.616-1.379-.996-2.097-2.039-2.417-1.315-.508-2.78-.75-3.927-1.608-.236-1.339 2.286-1.137 2.667-2.306-.818-.823-2.258-.76-3.34-1.145-1.217-.238-3.234-.91-2.649-2.527.729-1.836 3.709-4.432 3.709-4.432 2.672-2.692 5.264-5.468 7.985-8.108 1.5-1.14 3.464-.826 4.913.766 3.565 3.66 7.121 7.316 10.652 11.008 1.009.972.794 2.672-.466 3.318-2.171 1.417-4.81 1.784-7.13 2.874-.992 1.39 2.692 1.344 2.172 2.921-.538 1.589-2.484 1.309-3.706 1.993-.943.36-2.294 1.636-.614 2.036.763 1.038-1.526 1.497-2.272 1.845-.686.213-1.407.32-2.125.256zm.938-8.658c1.172-.947-1.427-.73-2.033-1.048-1.06-.114-2.507-.749-3.318-.604 1.5.907 3.227 1.506 4.964 1.738l.151-.011zm-1.18-10.18c.97-.604 2.637-1.675 2.703-1.679.343.14 1.41.776 1.685.822.179-1 .318-1.682.383-2.242.015-.128.076-.051.483.254.405.34.915.725 1.58 1.23.042.032.1-.171.118-.265.033-.166.054-.398-.123-.831-.651-.887-2.723-2.768-4.083-4.203-1.102-1.199-2.639-1.158-3.887.168-1.327 1.365-2.749 2.649-3.967 4.111a1.842 1.842 0 00-.164.345c-.057.165-.172.784.162 1.042.29.222.74.173.933.173h1.801l1.444-2.491c.065-.04.9 3.604.932 3.566zm-6.631 15.6c-1.947-.747.26-2.55 1.537-2 1.792.313-.412 2.222-1.338 2.036zm16.725-.329c-1.536-.388-.123-2.528.822-1.125.805.724.01 1.344-.822 1.125zm1.811-2.218c-1.368.254-2.097-.998-.619-1.555.962-.55 3.036-.092 2.807 1.197-.602.481-1.468.363-2.188.358z"/>
</svg>