<svg xmlns="http://www.w3.org/2000/svg" viewBox="0 0 32 32" >
  <path d="M21.401 21.274a1.996 1.996 0 001.782-2.067 2.001 2.001 0 00-1.996-1.924h-.071a1.993 1.993 0 00-1.924 2.066c.036.535.25.998.57 1.319-1.211 2.387-3.064 4.133-5.844 5.594-1.888.998-3.848 1.354-5.807 1.105-1.604-.214-2.85-.927-3.635-2.103-1.14-1.746-1.247-3.634-.285-5.523.677-1.354 1.746-2.351 2.423-2.85a19.217 19.217 0 01-.463-1.817c-5.167 3.741-4.632 8.8-3.064 11.188 1.175 1.782 3.563 2.886 6.2 2.886.712 0 1.425-.07 2.137-.249 4.561-.89 8.017-3.599 9.977-7.625zm6.271-4.419c-2.708-3.171-6.699-4.917-11.26-4.917h-.57a1.958 1.958 0 00-1.745-1.07h-.072a1.994 1.994 0 00-1.924 2.068 2.002 2.002 0 001.996 1.924h.07a2.007 2.007 0 001.747-1.212h.641c2.708 0 5.274.784 7.59 2.316 1.781 1.176 3.064 2.708 3.777 4.561.605 1.497.57 2.958-.072 4.205-.997 1.888-2.672 2.922-4.881 2.922-1.425 0-2.78-.428-3.492-.749-.392.357-1.105.927-1.604 1.283 1.533.713 3.1 1.105 4.597 1.105 3.42 0 5.95-1.889 6.912-3.777 1.034-2.067.962-5.63-1.71-8.659zm-18.1 5.024a2.001 2.001 0 001.995 1.924h.071a1.993 1.993 0 001.924-2.066 2.001 2.001 0 00-1.995-1.924h-.071c-.072 0-.179 0-.25.035-1.46-2.423-2.066-5.06-1.853-7.91.143-2.138.856-3.991 2.103-5.523 1.033-1.319 3.028-1.96 4.382-1.996 3.777-.07 5.38 4.633 5.487 6.521.464.107 1.247.356 1.782.535-.428-5.773-3.99-8.766-7.411-8.766-3.207 0-6.165 2.316-7.34 5.737-1.64 4.56-.57 8.944 1.425 12.4-.178.25-.285.641-.25 1.033z" fill="#764abc"  stroke-width=".109"/>
</svg>