<svg xmlns="http://www.w3.org/2000/svg" width="19.635" height="28.361">
  <g fill="#ccc">
    <path d="M1.5 0A1.5 1.5 0 000 1.5v25.361a1.5 1.5 0 001.5 1.5h16.635a1.5 1.5 0 001.5-1.5V10.227a1.5 1.5 0 00-1.5-1.5h-5.59c-.907 0-1.637-.73-1.637-1.637V1.5a1.5 1.5 0 00-1.5-1.5zm8.316 10.969a3.683 3.683 0 013.684 3.683 3.683 3.683 0 01-3.684 3.684 3.683 3.683 0 01-3.681-3.684 3.683 3.683 0 013.681-3.683zm-3.388 7.52a5.37 5.37 0 003.4 1.214 5.37 5.37 0 003.395-1.209c.602.234 1.029.813 1.029 1.5v2.82h-8.87v-2.82c0-.693.435-1.276 1.046-1.506z"/>
    <path d="M14.18.265v5.189h5.19z"/>
  </g>
</svg>