<svg
      xmlns="http://www.w3.org/2000/svg"
      width="156.761"
      height="139.855"
      viewBox="0 0 156.761 139.855"
    >
      <defs>
        <mask id="heart-masker">
          <path
            d="M 54.675581,103.57577 C 23.795177,73.197513 20.005612,68.808697 16.820289,59.734337 15.586725,56.220142 15.32524,53.766385 15.544465,47.761921 c 0.24421,-6.689032 0.582268,-8.176094 2.957386,-13.009202 3.522458,-7.167818 9.816365,-13.449764 16.984357,-16.952094 5.34884,-2.613478 5.810863,-2.999157 14.980293,-2.999157 9.036492,0 9.691312,0.415254 14.586078,2.813851 2.81866,1.381238 6.672565,3.837864 8.564233,5.459173 2.359911,2.022632 3.74654,2.719168 4.417999,2.219284 0.53823,-0.400707 2.715864,-2.053948 4.839186,-3.67387 5.752255,-4.388508 11.342023,-6.300916 19.629313,-6.715729 5.8522,-0.292927 7.98672,-0.05409 12.17822,1.362521 15.95416,5.392157 25.13793,18.762069 24.34075,35.435734 -0.47572,9.950084 -3.26046,15.46489 -12.63747,25.026772 l -7.23008,7.37263 -11.37276,-11.441987 5.11293,-5.519056 c 6.79456,-7.334257 9.17356,-12.01395 9.21871,-18.134039 0.0762,-10.327911 -7.56134,-17.762938 -18.20521,-17.722507 -6.88623,0.02618 -10.477084,2.073273 -18.693958,10.657265 -3.933964,4.109725 -7.550065,7.469355 -8.035781,7.465847 -0.485716,-0.0032 -3.678884,-2.96125 -7.095929,-6.572746 -8.112771,-8.574444 -11.537059,-10.80497 -17.395485,-11.331141 -6.429924,-0.577498 -10.679329,0.781608 -14.783496,4.728269 -5.826514,5.602914 -6.699463,13.554911 -2.443057,22.254685 1.757472,3.59214 7.137652,9.483258 27.322469,29.917183 13.823741,13.994343 25.134074,25.766713 25.134074,26.160813 0,0.9795 -9.708137,10.53393 -10.665106,10.49624 -0.421973,-0.0166 -10.581421,-9.68482 -22.57655,-21.48489 z"
            fill="#fff"
          />
        </mask>
      </defs>
      <g mask="url(#heart-masker)">
        <path
          d="M 82.385784,119.02352 26.930526,63.568257 c -8.114619,-10.329676 -5.073325,-28.203408 6.191363,-36.700362 8.346024,-6.295405 30.110196,-0.129898 39.121854,7.24403 8.558155,7.002842 8.927082,1.480486 17.24798,-4.772514 8.711507,-6.546536 24.614517,-8.493328 32.597837,-2.471516 11.2647,8.496943 14.30599,26.370686 6.19135,36.700371 l -14.81257,14.812577"
          id="path-stroke"
          fill="none"
          stroke="#41c5e8"
          stroke-width="28"
          stroke-linecap="round"
          stroke-linejoin="round"
          stroke-dasharray="280"
          stroke-dashoffset="280"
        />
      </g>
      <g
        id="buckle"
        transform="matrix(-0.55751368,-0.55751616,0.55751352,-0.557516,24.354216,114.15692)"
      >
        <path
          d="m 131.50108,87.9053 3.34,3.446 3.33999,3.446 -7.31876,7.54788 c -4.02532,4.15133 -7.86262,7.54787 -8.52732,7.54787 -0.66471,0 -1.76876,-0.675 -2.45345,-1.5 L 95.64047,83.87862 c -1.11742,-1.78927 -0.47209,-2.75627 6.47676,-9.70512 l 7.71784,-7.71784 3.62079,3.46869 3.62079,3.4687 z"
          fill="#f6861f"
        />
        <path
          d="m 122.33499,109.89305 c -0.66471,0 -1.76876,-0.675 -2.45345,-1.5 -2.62914,-3.16792 -6.18397,-1.7638 -13.22581,5.22408 l -6.77599,6.72407 -7.4991,-7.44905 c -4.12451,-4.09697 -7.4991,-7.92439 -7.4991,-8.50538 0,-0.58098 2.7,-3.72815 6,-6.99372 6.30356,-6.23779 7.38512,-9.30921 4.75892,-13.51443 z m -20.29814,-1.17907 c 1.87237,-2.15887 1.86016,-2.20975 -1.31723,-5.48799 -3.00799,-3.10346 -3.31986,-3.20691 -5.02261,-1.66594 -0.99851,0.90363 -1.81547,2.09823 -1.81547,2.65465 0,0.92973 5.0039,6.58679 5.88271,6.65057 0.21048,0.0153 1.23315,-0.9528 2.2726,-2.15129 z"
          fill="#fecb9d"
        />
      </g>

      <path
        id="path-rail"
        fill="none"
        stroke="#000"
        stroke-linecap="round"
        stroke-linejoin="bevel"
        opacity="0"
        d="M 82.385784,119.02352 C 60.444318,99.175426 -1.3752901,54.704028 33.121889,26.867895 c 8.346024,-6.295405 18.226086,-7.866407 34.70991,3.935072 7.511297,5.927186 11.587568,5.622678 21.659924,-1.463556 34.199207,-21.2152567 54.317697,18.465318 25.426667,47.591383 l -1.45005,1.450049"
      />
      <animateMotion
        href="#buckle"
        dur="2s"
        fill="freeze"
        rotate="auto"
        calcMode="spline"
        keySplines=".31,.24,.41,.88"
        keyTimes="0;1"
      >
        <mpath href="#path-rail" />
      </animateMotion>
      <animate
        href="#path-stroke"
        attributeName="stroke-dashoffset"
        calcMode="spline"
        keySplines=".31,.24,.41,.88"
        keyTimes="0;1"
        values="280;0"
        dur="2s"
        fill="freeze"
      />
    </svg>