<?xml version="1.0" encoding="UTF-8" standalone="no"?>
<svg
   xmlns:dc="http://purl.org/dc/elements/1.1/"
   xmlns:cc="http://creativecommons.org/ns#"
   xmlns:rdf="http://www.w3.org/1999/02/22-rdf-syntax-ns#"
   xmlns:svg="http://www.w3.org/2000/svg"
   xmlns="http://www.w3.org/2000/svg"
   xmlns:sodipodi="http://sodipodi.sourceforge.net/DTD/sodipodi-0.dtd"
   xmlns:inkscape="http://www.inkscape.org/namespaces/inkscape"
   width="49.912819mm"
   height="38.485626mm"
   viewBox="0 0 49.91282 38.485626"
   version="1.1"
   id="svg8"
   sodipodi:docname="calebtaylorlogo-animated-inkscape-clip.svg"
   inkscape:version="1.0.2 (394de47547, 2021-03-26)">
  <sodipodi:namedview
     pagecolor="#ffffff"
     bordercolor="#666666"
     borderopacity="1"
     objecttolerance="10"
     gridtolerance="10"
     guidetolerance="10"
     inkscape:pageopacity="0"
     inkscape:pageshadow="2"
     inkscape:window-width="1920"
     inkscape:window-height="1016"
     id="namedview25"
     showgrid="false"
     inkscape:zoom="4.1427533"
     inkscape:cx="71.584748"
     inkscape:cy="55.069084"
     inkscape:window-x="0"
     inkscape:window-y="27"
     inkscape:window-maximized="1"
     inkscape:document-rotation="0"
     showguides="true"
     inkscape:guide-bbox="true"
     inkscape:current-layer="svg8" />
  <defs
     id="defs2">
    <clipPath
       clipPathUnits="userSpaceOnUse"
       id="clipPath1295">
      <path
         id="path1297"
         style="fill:#ffffff;fill-opacity:1;stroke:none;stroke-width:0.735896"
         d="m 39.967251,20.910903 c 1.251752,0 2.091751,1.590708 0.482767,1.185393 c -1.200944,-0.310923 -2.876698,0.383244 -2.62685,1.847155 c -0.02506,1.217299 0.05177,2.442342 -0.04144,3.654458 c -0.93663,1.098664 -1.440473,-0.463558 -1.233998,-1.294653 c 0.02588,-1.648801 -0.05289,-3.305556 0.04144,-4.949155 c 0.334179,-0.752468 1.493269,-0.257958 1.234051,0.513419 c 0.526185,-0.616506 1.337389,-0.963154 2.144033,-0.956617 z m -7.347937,7.10482 c -2.031105,0.134088 -3.758975,-1.79005 -3.513561,-3.787989 c -0.0094,-2.03733 2.036131,-3.610481 4.00385,-3.262621 c 2.126448,0.164307 3.487727,2.505102 2.905863,4.483561 c -0.33878,1.546776 -1.828903,2.627107 -3.396152,2.567049 z m 0,-1.147998 c 2.198606,0.120163 3.038383,-3.057393 1.407078,-4.308969 c -1.702048,-1.443699 -4.32409,0.516153 -3.604225,2.577408 c 0.209515,1.010337 1.163074,1.768701 2.197147,1.731561 z m -7.183592,-5.816512 c 0.836921,0.397973 0.0039,1.30279 -0.166378,1.89475 c -1.171913,2.617714 -2.31861,5.24747 -3.506341,7.857632 c -1.1014,0.75918 -1.095724,-0.677574 -0.674879,-1.437206 L 22.017235,27.27589 L 19.14725,21.829288 c -0.218338,-1.326407 1.375469,-0.753332 1.441828,0.201209 l 1.989431,3.957104 c 0.721419,-1.59442 1.396268,-3.212502 2.146886,-4.792086 c 0.151817,-0.229868 0.476886,-0.258198 0.710327,-0.144302 z m -9.273241,-0.1148 c 2.082491,-0.08534 3.763548,1.95097 3.507772,3.972537 c -0.02827,0.89096 0.0589,1.792519 -0.04784,2.676272 c -0.501758,0.913096 -1.515983,0.05808 -1.253247,-0.73025 c -1.324206,1.759141 -4.376293,1.442826 -5.306294,-0.561246 c -1.06917,-1.926837 -0.07671,-4.738228 2.158863,-5.239324 c 0.306602,-0.08062 0.623923,-0.118147 0.940746,-0.117989 z m 0,5.931312 c 2.180129,0.105971 3.051761,-3.058317 1.395137,-4.296214 c -1.676834,-1.459374 -4.300757,0.519893 -3.592258,2.555087 c 0.217706,0.999345 1.164956,1.776724 2.197121,1.741127 z m -1.542058,-8.865079 c 1.367987,0.491215 0.236843,1.333811 -0.938309,1.224544 h -1.804149 v 8.074235 c -0.489471,1.499597 -1.398429,0.04721 -1.326616,-0.938309 V 19.22719 C 9.5520936,19.201599 8.5441436,19.27973 7.5506224,19.18574 C 6.4762005,18.294605 7.9827692,17.944119 8.8197627,18.00265 h 5.8006603 z m 13.717063,10.326897 c -1.529326,0.02143 -2.057019,-1.690209 -1.913229,-2.956871 V 8.0869846 c 0.486534,-1.4644028 1.391751,-0.013033 1.275525,0.9383096 c 0.0074,5.7232738 -0.01484,11.4472818 0.01117,17.1700958 c -0.168585,1.189069 2.296295,0.621355 1.277183,1.955591 c -0.188277,0.139663 -0.423309,0.18166 -0.650639,0.178562 z M 39.459971,10.551137 c 2.346034,-0.08786 3.849158,2.634388 3.086031,4.707181 c -0.678424,2.425997 -4.150045,3.182284 -5.838045,1.358063 c -1.383321,-1.315454 -0.932889,-3.305646 -1.010853,-5.005694 c 0.02803,-1.201386 -0.05722,-2.4122577 0.04464,-3.6074615 c 0.921028,-1.1179201 1.474478,0.4524798 1.256408,1.2882874 V 11.71189 c 0.588989,-0.735597 1.519876,-1.172651 2.461819,-1.160753 z m -0.255053,5.931312 c 2.172308,0.100948 3.073815,-3.061691 1.39514,-4.296215 c -1.671749,-1.458196 -4.284967,0.512668 -3.579517,2.542333 c 0.217893,1.003459 1.139923,1.794076 2.184377,1.753882 z m -4.041529,-2.500081 c -0.157972,0.876153 -1.232945,0.466095 -1.866212,0.561236 h -3.567584 c 0.187862,1.806422 2.569745,2.567316 3.928698,1.505142 c 1.206336,-0.645657 1.282628,0.943112 0.05666,1.248433 c -1.982547,0.969961 -4.775914,-0.183648 -5.106998,-2.465213 c -0.441595,-1.905864 0.864979,-4.093952 2.894708,-4.252169 c 1.702666,-0.327421 3.454252,0.937722 3.607031,2.679057 c 0.03722,0.239237 0.05391,0.481594 0.0537,0.723514 z m -3.176127,-2.334257 c -1.008171,-0.270066 -2.636105,1.287824 -1.989056,1.875061 h 3.991679 c -0.08711,-1.029299 -0.92401,-1.938382 -2.002623,-1.875061 z m -9.81296,-1.096974 c 2.082495,-0.08534 3.763535,1.950968 3.507744,3.972535 c -0.02827,0.89096 0.0589,1.792521 -0.04784,2.676275 c -0.501757,0.913096 -1.515945,0.05806 -1.253215,-0.730253 c -1.3242,1.759161 -4.376283,1.4428 -5.306298,-0.561242 c -1.069183,-1.926857 -0.07669,-4.738234 2.158898,-5.239327 c 0.30659,-0.08062 0.623899,-0.118145 0.940711,-0.117988 z m 0,5.931312 c 2.180131,0.105968 3.05176,-3.058316 1.395136,-4.296215 c -1.67684,-1.459366 -4.300783,0.51988 -3.592285,2.555088 c 0.217717,0.999344 1.164975,1.776742 2.197149,1.741127 z m -6.743445,1.22453 c -2.863681,0.110608 -5.199289,-2.68118 -4.913448,-5.461948 c 0.06205,-2.8096014 2.804132,-5.1842519 5.602852,-4.7193408 c 0.977523,0.092061 3.436203,0.9650716 2.292125,2.1293785 C 17.085727,9.2254481 15.557714,8.1099359 14.024484,8.9830045 C 11.35482,10.107156 11.00628,14.227727 13.391887,15.835702 c 1.369503,1.057698 3.315232,0.729527 4.599605,-0.297156 c 1.831926,0.280039 -0.300953,2.017061 -1.302239,2.012396 c -0.410293,0.106391 -0.835487,0.15631 -1.258396,0.156037 z"
         sodipodi:nodetypes="sccccccsscccccccccccccccccccccccccccccccccccccccccccccccccccccccccccscccccccsscccccccccccccccccccccccc" />
    </clipPath>
    <clipPath
       clipPathUnits="userSpaceOnUse"
       id="clipPath903">
      <path
         id="path905"
         style="fill:#ffffff;fill-opacity:1;stroke-width:0.735896"
         d="m 28.339176,28.334668 c -0.365662,0 -0.697309,-0.09779 -0.994942,-0.293376 c -0.28912,-0.204094 -0.514463,-0.484708 -0.676031,-0.841864 C 26.506606,26.833771 26.425947,26.425595 26.425947,25.974901 V 8.0921083 c 0,-0.1870731 0.05952,-0.340147 0.178563,-0.4591995 c 0.119041,-0.1190413 0.272015,-0.1785897 0.459197,-0.1785897 c 0.187185,0 0.340133,0.059521 0.459201,0.1785897 c 0.119041,0.1190414 0.178562,0.2721264 0.178562,0.4591995 V 25.974901 c 0,0.314634 0.05952,0.573996 0.178562,0.778085 c 0.119041,0.204094 0.272015,0.306131 0.4592,0.306131 h 0.318881 c 0.169939,0 0.306141,0.05952 0.408188,0.178591 c 0.110697,0.119041 0.16577,0.272126 0.16577,0.459195 c 0,0.187073 -0.08066,0.340148 -0.242255,0.4592 c -0.161597,0.119041 -0.36992,0.178591 -0.625023,0.178591 z M 39.461664,10.556259 q 0.918398,0 1.658207,0.4592 q 0.752576,0.459199 1.173504,1.275551 q 0.433694,0.803596 0.433694,1.798526 q 0,0.99493 -0.4592,1.811281 q -0.459197,0.803599 -1.275551,1.275551 q -0.803584,0.4592 -1.78576,0.4592 q -0.982173,0 -1.785787,-0.4592 Q 36.629924,16.704416 36.157987,15.900817 Q 35.698789,15.084466 35.698789,14.089536 V 8.2730261 q 0,-0.2933784 0.178562,-0.4719544 q 0.191355,-0.1785901 0.471964,-0.1785901 q 0.293378,0 0.471966,0.1785901 q 0.178562,0.1785897 0.178562,0.4719544 v 3.4439869 q 0.446434,-0.548489 1.084223,-0.85462 q 0.637762,-0.306134 1.377598,-0.306134 z m -0.255048,5.931313 q 0.63776,0 1.147998,-0.306131 q 0.522976,-0.318889 0.816351,-0.867375 q 0.306115,-0.548486 0.306115,-1.22453 q 0,-0.676041 -0.306115,-1.211772 q -0.293375,-0.548489 -0.816351,-0.85462 q -0.510238,-0.318886 -1.147998,-0.318886 q -0.637791,0 -1.160767,0.318886 q -0.510209,0.306131 -0.803584,0.85462 q -0.293375,0.535731 -0.293375,1.211772 q 0,0.676044 0.293375,1.22453 q 0.293375,0.548486 0.803584,0.867375 q 0.522976,0.306131 1.160767,0.306131 z m -4.041539,-2.500081 q 0,0.242366 -0.16577,0.408179 q -0.165766,0.153057 -0.420928,0.153057 h -4.847098 q 0.14046,0.892886 0.803585,1.441372 q 0.676061,0.548485 1.64547,0.548485 q 0.382656,0 0.790848,-0.140318 q 0.420928,-0.140319 0.688797,-0.344397 Q 33.838543,15.91355 34.08091,15.91355 q 0.242255,0 0.382656,0.127553 q 0.22974,0.191328 0.22974,0.433686 q 0,0.229599 -0.204152,0.382665 q -0.433695,0.3444 -1.08422,0.561241 q -0.637792,0.216834 -1.224542,0.216834 q -1.045951,0 -1.875068,-0.446442 q -0.82909,-0.459199 -1.301057,-1.262795 q -0.4592,-0.803599 -0.4592,-1.82404 q 0,-1.02044 0.433694,-1.824036 q 0.446435,-0.816352 1.224542,-1.262796 q 0.790819,-0.459199 1.785761,-0.459199 q 0.982175,0 1.696479,0.433689 q 0.714303,0.433686 1.096989,1.211771 q 0.382656,0.778089 0.382656,1.785771 z m -3.176125,-2.334257 q -0.931166,0 -1.517917,0.510221 q -0.573984,0.51022 -0.727043,1.36484 h 4.247581 q -0.114869,-0.85462 -0.637789,-1.36484 q -0.522975,-0.510221 -1.364832,-0.510221 z m -9.81296,-1.096975 q 0.982175,0 1.773021,0.471955 q 0.803585,0.459199 1.262785,1.275551 q 0.471938,0.803599 0.471938,1.798526 v 2.84448 q 0,0.280621 -0.191357,0.471952 q -0.178562,0.17859 -0.459199,0.17859 q -0.28061,0 -0.471938,-0.17859 Q 24.38268,17.227395 24.38268,16.946771 v -0.471954 q -0.446433,0.548486 -1.084222,0.85462 q -0.637762,0.306131 -1.377571,0.306131 q -0.918398,0 -1.670974,-0.4592 q -0.739836,-0.459196 -1.173531,-1.262792 q -0.420928,-0.816355 -0.420928,-1.811285 q 0,-0.994927 0.459199,-1.798526 q 0.4592,-0.816352 1.262813,-1.275551 q 0.816351,-0.471955 1.798526,-0.471955 z m 0,5.931313 q 0.637761,0 1.147998,-0.306131 q 0.522976,-0.318889 0.816352,-0.85462 q 0.293376,-0.548486 0.293376,-1.22453 q 0,-0.676041 -0.293376,-1.224527 q -0.293376,-0.548489 -0.816352,-0.85462 q -0.510237,-0.318886 -1.147998,-0.318886 q -0.637789,0 -1.160765,0.318886 q -0.510209,0.306131 -0.816351,0.85462 Q 19.9055,13.42625 19.9055,14.102291 q 0,0.676044 0.293376,1.22453 q 0.306142,0.535731 0.816351,0.85462 q 0.522976,0.306131 1.160765,0.306131 z m -6.743444,1.22453 q -1.364832,0 -2.500064,-0.676044 Q 11.80999,16.360017 11.159462,15.186511 q -0.650527,-1.173506 -0.650527,-2.589367 q 0,-1.403106 0.650527,-2.56386 Q 11.80999,8.859778 12.932484,8.1837367 q 1.135232,-0.6887991 2.500064,-0.6887991 q 0.969436,0 1.670974,0.2551047 q 0.714303,0.2551046 1.441374,0.8418647 q 0.152973,0.114786 0.20415,0.242366 q 0.0509,0.114786 0.0509,0.2806205 q 0,0.2551046 -0.191357,0.4209309 Q 18.430026,9.701648 18.18766,9.701648 q -0.242254,0 -0.446433,-0.1658236 Q 17.218252,9.0893832 16.720781,8.8980492 Q 16.223311,8.6939544 15.432464,8.6939544 q -0.994913,0 -1.836797,0.5229754 q -0.82909,0.5229757 -1.326561,1.4286162 q -0.484704,0.892886 -0.484704,1.951595 q 0,1.071461 0.484704,1.964347 q 0.497471,0.892885 1.326561,1.415861 q 0.841884,0.522975 1.836797,0.522975 q 1.224541,0 2.347007,-0.841862 q 0.216944,-0.153057 0.420956,-0.153057 q 0.242254,0 0.395395,0.17859 q 0.165768,0.165824 0.165768,0.446442 q 0,0.267871 -0.20415,0.471954 q -1.377598,1.10973 -3.125115,1.10973 z"
         class="first-name-letters" />
    </clipPath>
    <clipPath
       clipPathUnits="userSpaceOnUse"
       id="clipPath915">
      <path
         id="path917"
         style="fill:#ffffff;fill-opacity:1;stroke-width:0.735896"
         d="m 32.620984,28.020843 q -1.020445,0 -1.82403,-0.446442 q -0.803613,-0.459198 -1.250047,-1.262796 q -0.446461,-0.803597 -0.446461,-1.824037 q 0,-1.033196 0.446461,-1.836792 q 0.446434,-0.803599 1.250047,-1.25004 q 0.803585,-0.4592 1.82403,-0.4592 q 1.007681,0 1.798526,0.4592 q 0.803585,0.446441 1.250045,1.25004 q 0.4592,0.803596 0.4592,1.836792 q 0,1.02044 -0.44646,1.824037 q -0.446434,0.803598 -1.250045,1.262796 q -0.790821,0.446442 -1.811266,0.446442 z m 0,-1.147996 q 0.650528,0 1.160737,-0.306133 q 0.522976,-0.30613 0.803614,-0.841861 q 0.293375,-0.548489 0.293375,-1.237285 q 0,-0.688797 -0.293375,-1.237285 q -0.280638,-0.548486 -0.803614,-0.854617 q -0.510209,-0.306134 -1.160737,-0.306134 q -0.650529,0 -1.173504,0.306134 q -0.510236,0.306131 -0.803611,0.854617 q -0.293378,0.548488 -0.293378,1.237285 q 0,0.688796 0.293378,1.237285 q 0.293375,0.535731 0.803611,0.841861 q 0.522975,0.306133 1.173504,0.306133 z m -7.183592,-5.816511 q 0.395423,0.153057 0.395423,0.497465 q 0,0.127552 -0.07649,0.306131 l -3.903195,8.77579 q -0.152974,0.39542 -0.497471,0.39542 q -0.127663,0 -0.306114,-0.07654 q -0.382681,-0.165825 -0.382681,-0.497467 q 0,-0.153056 0.07649,-0.306133 l 1.275551,-2.869989 l -2.869982,-5.446601 q -0.06369,-0.114786 -0.06369,-0.267871 q 0,-0.165824 0.102075,-0.306131 q 0.102075,-0.140319 0.267843,-0.216834 q 0.11487,-0.05101 0.255049,-0.05101 q 0.357152,0 0.535714,0.357152 l 2.334268,4.643007 l 2.053631,-4.630251 q 0.165768,-0.369908 0.497471,-0.369908 q 0.165768,0 0.306142,0.06378 z m -9.27324,-0.1148 q 0.982174,0 1.773021,0.471955 q 0.803585,0.459196 1.262784,1.27555 q 0.471966,0.803597 0.471966,1.798527 v 2.844477 q 0,0.28062 -0.191356,0.471956 q -0.178562,0.178588 -0.4592,0.178588 q -0.280637,0 -0.471965,-0.178588 Q 18.370839,27.61267 18.370839,27.332045 v -0.471953 q -0.44646,0.548486 -1.084222,0.854617 q -0.637789,0.306134 -1.377598,0.306134 q -0.918399,0 -1.670974,-0.459198 q -0.739809,-0.4592 -1.173503,-1.262796 q -0.420928,-0.816351 -0.420928,-1.811281 q 0,-0.99493 0.459199,-1.798527 q 0.4592,-0.816354 1.262785,-1.27555 q 0.816351,-0.471955 1.798526,-0.471955 z m 0,5.931311 q 0.637789,0 1.147998,-0.306133 q 0.522975,-0.318886 0.816351,-0.854616 q 0.293376,-0.548489 0.293376,-1.22453 q 0,-0.676041 -0.293376,-1.22453 Q 17.835125,22.714552 17.31215,22.408421 q -0.510209,-0.318889 -1.147998,-0.318889 q -0.637762,0 -1.160737,0.318889 q -0.510237,0.306131 -0.816352,0.854617 q -0.293376,0.548489 -0.293376,1.22453 q 0,0.676041 0.293376,1.22453 q 0.306115,0.53573 0.816352,0.854616 q 0.522975,0.306133 1.160737,0.306133 z m -1.542059,-8.865078 q 0.267843,0 0.433666,0.17859 q 0.178563,0.165824 0.178563,0.433689 q 0,0.267871 -0.178563,0.446442 q -0.165767,0.165823 -0.433666,0.165823 h -2.742458 v 8.074237 q 0,0.28062 -0.191356,0.471953 q -0.191356,0.191328 -0.471938,0.191328 q -0.280638,0 -0.471966,-0.191328 Q 10.553019,27.587175 10.553019,27.30655 V 19.232313 H 7.7978226 q -0.2678433,0 -0.4464331,-0.165823 Q 7.1856215,18.8879 7.1856215,18.620048 q 0,-0.267871 0.165768,-0.433689 q 0.178562,-0.17859 0.4464331,-0.17859 z m 25.346833,2.908257 q 0.676031,0 1.05869,0.204094 q 0.382683,0.204095 0.382683,0.510221 q 0,0.08928 -0.01392,0.127552 q -0.114872,0.408176 -0.510212,0.408176 q -0.06369,0 -0.191355,-0.02559 q -0.510238,-0.08928 -0.829119,-0.08928 q -0.918398,0 -1.479643,0.420931 q -0.561247,0.420931 -0.561247,1.135241 v 3.724608 q 0,0.306133 -0.165769,0.471953 q -0.152975,0.165825 -0.471938,0.165825 q -0.306141,0 -0.471966,-0.153059 Q 36.549366,27.650876 36.549366,27.33199 v -5.70171 q 0,-0.306134 0.165767,-0.471955 q 0.165769,-0.165824 0.471966,-0.165824 q 0.637763,0 0.637763,0.637776 v 0.242366 q 0.382682,-0.446442 0.943903,-0.701552 q 0.561245,-0.255104 1.199036,-0.255104 z"
         class="last-name-letters" />
    </clipPath>
  </defs>
  <metadata
     id="metadata5">
    <rdf:RDF>
      <cc:Work
         rdf:about="">
        <dc:format>image/svg+xml</dc:format>
        <dc:type
           rdf:resource="http://purl.org/dc/dcmitype/StillImage" />
        <dc:title />
      </cc:Work>
    </rdf:RDF>
  </metadata>
  <g
     id="g1277"
     clip-path="url(#clipPath1295)">
    <path
       style="fill:#1c2942;fill-opacity:1;stroke:none;stroke-width:0.498176px;stroke-linecap:butt;stroke-linejoin:miter;stroke-opacity:1"
       d="M -0.0201629,-0.088367 V 38.622474 H 50.006305 V -0.0883624 Z"
       id="path1184"
       sodipodi:nodetypes="ccccc" />
    <g
       id="g1293"
       class="full-name-shadow-bg">
      <path
         style="fill:#1c2942;fill-opacity:1;stroke:none;stroke-width:0.448124px;stroke-linecap:butt;stroke-linejoin:miter;stroke-opacity:1"
         d="m 0.0899988,-45.156495 l -0.3017074,39.709083 l 50.5179696,-0.94535 l -0.01374,-38.763732 z"
         id="path1081"
         sodipodi:nodetypes="ccccc" />
      <path
         style="fill:#121d34;fill-opacity:1;stroke:none;stroke-width:0.230431px;stroke-linecap:butt;stroke-linejoin:miter;stroke-opacity:1"
         d="m 9.0130135,-5.695469 l 0.1806588,0.888888 L 50.692055,-15.03429 l -0.313499,-4.482368 c 0,0 -7.02999,-1.576644 -10.572184,-2.088405 c -3.109887,-0.449303 -6.318873,-1.812703 -9.362808,-0.86018 C 22.361051,-19.936023 9.0130135,-5.695469 9.0130135,-5.695469 Z"
         id="path1083"
         sodipodi:nodetypes="ccccaac" />
      <path
         style="fill:#001229;fill-opacity:1;stroke:none;stroke-width:0.230431px;stroke-linecap:butt;stroke-linejoin:miter;stroke-opacity:1"
         d="m 8.5141529,-8.149993 c -2.747539,0.914813 -8.6959453,0.228052 -8.6959453,0.228052 l -0.1370795,7.911832 L 49.635345,-11.138955 l 0.09116,-6.165928 c 0,0 -7.889396,-4.036817 -9.464872,-2.060189 c 0,0 -10.018127,8.672902 -27.330547,8.075403 c -2.749103,-0.09488 -2.697715,2.567249 -4.4169331,3.139676 z"
         id="path1035"
         sodipodi:nodetypes="acccccsa" />
      <path
         style="fill:#121d34;fill-opacity:1;stroke:none;stroke-width:0.230431px;stroke-linecap:butt;stroke-linejoin:miter;stroke-opacity:1"
         d="m -0.2547776,-4.432919 l 0.076126,4.385138 L 50.139669,-1.4344 l -0.248676,-12.589068 c 0,0 -5.672483,0.556629 -8.494587,0.241796 c -1.084389,-0.120974 -2.188326,-1.323767 -3.20578,-0.814681 C 24.356457,-7.674379 21.081912,-9.46355 12.776403,-5.797509 c -4.4260602,2.968919 -7.8865763,2.471055 -13.0311806,1.36459 z"
         id="path1033"
         sodipodi:nodetypes="ccccascc" />
      <path
         style="fill:#1c2942;fill-opacity:1;stroke:none;stroke-width:0.523054px;stroke-linecap:butt;stroke-linejoin:miter;stroke-opacity:1"
         d="M -0.3169088,-3.007793 L -0.422172,0.521926 l 50.540717,0.262717 l 0.247007,-8.311286 c 0,0 -5.76676,5.760121 -9.032737,5.241104 c -2.761131,-0.43879 -1.782232,-10.294817 -6.619114,-6.696404 c -11.884722,6.729859 -22.869426,6.974273 -35.0306098,5.97415 z"
         id="path1029"
         sodipodi:nodetypes="ccccacc" />
      <path
         style="fill:#001229;fill-opacity:1;stroke:none;stroke-width:0.230431px;stroke-linecap:butt;stroke-linejoin:miter;stroke-opacity:1"
         d="m 0.2951501,-29.091646 l -0.086549,3.434743 L 50.778603,-36.500149 l -0.313498,-4.482368 C 43.051487,-41.591462 28.21365,-45.15526 23.16118,-42.100189 C 7.7145854,-31.839322 0.2951501,-29.091646 0.2951501,-29.091646 Z"
         id="path2801"
         sodipodi:nodetypes="cccccc" />
      <path
         style="fill:#121d34;fill-opacity:1;stroke:none;stroke-width:0.230431px;stroke-linecap:butt;stroke-linejoin:miter;stroke-opacity:1"
         d="m 0.2086015,-25.656903 l -0.086549,3.434742 c 0,0 6.0898657,16.121543 6.1838346,4.659041 c 0.053663,-6.54583 18.1779989,-16.421945 30.3489089,-13.139105 c 11.554125,3.116477 14.037259,-2.219198 14.037259,-2.219198 l -0.313499,-4.626351 c 0,0 -7.00796,-1.633114 -10.572184,-2.088405 c -4.607311,-0.588534 -9.393438,-1.887809 -13.912233,-0.823259 c -9.643638,2.271875 -25.6855375,14.802535 -25.6855375,14.802535 z"
         id="path2799"
         sodipodi:nodetypes="ccssccaac" />
    </g>
  </g>
  <g
     id="g1303"
     class="full-name-letter-combo-shadow">
    <g
       id="g2669"
       style="fill:#1c2942;fill-opacity:1;stroke:#1c2942;stroke-width:0.264583;stroke-opacity:1"
       transform="matrix(5.536956,0,0,2.7813409,1730.3311,-172.13844)">
      <path
         id="path2667"
         style="fill:#1c2942;fill-opacity:1;stroke:#1c2942;stroke-width:0.264583;stroke-opacity:1"
         d="m -306.89244,72.17677 c -0.13147,0 -0.25071,-0.03516 -0.35772,-0.10548 c -0.10395,-0.07338 -0.18497,-0.174272 -0.24306,-0.302683 c -0.0581,-0.131468 -0.0871,-0.278223 -0.0871,-0.440265 v -6.429558 c 0,-0.06726 -0.0381,-0.159963 0.005,-0.202767 c 0.0428,-0.0428 0.15553,-0.04346 0.2228,-0.04346 c 0.0673,0 0.12412,0.03832 0.16693,0.08113 c 0.0428,0.0428 0.0642,0.09784 0.0642,0.1651 v 6.429558 c 0,0.113123 0.0214,0.206374 0.0642,0.279752 c 0.0428,0.07338 0.0978,0.110066 0.1651,0.110066 h 0.11465 c 0.0611,0 0.11007,0.0214 0.14676,0.06421 c 0.0398,0.0428 0.0596,0.09784 0.0596,0.165099 c 0,0.06726 -0.029,0.122296 -0.0871,0.1651 c -0.0581,0.0428 -0.133,0.06421 -0.22472,0.06421 z" />
    </g>
  </g>
  <g
     id="g924"
     clip-path="url(#clipPath903)">
    <path
       style="fill:#c4c4c5;fill-opacity:1;stroke:none;stroke-width:0.264583px;stroke-linecap:butt;stroke-linejoin:miter;stroke-opacity:1"
       d="M 9.4992748,-48.776536 V 29.694463 H 45.45252 v -78.470998 z"
       id="path1239"
       sodipodi:nodetypes="ccccc" />
    <g
       id="g937"
       class="first-name-bg">
      <path
         id="rect850"
         style="fill:#ffffff;fill-opacity:1;stroke-width:1.465;stroke-linecap:round;stroke-linejoin:round;stroke-dashoffset:16.9701;paint-order:markers fill stroke"
         d="M 49.832761,-38.24745 L 9.4053485,-15.82067 L 7.6955488,6.6626356 C 35.999171,-8.736419 22.493263,-5.237675 56.26906,-26.417681 Z"
         sodipodi:nodetypes="ccccc" />
      <path
         id="rect902"
         style="fill:#e0e0e1;fill-opacity:1;stroke-width:1.465;stroke-linecap:round;stroke-linejoin:round;stroke-dashoffset:16.9701;paint-order:markers fill stroke"
         d="m 50.840966,-22.499611 c 0,0 4.254729,-6.632383 -8.558892,0.339192 c -10.924554,5.943782 -2.533938,11.366105 -25.788,12.356499 C 8.9222099,-9.481433 9.9351907,0.7438044 5.3698337,3.2276624 L 3.7584403,19.399983 L 46.213588,-3.698972 Z"
         sodipodi:nodetypes="csscccc" />
      <path
         id="path931"
         style="fill:#c4c4c5;fill-opacity:1;stroke-width:2.07002;stroke-linecap:round;stroke-linejoin:round;stroke-dashoffset:16.9701;paint-order:markers fill stroke"
         d="m 46.213588,-3.698972 c 0,0 -8.572397,-3.697484 -11.523996,1.3121016 C 31.737992,2.6227149 3.4499516,18.823922 3.4499516,18.823922 H 46.216283 Z"
         sodipodi:nodetypes="czccc" />
      <path
         id="path1100"
         style="fill:#c4c4c5;fill-opacity:1;stroke-width:1.465;stroke-linecap:round;stroke-linejoin:round;stroke-dashoffset:16.9701;paint-order:markers fill stroke"
         d="m 51.592021,-48.776536 l -42.0927462,10e-7 l -0.585705,28.601481 c 18.8605642,-7.527263 9.2778572,-6.009142 23.0529282,-13.503813 c 14.528453,-7.904566 5.139061,-4.28933 19.667564,-12.193803 z"
         sodipodi:nodetypes="cccscc" />
      <path
         id="path1039"
         style="fill:#e0e0e1;fill-opacity:1;stroke-width:1.465;stroke-linecap:round;stroke-linejoin:round;stroke-dashoffset:16.9701;paint-order:markers fill stroke"
         d="m 51.592021,-48.776536 c -4.662457,5.424001 -17.137774,4.291229 -14.48777,7.074869 c 2.697604,2.833639 -12.604145,19.043526 -20.520165,15.457299 c -1.721582,-0.779935 11.381453,-20.341033 0.68425,-14.22156 c -10.6972027,6.119473 -8.0096083,3.232755 -8.0096083,3.232755 l 0.3204389,24.459299 c 13.7750254,-7.494755 13.2675244,6.141245 24.4581084,-4.844819 c 5.185534,-5.090763 1.185055,-6.892296 15.713558,-14.796769 z"
         sodipodi:nodetypes="csszccscc" />
    </g>
  </g>
  <g
     id="g997"
     class="last-name-bg"
     clip-path="url(#clipPath915)">
    <path
       id="rect852"
       style="fill:#ffffff;fill-opacity:1;stroke-width:1.465;stroke-linecap:round;stroke-linejoin:round;stroke-dashoffset:16.9701;paint-order:markers fill stroke"
       d="M 37.043605,-29.230643 L 19.345461,-12.7748 L 1.6478332,3.6810422 L 2.2530392,21.063099 L 28.51596,-2.912354 L 43.288772,-19.368196 V -36.87027 Z"
       sodipodi:nodetypes="cccccccc" />
    <path
       id="path1155"
       style="fill:#e0e0e1;fill-opacity:1;stroke-width:1.465;stroke-linecap:round;stroke-linejoin:round;stroke-dashoffset:16.9701;paint-order:markers fill stroke"
       d="m 37.043605,-13.163763 c 0,0 -19.048629,14.4003432 -24.947924,19.8856246 C 6.1963861,12.207143 1.6478332,19.747922 1.6478332,19.747922 l 4.0734607,12.09923 L 28.51596,13.154526 L 43.288773,-3.301316 l -10e-7,-16.06688 z"
       sodipodi:nodetypes="czcccccc" />
    <path
       id="path1153"
       style="fill:#c4c4c5;fill-opacity:1;stroke-width:1.465;stroke-linecap:round;stroke-linejoin:round;stroke-dashoffset:16.9701;paint-order:markers fill stroke"
       d="m 25.656068,12.512334 c -8.175,4.241958 -18.0756908,14.262782 -19.9102781,18.457103 l -0.024496,0.877715 H 43.288773 V -3.301316 c -8.296236,5.3891564 -4.619775,9.0613203 -17.632705,15.81365 z"
       sodipodi:nodetypes="sccccs" />
    <path
       id="path1157"
       style="fill:#e0e0e1;fill-opacity:1;stroke-width:1.465;stroke-linecap:round;stroke-linejoin:round;stroke-dashoffset:16.9701;paint-order:markers fill stroke"
       d="M 2.5910084,-36.87027 L 2.3037632,5.0903724 c 0,0 29.2805498,-17.9667024 35.3106878,-23.3486884 c 6.030139,-5.381985 5.674321,-18.611954 5.674321,-18.611954 v 0 z"
       sodipodi:nodetypes="cczccc" />
    <path
       id="path1159"
       style="fill:#c4c4c5;fill-opacity:1;stroke-width:1.465;stroke-linecap:round;stroke-linejoin:round;stroke-dashoffset:16.9701;paint-order:markers fill stroke"
       d="m 6.481839,-36.87027 c 0.636032,14.54502 3.682714,27.414237 14.623989,23.764948 c 10.85997,-3.854606 19.466099,-19.90813 22.182944,-23.764948 v 0 z"
       sodipodi:nodetypes="ccccc" />
  </g>
</svg>
