<?xml version="1.0" encoding="UTF-8" standalone="no"?>
<svg
   xmlns:dc="http://purl.org/dc/elements/1.1/"
   xmlns:cc="http://creativecommons.org/ns#"
   xmlns:rdf="http://www.w3.org/1999/02/22-rdf-syntax-ns#"
   xmlns:svg="http://www.w3.org/2000/svg"
   xmlns="http://www.w3.org/2000/svg"
   xmlns:sodipodi="http://sodipodi.sourceforge.net/DTD/sodipodi-0.dtd"
   xmlns:inkscape="http://www.inkscape.org/namespaces/inkscape"
   width="49.912819mm"
   height="38.485626mm"
   viewBox="0 0 49.91282 38.485626"
   version="1.1"
   id="svg8"
   sodipodi:docname="calebtaylorlogo-animated-inkscape.svg"
   inkscape:version="1.0.2 (394de47547, 2021-03-26)">
  <sodipodi:namedview
     pagecolor="#ffffff"
     bordercolor="#666666"
     borderopacity="1"
     objecttolerance="10"
     gridtolerance="10"
     guidetolerance="10"
     inkscape:pageopacity="0"
     inkscape:pageshadow="2"
     inkscape:window-width="1920"
     inkscape:window-height="1016"
     id="namedview25"
     showgrid="false"
     inkscape:zoom="1.4611684"
     inkscape:cx="133.00719"
     inkscape:cy="-46.457225"
     inkscape:window-x="0"
     inkscape:window-y="27"
     inkscape:window-maximized="1"
     inkscape:current-layer="layer4"
     inkscape:document-rotation="0"
     showguides="true"
     inkscape:guide-bbox="true" />
  <defs
     id="defs2">
    <mask
       maskUnits="userSpaceOnUse"
       id="mask2754">
      <g
         id="g2766"
         class="last-name-letters">
        <path
           d="m 7.4364715,10.693353 q 0.2678432,0 0.4336667,0.17859 q 0.1785621,0.165824 0.1785621,0.433689 q 0,0.267871 -0.1785621,0.446442 Q 7.7043703,11.917897 7.4364715,11.917897 H 4.6940138 v 8.074236 q 0,0.28062 -0.1913563,0.471954 q -0.1913562,0.191329 -0.4719379,0.191329 q -0.2806373,0 -0.4719657,-0.191329 Q 3.3673976,20.272759 3.3673976,19.992133 V 11.917897 H 0.61220131 q -0.26784313,0 -0.44643303,-0.165823 Q 3.6227493e-7,11.573484 3.6227493e-7,11.305632 q 0,-0.267871 0.16576791772507,-0.433689 q 0.17856209,-0.17859 0.44643303,-0.17859 z"
           style="fill:#ffffff;fill-opacity:1;stroke-width:0.735896"
           id="path2756" />
        <path
           d="m 8.9785304,13.62712 q 0.9821749,0 1.7730216,0.471955 q 0.803585,0.459196 1.262784,1.27555 q 0.471966,0.803597 0.471966,1.798527 v 2.844477 q 0,0.280621 -0.191356,0.471955 q -0.178562,0.17859 -0.4592,0.17859 q -0.280637,0 -0.471965,-0.17859 q -0.178563,-0.191329 -0.178563,-0.471955 v -0.471952 q -0.44646,0.548486 -1.084222,0.854617 q -0.6377892,0.306134 -1.377598,0.306134 q -0.9183988,0 -1.670974,-0.459199 Q 6.3126151,19.788029 5.8789206,18.984433 Q 5.4579925,18.168082 5.4579925,17.173152 q 0,-0.99493 0.4591994,-1.798527 q 0.4591994,-0.816354 1.2627844,-1.27555 Q 7.9963276,13.62712 8.9785025,13.62712 Z m 0,5.931312 q 0.6377892,0 1.1479986,-0.306133 q 0.522975,-0.318887 0.816351,-0.854617 q 0.293376,-0.548489 0.293376,-1.22453 q 0,-0.676041 -0.293376,-1.22453 Q 10.649504,15.400136 10.126529,15.094005 Q 9.6163196,14.775116 8.9785304,14.775116 q -0.6377615,0 -1.160737,0.318889 q -0.510237,0.306131 -0.8163514,0.854617 q -0.2933758,0.548489 -0.2933758,1.22453 q 0,0.676041 0.2933758,1.22453 q 0.3061144,0.53573 0.8163514,0.854617 q 0.5229755,0.306133 1.160737,0.306133 z"
           style="fill:#ffffff;fill-opacity:1;stroke-width:0.735896"
           id="path2758" />
        <path
           d="m 18.251771,13.74192 q 0.395423,0.153057 0.395423,0.497465 q 0,0.127552 -0.07649,0.306131 l -3.903195,8.77579 q -0.152974,0.39542 -0.497471,0.39542 q -0.127663,0 -0.306114,-0.07654 Q 13.481243,23.47436 13.481243,23.142719 q 0,-0.153057 0.07649,-0.306134 l 1.275551,-2.869988 l -2.869982,-5.446602 q -0.06369,-0.114786 -0.06369,-0.267871 q 0,-0.165824 0.102075,-0.306131 q 0.102075,-0.140319 0.267843,-0.216834 q 0.11487,-0.05101 0.255049,-0.05101 q 0.357152,0 0.535714,0.357152 l 2.334268,4.643007 l 2.053631,-4.630251 q 0.165768,-0.369908 0.497471,-0.369908 q 0.165768,0 0.306142,0.06378 z"
           style="fill:#ffffff;fill-opacity:1;stroke-width:0.735896"
           id="path2760" />
        <path
           d="m 25.435363,20.706428 q -1.020446,0 -1.824031,-0.446444 q -0.803613,-0.459197 -1.250046,-1.262795 q -0.446461,-0.803597 -0.446461,-1.824037 q 0,-1.033196 0.446461,-1.836792 q 0.446433,-0.803599 1.250046,-1.25004 q 0.803585,-0.4592 1.824031,-0.4592 q 1.00768,0 1.798526,0.4592 q 0.803585,0.446441 1.250046,1.25004 q 0.459199,0.803596 0.459199,1.836792 q 0,1.02044 -0.44646,1.824037 q -0.446433,0.803598 -1.250046,1.262795 q -0.790819,0.446444 -1.811265,0.446444 z m 0,-1.147996 q 0.650528,0 1.160737,-0.306133 q 0.522975,-0.306131 0.803613,-0.841862 q 0.293376,-0.548489 0.293376,-1.237285 q 0,-0.688797 -0.293376,-1.237285 Q 27.119075,15.387381 26.5961,15.08125 q -0.510209,-0.306134 -1.160737,-0.306134 q -0.650528,0 -1.173503,0.306134 q -0.510237,0.306131 -0.803613,0.854617 q -0.293376,0.548488 -0.293376,1.237285 q 0,0.688796 0.293376,1.237285 q 0.293376,0.535731 0.803613,0.841862 q 0.522975,0.306133 1.173503,0.306133 z"
           style="fill:#ffffff;fill-opacity:1;stroke-width:0.735896"
           id="path2762" />
        <path
           d="m 32.783304,13.60161 q 0.676033,0 1.05869,0.204094 q 0.382684,0.204095 0.382684,0.510221 q 0,0.08928 -0.01391,0.127552 q -0.11487,0.408176 -0.51021,0.408176 q -0.06369,0 -0.191356,-0.02559 q -0.510237,-0.08928 -0.829118,-0.08928 q -0.918398,0 -1.479645,0.420931 q -0.561247,0.420931 -0.561247,1.135241 v 3.724607 q 0,0.306134 -0.165768,0.471955 q -0.152974,0.165824 -0.471938,0.165824 q -0.306142,0 -0.471965,-0.153058 q -0.165768,-0.165823 -0.165768,-0.48471 v -5.701709 q 0,-0.306134 0.165768,-0.471955 q 0.165767,-0.165824 0.471965,-0.165824 q 0.637762,0 0.637762,0.637776 v 0.242366 q 0.382684,-0.446442 0.943903,-0.701552 q 0.561247,-0.255104 1.199036,-0.255104 z"
           style="fill:#ffffff;fill-opacity:1;stroke-width:0.735896"
           id="path2764" />
      </g>
    </mask>
    <mask
       maskUnits="userSpaceOnUse"
       id="mask2865">
      <g
         id="g2869"
         class="full-name-shadow">
        <path
           id="path2867"
           style="fill:#ffffff;fill-opacity:1;stroke:none;stroke-width:0.735896"
           d="m 32.781628,13.596487 c 0.450689,0 0.80359,0.06803 1.058688,0.204094 c 0.25513,0.136063 0.382691,0.306137 0.382691,0.510221 c 0,0.05952 -0.005,0.102037 -0.01389,0.127552 c -0.0766,0.272117 -0.24665,0.408176 -0.510212,0.408176 c -0.0425,0 -0.106246,-0.0085 -0.19135,-0.02559 c -0.340158,-0.05952 -0.616526,-0.08928 -0.829116,-0.08928 c -0.61227,0 -1.105485,0.14031 -1.479654,0.420931 c -0.374157,0.280621 -0.561239,0.659033 -0.561239,1.135241 v 3.724607 c 0,0.204089 -0.05526,0.361408 -0.165769,0.471955 c -0.101989,0.110549 -0.2593,0.165824 -0.47194,0.165824 c -0.204094,0 -0.361418,-0.05102 -0.471969,-0.153058 c -0.110511,-0.110549 -0.165764,-0.27212 -0.165764,-0.48471 v -5.701709 c 0,-0.204089 0.05525,-0.361408 0.165764,-0.471955 c 0.110511,-0.110549 0.267835,-0.165824 0.471969,-0.165824 c 0.425172,0 0.637757,0.212592 0.637757,0.637776 v 0.242366 c 0.255127,-0.297628 0.569764,-0.531479 0.943914,-0.701552 c 0.374158,-0.170069 0.77384,-0.255104 1.199031,-0.255104 z m -7.347935,7.104818 c -0.680297,0 -1.288308,-0.148814 -1.824031,-0.446444 C 23.07392,19.94873 22.657238,19.527798 22.359616,18.992066 C 22.061975,18.456335 21.913155,17.848322 21.913155,17.16803 c 0,-0.688798 0.14882,-1.301062 0.446461,-1.836793 c 0.297622,-0.535733 0.714304,-0.952413 1.250046,-1.25004 c 0.535723,-0.306133 1.143734,-0.4592 1.824031,-0.4592 c 0.671786,0 1.271295,0.153067 1.798525,0.4592 c 0.535728,0.297627 0.952412,0.714307 1.250053,1.25004 c 0.306123,0.535731 0.459184,1.147995 0.459184,1.836793 c 0,0.680292 -0.148815,1.288305 -0.446445,1.824036 c -0.297627,0.535732 -0.714311,0.956664 -1.250053,1.262795 c -0.527211,0.29763 -1.130966,0.446444 -1.811264,0.446444 z m 0,-1.147996 c 0.433685,0 0.820598,-0.102044 1.160736,-0.306133 c 0.348652,-0.204087 0.616521,-0.484708 0.803614,-0.841862 c 0.195582,-0.365659 0.293375,-0.778088 0.293375,-1.237284 c 0,-0.459199 -0.09779,-0.871627 -0.293375,-1.237286 c -0.187093,-0.365657 -0.454962,-0.65053 -0.803614,-0.854617 c -0.340138,-0.204089 -0.727051,-0.306134 -1.160736,-0.306134 c -0.433685,0 -0.824853,0.102045 -1.173503,0.306134 c -0.340158,0.204087 -0.608029,0.48896 -0.803613,0.854617 c -0.195584,0.365659 -0.293376,0.778087 -0.293376,1.237286 c 0,0.459196 0.09779,0.871625 0.293376,1.237284 c 0.195584,0.357154 0.463455,0.637775 0.803613,0.841862 c 0.34865,0.204089 0.739818,0.306133 1.173503,0.306133 z m -7.183592,-5.816512 c 0.263615,0.102038 0.395423,0.26786 0.395423,0.497465 c 0,0.08504 -0.0255,0.187078 -0.07649,0.306131 l -3.903195,8.77579 c -0.101983,0.263613 -0.267806,0.39542 -0.497471,0.39542 c -0.08511,0 -0.187147,-0.02551 -0.306114,-0.07654 C 13.607133,23.524512 13.479573,23.35869 13.479573,23.137596 c 0,-0.102038 0.0255,-0.204083 0.07649,-0.306134 l 1.275551,-2.869988 l -2.869985,-5.446602 c -0.04246,-0.07652 -0.06369,-0.165814 -0.06369,-0.267871 c 0,-0.110549 0.03402,-0.212593 0.102075,-0.306131 c 0.06805,-0.09355 0.157331,-0.165824 0.267843,-0.216834 c 0.07658,-0.03401 0.161596,-0.05101 0.255049,-0.05101 c 0.238101,0 0.416673,0.119051 0.535714,0.357152 l 2.334268,4.643007 l 2.053631,-4.630251 c 0.110512,-0.246605 0.276336,-0.369908 0.497471,-0.369908 c 0.110512,0 0.212559,0.02126 0.306142,0.06378 z m -9.273241,-0.1148 c 0.654783,0 1.245791,0.157318 1.773022,0.471955 c 0.535723,0.306131 0.956651,0.731314 1.262784,1.27555 c 0.314644,0.535731 0.471966,1.13524 0.471966,1.798528 v 2.844476 c 0,0.187081 -0.06378,0.3444 -0.191356,0.471955 c -0.119041,0.119061 -0.272108,0.17859 -0.4592,0.17859 c -0.187091,0 -0.344413,-0.05953 -0.471965,-0.17859 C 11.243069,20.356908 11.183548,20.19959 11.183548,20.012506 v -0.471952 c -0.29764,0.365657 -0.659047,0.650531 -1.084222,0.854617 C 9.674133,20.59926 9.214934,20.701305 8.721728,20.701305 c -0.612266,0 -1.169257,-0.153066 -1.670974,-0.459198 C 6.557548,19.935973 6.16638,19.515041 5.877251,18.97931 C 5.596632,18.435076 5.456322,17.831316 5.456322,17.16803 c 0,-0.663288 0.153067,-1.262797 0.4592,-1.798528 c 0.306133,-0.544236 0.727061,-0.969419 1.262784,-1.27555 C 7.722541,13.779315 8.32205,13.621997 8.976833,13.621997 Z m 0,5.931312 c 0.425193,0 0.80786,-0.102044 1.147999,-0.306133 c 0.34865,-0.21259 0.620767,-0.497464 0.816351,-0.854616 c 0.195584,-0.36566 0.293376,-0.773837 0.293376,-1.22453 c 0,-0.450695 -0.09779,-0.858872 -0.293376,-1.224531 c -0.195584,-0.365657 -0.467701,-0.65053 -0.816351,-0.854617 C 9.78472,14.876289 9.402053,14.769993 8.97686,14.769993 c -0.425174,0 -0.812086,0.106296 -1.160737,0.318889 c -0.340158,0.204087 -0.612275,0.48896 -0.816351,0.854617 C 6.804188,16.309158 6.706396,16.717335 6.706396,17.16803 c 0,0.450693 0.09779,0.85887 0.293376,1.22453 c 0.204076,0.357152 0.476193,0.642026 0.816351,0.854616 c 0.348651,0.204089 0.735563,0.306133 1.160737,0.306133 z M 7.434802,10.68823 c 0.178562,0 0.323117,0.05953 0.433666,0.17859 c 0.119041,0.110549 0.178562,0.255112 0.178562,0.433689 c 0,0.178581 -0.05952,0.327395 -0.178562,0.446442 C 7.757956,11.8575 7.613401,11.912774 7.434802,11.912774 H 4.692344 v 8.074236 c 0,0.18708 -0.06378,0.344398 -0.191356,0.471954 C 4.373417,20.586518 4.216104,20.650293 4.02905,20.650293 c -0.187092,0 -0.344414,-0.06378 -0.471966,-0.191329 C 3.429513,20.331412 3.365728,20.174094 3.365728,19.98701 V 11.912774 H 0.610531 c -0.178562,0 -0.327373,-0.05527 -0.446433,-0.165823 C 0.053586,11.627891 -0.00167,11.479077 -0.00167,11.300509 c 0,-0.178581 0.05526,-0.323144 0.165768,-0.433689 C 0.283139,10.74776 0.43195,10.68823 0.610531,10.68823 Z m 13.717063,10.326899 c -0.365663,0 -0.69731,-0.09779 -0.994942,-0.293375 c -0.28912,-0.204095 -0.514464,-0.48471 -0.676032,-0.841865 C 19.319295,19.514232 19.238636,19.106056 19.238636,18.655362 V 0.7725686 c 0,-0.187073 0.05952,-0.340147 0.178562,-0.459199 c 0.119041,-0.119041 0.272015,-0.17859 0.459199,-0.17859 c 0.187185,0 0.340131,0.05952 0.4592,0.17859 c 0.119041,0.119041 0.178562,0.272126 0.178562,0.459199 V 18.655362 c 0,0.314634 0.05952,0.573997 0.178562,0.778086 c 0.119041,0.204094 0.272015,0.306131 0.459199,0.306131 h 0.318881 c 0.16994,0 0.306142,0.05952 0.40819,0.17859 c 0.110697,0.119042 0.165768,0.272126 0.165768,0.459196 c 0,0.187073 -0.08066,0.340147 -0.242255,0.4592 c -0.161596,0.119042 -0.369919,0.178589 -0.625023,0.178589 z M 32.274348,3.2367206 c 0.612269,0 1.165,0.1530662 1.65821,0.4591989 c 0.501718,0.3061332 0.892889,0.731316 1.173498,1.2755512 c 0.289131,0.5357307 0.4337,1.1352387 0.4337,1.7985258 c 0,0.6632871 -0.15307,1.2670472 -0.4592,1.8112811 c -0.306129,0.5357333 -0.731319,0.9609161 -1.275549,1.2755509 c -0.535731,0.3061335 -1.13098,0.4592005 -1.78576,0.4592005 c -0.654788,0 -1.25005,-0.153067 -1.785792,-0.4592005 C 29.706223,9.5421937 29.285297,9.1170109 28.970676,8.5812776 C 28.664545,8.0370437 28.511481,7.4332836 28.511481,6.7699965 v -5.81651 c 0,-0.1955848 0.05952,-0.3529029 0.178554,-0.4719539 c 0.127574,-0.11906 0.284892,-0.17859 0.471961,-0.17859 c 0.195588,0 0.352909,0.05953 0.471969,0.17859 c 0.119041,0.119059 0.178562,0.2763771 0.178562,0.4719539 v 3.4439873 c 0.297627,-0.3656594 0.659032,-0.6505331 1.08422,-0.85462 c 0.425178,-0.204089 0.884378,-0.3061332 1.377601,-0.3061332 z m -0.255051,5.9313123 c 0.42518,0 0.80785,-0.1020442 1.148001,-0.3061311 c 0.348649,-0.212593 0.620768,-0.501718 0.816348,-0.8673753 c 0.204081,-0.3656568 0.30612,-0.773834 0.30612,-1.22453 c 0,-0.4506939 -0.102039,-0.8546179 -0.30612,-1.2117718 C 33.788066,5.1925658 33.515947,4.9076918 33.167298,4.7036047 C 32.827147,4.4910138 32.444477,4.3847188 32.019297,4.3847188 c -0.425193,0 -0.812114,0.106295 -1.160761,0.3188859 c -0.34014,0.2040871 -0.608002,0.4889611 -0.80359,0.85462 c -0.19558,0.3571539 -0.29337,0.7610779 -0.29337,1.2117718 c 0,0.450696 0.09779,0.8588732 0.29337,1.22453 c 0.195588,0.3656573 0.463449,0.6547823 0.80359,0.8673753 c 0.348647,0.2040869 0.735568,0.3061311 1.160761,0.3061311 z M 27.977768,6.6679517 c 0,0.1615771 -0.05526,0.2976367 -0.165769,0.4081791 c -0.110511,0.1020376 -0.250822,0.1530569 -0.420931,0.1530569 h -4.847097 c 0.09364,0.5952567 0.3615,1.0757141 0.803585,1.4413709 c 0.450707,0.3656573 0.999196,0.548486 1.645469,0.548486 c 0.255105,0 0.51872,-0.04677 0.790848,-0.1403178 c 0.280617,-0.09355 0.510217,-0.2083451 0.688797,-0.344397 c 0.119042,-0.09355 0.259353,-0.1403189 0.420929,-0.1403189 c 0.161504,0 0.289057,0.04252 0.382656,0.127553 c 0.153159,0.1275519 0.229738,0.2721139 0.229738,0.4336859 c 0,0.1530668 -0.06805,0.2806221 -0.20415,0.3826648 c -0.289129,0.2296001 -0.650537,0.4166801 -1.08422,0.5612414 c -0.425193,0.144556 -0.833375,0.216834 -1.224542,0.216834 c -0.697301,0 -1.322324,-0.148814 -1.875069,-0.4464422 C 22.565285,9.5634146 22.1316,9.1424837 21.816956,8.6067527 C 21.510823,8.0710194 21.357757,7.4630066 21.357757,6.7827126 c 0,-0.6802929 0.144565,-1.2883062 0.433694,-1.8240369 c 0.297622,-0.5442339 0.705802,-0.9651661 1.224541,-1.2627951 c 0.527213,-0.3061332 1.122466,-0.4591989 1.78576,-0.4591989 c 0.654783,0 1.220275,0.144563 1.69648,0.4336891 c 0.476202,0.2891237 0.841864,0.693048 1.096989,1.211771 c 0.255106,0.5187259 0.382659,1.1139826 0.382659,1.785771 z m -3.176127,-2.334257 c -0.620777,0 -1.126749,0.1700739 -1.517917,0.5102209 c -0.382657,0.340147 -0.625004,0.795093 -0.727042,1.3648401 h 4.24758 C 26.727681,5.6390086 26.515086,5.1840626 26.166474,4.8439156 C 25.817822,4.5037686 25.362878,4.3336947 24.801641,4.3336947 Z m -9.81296,-1.0969741 c 0.654783,0 1.24579,0.1573178 1.773021,0.4719542 c 0.535723,0.3061327 0.956652,0.7313168 1.262785,1.2755509 c 0.314625,0.5357331 0.471938,1.1352411 0.471938,1.7985261 v 2.84448 c 0,0.1870811 -0.06379,0.3443981 -0.191357,0.4719522 c -0.119041,0.11906 -0.272108,0.17859 -0.459199,0.17859 c -0.187073,0 -0.344386,-0.05953 -0.471938,-0.17859 C 17.25489,9.9716315 17.195369,9.8143147 17.195369,9.6272318 V 9.1552779 c -0.297622,0.3656568 -0.659029,0.650531 -1.084222,0.8546201 c -0.425175,0.204087 -0.884365,0.306131 -1.377571,0.306131 c -0.612265,0 -1.169257,-0.153067 -1.670974,-0.4592005 C 12.569378,9.5506979 12.178201,9.1297665 11.889071,8.5940358 C 11.608452,8.0497998 11.468143,7.4460384 11.468143,6.7827518 c 0,-0.663285 0.153066,-1.262793 0.459199,-1.7985261 C 12.233475,4.4399916 12.654428,4.0148075 13.19017,3.7086748 c 0.544234,-0.3146364 1.143728,-0.4719542 1.798511,-0.4719542 z m 0,5.9313123 c 0.425174,0 0.80784,-0.1020442 1.147998,-0.3061311 c 0.348651,-0.212593 0.620768,-0.4974661 0.816352,-0.85462 c 0.195584,-0.3656571 0.293376,-0.773834 0.293376,-1.22453 c 0,-0.4506944 -0.09779,-0.8588703 -0.293376,-1.2245271 C 16.757447,5.1925658 16.48533,4.9076918 16.136679,4.7036047 C 15.796521,4.4910138 15.413855,4.3847188 14.988681,4.3847188 c -0.425193,0 -0.812114,0.106295 -1.160765,0.3188859 c -0.340139,0.2040871 -0.612256,0.4889611 -0.816351,0.85462 c -0.195584,0.3656568 -0.293376,0.7738327 -0.293376,1.2245271 c 0,0.450696 0.09779,0.8588729 0.293376,1.22453 c 0.204095,0.3571539 0.476212,0.642027 0.816351,0.85462 c 0.348651,0.2040869 0.735572,0.3061311 1.160765,0.3061311 z M 8.245236,10.392563 c -0.909887,0 -1.743242,-0.225348 -2.500063,-0.6760441 C 4.996844,9.2658245 4.405836,8.6493088 3.972151,7.8669714 C 3.538466,7.0846345 3.321623,6.2215118 3.321623,5.2776047 c 0,-0.9354039 0.216843,-1.7900242 0.650528,-2.5638603 C 4.405836,1.9314076 4.996844,1.3148917 5.745173,0.8641975 C 6.501994,0.4049986 7.335349,0.1753986 8.245236,0.1753986 c 0.646291,0 1.203283,0.08504 1.670974,0.255104 c 0.476203,0.17007 0.956661,0.450692 1.441375,0.841865 c 0.101982,0.07652 0.170032,0.157313 0.20415,0.242366 c 0.03393,0.07652 0.0509,0.1700641 0.0509,0.280621 c 0,0.1700689 -0.06379,0.310379 -0.191357,0.4209299 c -0.119041,0.110549 -0.259351,0.1658242 -0.420928,0.1658242 c -0.161503,0 -0.310314,-0.05527 -0.446433,-0.1658242 C 10.205267,1.9186576 9.865118,1.7060657 9.533471,1.5785096 C 9.201824,1.4424465 8.772385,1.3744145 8.245154,1.3744145 c -0.663275,0 -1.275541,0.1743252 -1.836798,0.5229762 C 5.85563,2.2460406 5.413443,2.7222457 5.081796,3.3260066 C 4.75866,3.9212638 4.597092,4.5717956 4.597092,5.2776018 c 0,0.714307 0.161568,1.3690896 0.484704,1.9643468 c 0.331647,0.5952569 0.773834,1.0672103 1.32656,1.4158613 c 0.561257,0.3486499 1.173523,0.5229746 1.836798,0.5229746 c 0.816361,0 1.598696,-0.2806197 2.347007,-0.841861 c 0.144629,-0.1020387 0.284947,-0.153058 0.420955,-0.153058 c 0.161503,0 0.293301,0.05953 0.395395,0.1785903 c 0.110512,0.110549 0.165768,0.2593631 0.165768,0.446442 c 0,0.1785808 -0.06805,0.3358991 -0.20415,0.4719537 C 10.45173,10.022672 9.410025,10.392582 8.245014,10.392582 Z"
           sodipodi:nodetypes="csscscsssscscssssscsccscssscsccsscssccsccscssccscsccscscccsscscccsccsccsscscscssccsccsssccsscsccsccsscscscssssscscsssscccsssssssssscssccsccsccsccsscssscsssccsccsccsscsccsccsccscsccsccsccsssccsccccssccsscscscssccsccssccsscsccsccsccssccscccscsccsccsccscscsccc" />
      </g>
    </mask>
    <mask
       maskUnits="userSpaceOnUse"
       id="mask884">
      <g
         id="g898"
         class="first-name-letters">
        <g
           id="g894">
          <path
             d="m 8.2469265,10.397686 q -1.3648318,0 -2.5000639,-0.6760441 Q 4.624369,9.0456008 3.9738412,7.8720947 Q 3.3233134,6.6985886 3.3233134,5.2827275 q 0,-1.4031058 0.6505278,-2.5638595 Q 4.624369,1.5453619 5.7468626,0.86932079 Q 6.8820947,0.18052172 8.2469265,0.18052172 q 0.9694363,0 1.6709739,0.25510459 Q 10.632204,0.69073089 11.359275,1.2774909 q 0.152973,0.114786 0.20415,0.2423661 q 0.0509,0.1147859 0.0509,0.2806206 q 0,0.2551046 -0.191357,0.4209309 Q 11.244405,2.387232 11.002039,2.387232 q -0.242254,0 -0.446433,-0.1658235 Q 10.032631,1.7749671 9.5351601,1.5836331 Q 9.0376895,1.3795383 8.246843,1.3795383 q -0.9949134,0 -1.8367975,0.5229755 Q 5.5809556,2.4254894 5.0834849,3.3311301 Q 4.5987807,4.2240157 4.5987807,5.2827247 q 0,1.0714615 0.4847042,1.9643471 q 0.4974707,0.8928855 1.3265606,1.415861 Q 7.2519296,9.1859083 8.246843,9.1859083 q 1.224541,0 2.347007,-0.8418618 q 0.216944,-0.1530572 0.420956,-0.1530572 q 0.242254,0 0.395395,0.1785899 q 0.165768,0.1658236 0.165768,0.4464414 q 0,0.2678709 -0.20415,0.4719546 Q 9.9942204,10.397705 8.2467039,10.397705 Z"
             style="fill:#ffffff;fill-opacity:1;stroke-width:0.735896"
             id="path886" />
          <path
             d="m 14.990371,3.2418435 q 0.982175,0 1.773021,0.4719546 q 0.803585,0.4591994 1.262785,1.2755508 q 0.471938,0.8035989 0.471938,1.7985263 v 2.8444801 q 0,0.2806206 -0.191357,0.4719517 q -0.178562,0.17859 -0.459199,0.17859 q -0.28061,0 -0.471938,-0.17859 Q 17.197059,9.9129787 17.197059,9.6323553 V 9.1604007 q -0.446433,0.548486 -1.084222,0.8546203 q -0.637762,0.306131 -1.377571,0.306131 q -0.918398,0 -1.670974,-0.4591998 Q 12.324456,9.4027556 11.890761,8.5991595 Q 11.469833,7.7828053 11.469833,6.7878752 q 0,-0.9949274 0.459199,-1.7985263 q 0.4592,-0.8163514 1.262813,-1.2755508 q 0.816351,-0.4719546 1.798526,-0.4719546 z m 0,5.9313124 q 0.637761,0 1.147998,-0.3061311 q 0.522976,-0.318889 0.816352,-0.8546198 q 0.293376,-0.548486 0.293376,-1.2245298 q 0,-0.6760411 -0.293376,-1.2245271 Q 16.661345,5.0148593 16.138369,4.7087283 Q 15.628132,4.389842 14.990371,4.389842 q -0.637789,0 -1.160765,0.3188863 q -0.510209,0.306131 -0.816351,0.8546198 q -0.293376,0.548486 -0.293376,1.2245271 q 0,0.6760438 0.293376,1.2245298 q 0.306142,0.5357308 0.816351,0.8546198 q 0.522976,0.3061311 1.160765,0.3061311 z"
             style="fill:#ffffff;fill-opacity:1;stroke-width:0.735896"
             id="path888" />
          <path
             d="m 27.979455,6.6730753 q 0,0.2423661 -0.165768,0.4081785 Q 27.64792,7.234311 27.392759,7.234311 h -4.847098 q 0.140458,0.8928855 0.803585,1.4413715 q 0.67606,0.548486 1.645469,0.548486 q 0.382657,0 0.790847,-0.1403187 Q 26.20649,8.9435312 26.474361,8.7394531 q 0.178562,-0.1403187 0.420928,-0.1403187 q 0.242255,0 0.382657,0.1275523 q 0.229738,0.1913285 0.229738,0.4336862 q 0,0.2295996 -0.20415,0.3826652 q -0.433695,0.3443995 -1.084222,0.5612409 q -0.63779,0.216834 -1.224541,0.216834 q -1.045951,0 -1.875069,-0.4464417 Q 22.290612,9.4154719 21.818646,8.6118757 Q 21.359447,7.8082768 21.359447,6.7878362 q 0,-1.0204406 0.433694,-1.8240367 Q 22.239574,4.1474481 23.017682,3.701004 q 0.790819,-0.4591994 1.78576,-0.4591994 q 0.982175,0 1.696479,0.4336889 q 0.714304,0.4336861 1.096989,1.2117718 q 0.382657,0.7780885 0.382657,1.7857711 z m -3.176124,-2.334257 q -0.931165,0 -1.517917,0.5102203 q -0.573985,0.5102203 -0.727042,1.3648401 h 4.24758 Q 26.691083,5.3592589 26.168163,4.8490386 Q 25.645187,4.3388183 24.803331,4.3388183 Z"
             style="fill:#ffffff;fill-opacity:1;stroke-width:0.735896"
             id="path890" />
          <path
             d="m 32.276043,3.2418435 q 0.918399,0 1.658208,0.4591994 q 0.752575,0.4591994 1.173503,1.2755508 q 0.433694,0.8035961 0.433694,1.7985262 q 0,0.9949302 -0.459199,1.8112815 q -0.459199,0.803599 -1.275551,1.2755508 q -0.803585,0.4591998 -1.78576,0.4591998 q -0.982174,0 -1.785787,-0.4591998 Q 29.444304,9.3900004 28.972366,8.5864014 Q 28.513167,7.7700501 28.513167,6.7751199 V 0.95861018 q 0,-0.29337862 0.178562,-0.47195461 q 0.191356,-0.1785899 0.471966,-0.1785899 q 0.293376,0 0.471965,0.1785899 q 0.178563,0.1785899 0.178563,0.47195461 V 4.4025972 q 0.446433,-0.5484888 1.084222,-0.8546198 q 0.637761,-0.3061339 1.377598,-0.3061339 z m -0.255049,5.9313124 q 0.637762,0 1.147999,-0.3061311 q 0.522975,-0.318889 0.816351,-0.867375 q 0.306114,-0.548486 0.306114,-1.2245299 q 0,-0.676041 -0.306114,-1.2117718 Q 33.691968,5.0148593 33.168993,4.7087283 Q 32.658756,4.389842 32.020994,4.389842 q -0.637789,0 -1.160765,0.3188863 q -0.510209,0.306131 -0.803585,0.8546198 q -0.293376,0.5357308 -0.293376,1.2117718 q 0,0.6760439 0.293376,1.2245299 q 0.293376,0.548486 0.803585,0.867375 q 0.522976,0.3061311 1.160765,0.3061311 z"
             style="fill:#ffffff;fill-opacity:1;stroke-width:0.735896"
             id="path892" />
        </g>
        <path
           d="m 21.153555,21.020252 c -0.365663,0 -0.69731,-0.09779 -0.994942,-0.293375 c -0.28912,-0.204095 -0.514464,-0.48471 -0.676032,-0.841865 C 19.320985,19.519355 19.240326,19.111179 19.240326,18.660485 V 0.7776923 c 0,-0.18707299 0.05952,-0.34014687 0.178562,-0.45919938 c 0.119041,-0.11904139 0.272015,-0.1785899 0.459199,-0.1785899 c 0.187185,0 0.340131,0.0595207 0.4592,0.1785899 c 0.119041,0.11904139 0.178562,0.27212639 0.178562,0.45919938 V 18.660485 c 0,0.314634 0.05952,0.573996 0.178562,0.778086 c 0.119041,0.204094 0.272015,0.306131 0.459199,0.306131 h 0.318881 c 0.16994,0 0.306142,0.05952 0.40819,0.17859 c 0.110697,0.119041 0.165768,0.272126 0.165768,0.459196 c 0,0.187073 -0.08066,0.340147 -0.242255,0.4592 c -0.161596,0.119041 -0.369919,0.178589 -0.625023,0.178589 z"
           style="fill:#ffffff;fill-opacity:1;stroke-width:0.735896"
           id="path896" />
      </g>
    </mask>
  </defs>
  <metadata
     id="metadata5">
    <rdf:RDF>
      <cc:Work
         rdf:about="">
        <dc:format>image/svg+xml</dc:format>
        <dc:type
           rdf:resource="http://purl.org/dc/dcmitype/StillImage" />
        <dc:title />
      </cc:Work>
    </rdf:RDF>
  </metadata>
  <g
     inkscape:groupmode="layer"
     id="layer3"
     inkscape:label="root"
     transform="translate(7.1856852,7.3144994)" />
  <g
     inkscape:groupmode="layer"
     id="layer4"
     inkscape:label="main"
     transform="translate(7.1856852,7.3144994)">
    <g
       id="g2853"
       mask="url(#mask2865)">
      <path
         style="opacity:1;fill:#1c2942;fill-opacity:1;stroke:none;stroke-width:0.498176px;stroke-linecap:butt;stroke-linejoin:miter;stroke-opacity:1"
         d="M -7.2057841,-7.402783 V 31.308058 H 42.820684 V -7.4027784 Z"
         id="path1184"
         sodipodi:nodetypes="ccccc" />
      <g
         id="g2842"
         class="full-name-shadow-bg">
        <path
           style="fill:#1c2942;fill-opacity:1;stroke:none;stroke-width:0.448124px;stroke-linecap:butt;stroke-linejoin:miter;stroke-opacity:1"
           d="m -7.0956224,-52.470911 l -0.3017074,39.709083 L 43.12064,-13.707178 L 43.1069,-52.47091 Z"
           id="path1081"
           sodipodi:nodetypes="ccccc" />
        <path
           style="fill:#121d34;fill-opacity:1;stroke:none;stroke-width:0.230431px;stroke-linecap:butt;stroke-linejoin:miter;stroke-opacity:1"
           d="m 1.8273923,-13.009885 l 0.1806588,0.888888 L 43.506434,-22.348706 l -0.313499,-4.482368 c 0,0 -7.02999,-1.576644 -10.572184,-2.088405 c -3.109887,-0.449303 -6.318873,-1.812703 -9.362808,-0.86018 c -8.082513,2.52922 -21.4305507,16.769774 -21.4305507,16.769774 z"
           id="path1083"
           sodipodi:nodetypes="ccccaac" />
        <path
           style="fill:#001229;fill-opacity:1;stroke:none;stroke-width:0.230431px;stroke-linecap:butt;stroke-linejoin:miter;stroke-opacity:1"
           d="m 1.3285317,-15.464409 c -2.747539,0.914813 -8.6959453,0.228052 -8.6959453,0.228052 l -0.1370795,7.911832 L 42.449724,-18.453371 l 0.09116,-6.165928 c 0,0 -7.889396,-4.036817 -9.464872,-2.060189 c 0,0 -10.018127,8.672902 -27.330547,8.075403 c -2.7491035,-0.09488 -2.6977154,2.567249 -4.4169333,3.139676 z"
           id="path1035"
           sodipodi:nodetypes="acccccsa" />
        <path
           style="fill:#121d34;fill-opacity:1;stroke:none;stroke-width:0.230431px;stroke-linecap:butt;stroke-linejoin:miter;stroke-opacity:1"
           d="m -7.4403988,-11.747335 l 0.076126,4.385138 L 42.954048,-8.748816 l -0.248676,-12.589068 c 0,0 -5.672483,0.556629 -8.494587,0.241796 c -1.084389,-0.120974 -2.188326,-1.323767 -3.20578,-0.814681 c -13.834169,6.921974 -17.108714,5.132803 -25.4142237,8.798844 c -4.4260597,2.968919 -7.8865758,2.471055 -13.0311801,1.36459 z"
           id="path1033"
           sodipodi:nodetypes="ccccascc" />
        <path
           style="fill:#1c2942;fill-opacity:1;stroke:none;stroke-width:0.523054px;stroke-linecap:butt;stroke-linejoin:miter;stroke-opacity:1"
           d="m -7.50253,-10.322209 l -0.1052632,3.529719 l 50.5407172,0.262717 l 0.247007,-8.311286 c 0,0 -5.76676,5.760121 -9.032737,5.241104 c -2.761131,-0.43879 -1.782232,-10.294817 -6.619114,-6.696404 C 15.643358,-9.5665 4.6586542,-9.322086 -7.50253,-10.322209 Z"
           id="path1029"
           sodipodi:nodetypes="ccccacc" />
        <path
           style="fill:#001229;fill-opacity:1;stroke:none;stroke-width:0.230431px;stroke-linecap:butt;stroke-linejoin:miter;stroke-opacity:1"
           d="m -6.8904711,-36.406062 l -0.086549,3.434743 L 43.592982,-43.814565 l -0.313498,-4.482368 c -7.413618,-0.608945 -22.251455,-4.172743 -27.303925,-1.117672 C 0.52896419,-39.153738 -6.8904711,-36.406062 -6.8904711,-36.406062 Z"
           id="path2801"
           sodipodi:nodetypes="cccccc" />
        <path
           style="fill:#121d34;fill-opacity:1;stroke:none;stroke-width:0.230431px;stroke-linecap:butt;stroke-linejoin:miter;stroke-opacity:1"
           d="m -6.9770197,-32.971319 l -0.086549,3.434742 c 0,0 6.08986571,16.121543 6.18383457,4.659041 c 0.0536627,-6.54583 18.17799913,-16.421945 30.34890913,-13.139105 c 11.554125,3.116477 14.037259,-2.219198 14.037259,-2.219198 l -0.313499,-4.626351 c 0,0 -7.00796,-1.633114 -10.572184,-2.088405 c -4.607311,-0.588534 -9.393438,-1.887809 -13.912233,-0.823259 c -9.6436377,2.271875 -25.6855377,14.802535 -25.6855377,14.802535 z"
           id="path2799"
           sodipodi:nodetypes="ccssccaac" />
      </g>
    </g>
    <g
       id="g2772"
       class="full-name-letter-combo-shadow">
      <g
         aria-label="l"
         id="g2669"
         style="fill:#1c2942;fill-opacity:1;stroke:#1c2942;stroke-width:0.264583;stroke-opacity:1"
         transform="matrix(5.536956,0,0,2.7813409,1723.1455,-179.45286)">
        <path
           d="m -306.89244,72.17677 c -0.13147,0 -0.25071,-0.03516 -0.35772,-0.10548 c -0.10395,-0.07338 -0.18497,-0.174272 -0.24306,-0.302683 c -0.0581,-0.131468 -0.0871,-0.278223 -0.0871,-0.440265 v -6.429558 c 0,-0.06726 -0.0381,-0.159963 0.005,-0.202767 c 0.0428,-0.0428 0.15553,-0.04346 0.2228,-0.04346 c 0.0673,0 0.12412,0.03832 0.16693,0.08113 c 0.0428,0.0428 0.0642,0.09784 0.0642,0.1651 v 6.429558 c 0,0.113123 0.0214,0.206374 0.0642,0.279752 c 0.0428,0.07338 0.0978,0.110066 0.1651,0.110066 h 0.11465 c 0.0611,0 0.11007,0.0214 0.14676,0.06421 c 0.0398,0.0428 0.0596,0.09784 0.0596,0.165099 c 0,0.06726 -0.029,0.122296 -0.0871,0.1651 c -0.0581,0.0428 -0.133,0.06421 -0.22472,0.06421 z"
           style="fill:#1c2942;fill-opacity:1;stroke:#1c2942;stroke-width:0.264583;stroke-opacity:1"
           id="path2667" />
      </g>
    </g>
    <g
       id="g1259"
       mask="url(#mask884)">
      <path
         style="fill:#c4c4c5;fill-opacity:1;stroke:none;stroke-width:0.264583px;stroke-linecap:butt;stroke-linejoin:miter;stroke-opacity:1"
         d="M 2.3136536,-56.090952 V 22.380047 H 38.266899 v -78.470998 z"
         id="path1239"
         sodipodi:nodetypes="ccccc" />
      <g
         id="g1249"
         class="first-name-bg">
        <path
           id="rect850"
           style="fill:#ffffff;fill-opacity:1;stroke-width:1.465;stroke-linecap:round;stroke-linejoin:round;stroke-dashoffset:16.9701;paint-order:markers fill stroke"
           d="M 42.64714,-45.561866 L 2.2197273,-23.135086 L 0.50992763,-0.65178038 C 28.81355,-16.050835 15.307642,-12.552091 49.083439,-33.732097 Z"
           sodipodi:nodetypes="ccccc" />
        <path
           id="rect902"
           style="fill:#e0e0e1;fill-opacity:1;stroke-width:1.465;stroke-linecap:round;stroke-linejoin:round;stroke-dashoffset:16.9701;paint-order:markers fill stroke"
           d="m 43.655345,-29.814027 c 0,0 4.254729,-6.632383 -8.558892,0.339192 c -10.924554,5.943782 -2.533938,11.366105 -25.788,12.356499 C 1.7365887,-16.795849 2.7495695,-6.5706116 -1.8157875,-4.0867536 L -3.4271809,12.085567 L 39.027967,-11.013388 Z"
           sodipodi:nodetypes="csscccc" />
        <path
           id="path931"
           style="fill:#c4c4c5;fill-opacity:1;stroke-width:2.07002;stroke-linecap:round;stroke-linejoin:round;stroke-dashoffset:16.9701;paint-order:markers fill stroke"
           d="m 39.027967,-11.013388 c 0,0 -8.572397,-3.697484 -11.523996,1.3121016 C 24.552371,-4.6917011 -3.7356696,11.509506 -3.7356696,11.509506 H 39.030662 Z"
           sodipodi:nodetypes="czccc" />
        <path
           id="path1100"
           style="fill:#c4c4c5;fill-opacity:1;stroke-width:1.465;stroke-linecap:round;stroke-linejoin:round;stroke-dashoffset:16.9701;paint-order:markers fill stroke"
           d="m 44.4064,-56.090952 l -42.0927464,1e-6 l -0.585705,28.601481 c 18.8605644,-7.527263 9.2778574,-6.009142 23.0529284,-13.503813 c 14.528453,-7.904566 5.139061,-4.28933 19.667564,-12.193803 z"
           sodipodi:nodetypes="cccscc" />
        <path
           id="path1039"
           style="fill:#e0e0e1;fill-opacity:1;stroke-width:1.465;stroke-linecap:round;stroke-linejoin:round;stroke-dashoffset:16.9701;paint-order:markers fill stroke"
           d="m 44.4064,-56.090952 c -4.662457,5.424001 -17.137774,4.291229 -14.48777,7.074869 c 2.697604,2.833639 -12.604145,19.043526 -20.5201654,15.457299 c -1.7215821,-0.779935 11.3814534,-20.341033 0.6842504,-14.22156 c -10.69720285,6.119473 -8.0096085,3.232755 -8.0096085,3.232755 l 0.3204389,24.459299 c 13.7750256,-7.494755 13.2675246,6.141245 24.4581086,-4.844819 c 5.185534,-5.090763 1.185055,-6.892296 15.713558,-14.796769 z"
           sodipodi:nodetypes="csszccscc" />
      </g>
    </g>
    <g
       id="g2738"
       class="last-name-bg"
       mask="url(#mask2754)">
      <path
         id="rect852"
         style="fill:#ffffff;fill-opacity:1;stroke-width:1.465;stroke-linecap:round;stroke-linejoin:round;stroke-dashoffset:16.9701;paint-order:markers fill stroke"
         d="M 29.857984,-36.545059 L 12.15984,-20.089216 L -5.537788,-3.6333738 L -4.932582,13.748683 L 21.330339,-10.22677 l 14.772812,-16.455842 v -17.502074 z"
         sodipodi:nodetypes="cccccccc" />
      <path
         id="path1155"
         style="fill:#e0e0e1;fill-opacity:1;stroke-width:1.465;stroke-linecap:round;stroke-linejoin:round;stroke-dashoffset:16.9701;paint-order:markers fill stroke"
         d="m 29.857984,-20.478179 c 0,0 -19.048629,14.4003432 -24.9479241,19.88562463 C -0.9892351,4.8927266 -5.537788,12.433506 -5.537788,12.433506 l 4.0734607,12.09923 L 21.330339,5.8401096 L 36.103152,-10.615732 l -1e-6,-16.06688 z"
         sodipodi:nodetypes="czcccccc" />
      <path
         id="path1153"
         style="fill:#c4c4c5;fill-opacity:1;stroke-width:1.465;stroke-linecap:round;stroke-linejoin:round;stroke-dashoffset:16.9701;paint-order:markers fill stroke"
         d="M 18.470447,5.1979179 C 10.295447,9.4398756 0.39475605,19.4607 -1.4398313,23.655021 l -0.024496,0.877715 H 36.103152 v -35.148468 c -8.296236,5.3891564 -4.619775,9.0613203 -17.632705,15.8136499 z"
         sodipodi:nodetypes="sccccs" />
      <path
         id="path1157"
         style="fill:#e0e0e1;fill-opacity:1;stroke-width:1.465;stroke-linecap:round;stroke-linejoin:round;stroke-dashoffset:16.9701;paint-order:markers fill stroke"
         d="M -4.5946128,-44.184686 L -4.881858,-2.2240436 c 0,0 29.28055,-17.9667024 35.310688,-23.3486884 c 6.030139,-5.381985 5.674321,-18.611954 5.674321,-18.611954 v 0 z"
         sodipodi:nodetypes="cczccc" />
      <path
         id="path1159"
         style="fill:#c4c4c5;fill-opacity:1;stroke-width:1.465;stroke-linecap:round;stroke-linejoin:round;stroke-dashoffset:16.9701;paint-order:markers fill stroke"
         d="m -0.70378219,-44.184686 c 0.636032,14.54502 3.68271439,27.414237 14.62398919,23.764948 c 10.85997,-3.854606 19.466099,-19.90813 22.182944,-23.764948 v 0 z"
         sodipodi:nodetypes="ccccc" />
    </g>
  </g>
</svg>
