<svg xmlns="http://www.w3.org/2000/svg" viewBox="0 0 49.913 38.486">
  <defs>
    <mask maskUnits="userSpaceOnUse" id="c">
      <g class="last-name-letters" fill="#fff" stroke-width=".736">
        <path d="M7.436 10.693q.268 0 .434.179.179.166.179.434t-.179.446q-.166.166-.434.166H4.694v8.074q0 .28-.191.472-.192.191-.472.191-.28 0-.472-.19-.192-.192-.192-.473v-8.074H.612q-.268 0-.446-.166Q0 11.573 0 11.306q0-.268.166-.434.178-.179.446-.179z"/>
        <path d="M8.979 13.627q.982 0 1.773.472.803.46 1.262 1.276.472.803.472 1.798v2.845q0 .28-.191.472-.179.178-.46.178-.28 0-.471-.178-.179-.192-.179-.472v-.472q-.446.548-1.084.854-.638.306-1.378.306-.918 0-1.67-.459-.74-.459-1.174-1.263-.421-.816-.421-1.81 0-.996.46-1.8.458-.816 1.262-1.275.816-.472 1.799-.472zm0 5.931q.637 0 1.148-.306.523-.319.816-.854.293-.549.293-1.225t-.293-1.224q-.293-.549-.816-.855-.51-.319-1.148-.319-.638 0-1.161.319-.51.306-.817.855-.293.548-.293 1.224 0 .676.293 1.225.307.535.817.854.523.306 1.16.306z"/>
        <path d="M18.252 13.742q.395.153.395.497 0 .128-.076.307l-3.903 8.775q-.153.396-.498.396-.128 0-.306-.077-.383-.166-.383-.497 0-.153.077-.306l1.275-2.87-2.87-5.447q-.063-.115-.063-.268 0-.166.102-.306.102-.14.268-.217.114-.05.255-.05.357 0 .535.356l2.335 4.643 2.053-4.63q.166-.37.498-.37.165 0 .306.064zM25.435 20.706q-1.02 0-1.824-.446-.803-.46-1.25-1.263-.446-.803-.446-1.824 0-1.033.446-1.837.447-.803 1.25-1.25.804-.459 1.824-.459 1.008 0 1.799.46.803.446 1.25 1.25.46.803.46 1.836 0 1.02-.447 1.824t-1.25 1.263q-.791.446-1.812.446zm0-1.148q.65 0 1.161-.306.523-.306.804-.842.293-.548.293-1.237 0-.689-.293-1.237-.28-.549-.804-.855-.51-.306-1.16-.306-.651 0-1.174.306-.51.306-.804.855-.293.548-.293 1.237 0 .689.293 1.237.294.536.804.842.523.306 1.173.306zM32.783 13.602q.676 0 1.059.204.383.204.383.51 0 .09-.014.127-.115.409-.51.409-.064 0-.192-.026-.51-.09-.829-.09-.918 0-1.48.422-.56.42-.56 1.135v3.725q0 .306-.167.472-.153.165-.472.165-.306 0-.471-.153-.166-.166-.166-.484v-5.702q0-.306.166-.472.165-.166.471-.166.638 0 .638.638v.242q.383-.446.944-.701.561-.255 1.2-.255z"/>
      </g>
    </mask>
    <mask maskUnits="userSpaceOnUse" id="a">
      <path d="M32.782 13.596c.45 0 .803.069 1.058.205.255.136.383.306.383.51 0 .06-.005.102-.014.127-.076.272-.247.409-.51.409a1.07 1.07 0 01-.191-.026c-.34-.06-.617-.09-.83-.09-.612 0-1.105.141-1.48.422-.373.28-.56.659-.56 1.135v3.724c0 .205-.056.362-.166.472-.102.11-.26.166-.472.166-.204 0-.362-.05-.472-.153-.11-.11-.166-.272-.166-.485v-5.701c0-.204.055-.362.166-.472.11-.11.268-.166.472-.166.425 0 .638.213.638.638v.242c.255-.298.57-.531.944-.701.374-.17.773-.256 1.199-.256zm-7.348 7.105c-.68 0-1.289-.149-1.824-.446a3.244 3.244 0 01-1.25-1.263c-.298-.536-.447-1.144-.447-1.824 0-.689.149-1.301.447-1.837a3.157 3.157 0 011.25-1.25c.535-.306 1.143-.459 1.824-.459.671 0 1.271.153 1.798.46.536.297.953.714 1.25 1.25.306.535.46 1.147.46 1.836 0 .68-.15 1.288-.447 1.824a3.244 3.244 0 01-1.25 1.263c-.527.297-1.131.446-1.811.446zm0-1.148c.433 0 .82-.102 1.16-.306a2.07 2.07 0 00.804-.842c.196-.365.293-.778.293-1.237 0-.46-.097-.872-.293-1.237a2.051 2.051 0 00-.804-.855 2.212 2.212 0 00-1.16-.306 2.28 2.28 0 00-1.174.306c-.34.204-.608.49-.803.855a2.582 2.582 0 00-.294 1.237c0 .46.098.872.294 1.237.195.357.463.638.803.842.349.204.74.306 1.174.306zm-7.184-5.816c.264.102.396.268.396.497a.804.804 0 01-.077.306l-3.903 8.776c-.102.264-.268.396-.498.396a.802.802 0 01-.306-.077c-.255-.11-.382-.276-.382-.497a.68.68 0 01.076-.307l1.276-2.87-2.87-5.446A.543.543 0 0112 13.94a.673.673 0 01.268-.217.622.622 0 01.255-.051c.238 0 .417.12.536.357l2.334 4.643 2.054-4.63c.11-.247.276-.37.497-.37.11 0 .213.021.306.064zm-9.273-.115c.655 0 1.246.157 1.773.472a3.31 3.31 0 011.263 1.276c.314.535.472 1.135.472 1.798v2.845a.641.641 0 01-.192.471.622.622 0 01-.459.18.666.666 0 01-.472-.18.666.666 0 01-.178-.471v-.472a3.125 3.125 0 01-2.462 1.16c-.613 0-1.17-.153-1.671-.459a3.296 3.296 0 01-1.174-1.263 3.893 3.893 0 01-.42-1.811c0-.663.152-1.263.459-1.798a3.31 3.31 0 011.262-1.276 3.53 3.53 0 011.799-.472zm0 5.931a2.188 2.188 0 001.964-1.16c.196-.366.294-.774.294-1.225 0-.45-.098-.859-.294-1.225a2.136 2.136 0 00-.816-.854 2.121 2.121 0 00-1.148-.319c-.425 0-.812.106-1.16.319-.341.204-.613.489-.817.854a2.555 2.555 0 00-.294 1.225c0 .45.098.859.294 1.225.204.357.476.642.816.854.349.204.736.306 1.16.306zm-1.542-8.865c.178 0 .323.06.433.179.12.11.179.255.179.434a.586.586 0 01-.612.612H4.692v8.074a.641.641 0 01-.191.472.641.641 0 01-.472.191.641.641 0 01-.472-.191.641.641 0 01-.191-.472v-8.074H.61a.63.63 0 01-.447-.166.631.631 0 01-.166-.446.587.587 0 01.613-.613zm13.717 10.327c-.366 0-.697-.098-.995-.293a2.025 2.025 0 01-.676-.842 2.997 2.997 0 01-.242-1.225V.773c0-.188.06-.34.178-.46a.621.621 0 01.46-.178c.187 0 .34.06.459.178a.622.622 0 01.178.46v17.882c0 .315.06.574.179.778.119.205.272.307.459.307h.319c.17 0 .306.06.408.178.11.12.166.272.166.46 0 .186-.08.34-.242.459-.162.119-.37.178-.626.178zM32.274 3.237a3.08 3.08 0 011.659.459c.501.306.892.731 1.173 1.275.29.536.434 1.136.434 1.799a3.63 3.63 0 01-.46 1.811c-.306.536-.73.961-1.275 1.276a3.535 3.535 0 01-1.786.459c-.655 0-1.25-.153-1.786-.46a3.56 3.56 0 01-1.262-1.275 3.63 3.63 0 01-.46-1.811V.953c0-.195.06-.352.179-.471a.666.666 0 01.472-.18c.196 0 .353.06.472.18.119.119.179.276.179.471v3.444a3.125 3.125 0 012.461-1.16zm-.255 5.931c.425 0 .808-.102 1.148-.306.349-.213.621-.502.817-.867a2.47 2.47 0 00.306-1.225c0-.45-.102-.855-.306-1.212a2.136 2.136 0 00-.817-.854 2.121 2.121 0 00-1.148-.32c-.425 0-.812.107-1.16.32-.34.204-.608.489-.804.854a2.481 2.481 0 00-.293 1.212c0 .45.097.859.293 1.225.196.365.463.654.804.867.348.204.735.306 1.16.306zm-4.041-2.5a.555.555 0 01-.166.408.596.596 0 01-.42.153h-4.848c.094.595.361 1.076.804 1.442.45.365.999.548 1.645.548.255 0 .519-.047.79-.14.281-.094.511-.209.69-.345a.661.661 0 01.42-.14c.162 0 .29.043.383.128.153.127.23.272.23.433 0 .153-.068.28-.204.383-.29.23-.65.417-1.084.561a3.8 3.8 0 01-1.225.217c-.697 0-1.322-.149-1.875-.446a3.377 3.377 0 01-1.301-1.263c-.306-.536-.46-1.144-.46-1.824 0-.68.145-1.289.434-1.824a3.183 3.183 0 011.225-1.263 3.49 3.49 0 011.786-.46c.655 0 1.22.145 1.696.434.476.29.842.693 1.097 1.212s.383 1.114.383 1.786zm-3.176-2.334c-.621 0-1.127.17-1.518.51-.383.34-.625.795-.727 1.365h4.247c-.076-.57-.289-1.025-.638-1.365-.348-.34-.803-.51-1.364-.51zm-9.813-1.097c.654 0 1.245.157 1.773.472a3.31 3.31 0 011.262 1.275c.315.536.472 1.135.472 1.799v2.844a.641.641 0 01-.19.472.622.622 0 01-.46.179.666.666 0 01-.472-.179.666.666 0 01-.179-.472v-.472a3.125 3.125 0 01-2.461 1.161c-.613 0-1.17-.153-1.671-.46a3.296 3.296 0 01-1.174-1.262 3.893 3.893 0 01-.42-1.811c0-.664.152-1.263.458-1.799A3.31 3.31 0 0113.19 3.71a3.53 3.53 0 011.799-.472zm0 5.931a2.188 2.188 0 001.964-1.16c.196-.366.293-.775.293-1.225 0-.45-.097-.86-.293-1.225a2.136 2.136 0 00-.816-.854 2.121 2.121 0 00-1.148-.32c-.426 0-.812.107-1.161.32-.34.204-.612.489-.816.854a2.555 2.555 0 00-.294 1.225c0 .45.098.859.294 1.224.204.357.476.642.816.855.349.204.735.306 1.16.306zm-6.744 1.225c-.91 0-1.743-.226-2.5-.676a4.877 4.877 0 01-1.773-1.85 5.25 5.25 0 01-.65-2.59c0-.935.216-1.79.65-2.563A4.877 4.877 0 015.745.864a4.728 4.728 0 012.5-.689c.647 0 1.204.085 1.671.256.476.17.957.45 1.442.841a.59.59 0 01.204.243c.034.076.05.17.05.28 0 .17-.063.31-.19.421a.598.598 0 01-.422.166.693.693 0 01-.446-.166c-.349-.297-.689-.51-1.02-.637-.332-.137-.762-.205-1.289-.205-.663 0-1.275.175-1.837.523a3.837 3.837 0 00-1.326 1.429 4.025 4.025 0 00-.485 1.952c0 .714.162 1.369.485 1.964a3.865 3.865 0 001.326 1.416 3.415 3.415 0 001.837.523c.817 0 1.599-.28 2.347-.842a.733.733 0 01.421-.153c.162 0 .293.06.396.178.11.111.165.26.165.447a.648.648 0 01-.204.472 4.848 4.848 0 01-3.125 1.11z" fill="#fff" stroke-width=".736"/>
    </mask>
    <mask maskUnits="userSpaceOnUse" id="b">
      <g class="first-name-letters" fill="#fff" stroke-width=".736">
        <path d="M8.247 10.398q-1.365 0-2.5-.676-1.123-.676-1.773-1.85-.65-1.173-.65-2.59 0-1.402.65-2.563.65-1.174 1.773-1.85 1.135-.688 2.5-.688.97 0 1.67.255.715.255 1.442.841.153.115.204.243.051.115.051.28 0 .256-.191.421-.179.166-.421.166t-.446-.166q-.523-.446-1.02-.637-.498-.204-1.29-.204-.994 0-1.836.523-.829.522-1.327 1.428-.484.893-.484 1.952 0 1.071.484 1.964.498.893 1.327 1.416.842.523 1.837.523 1.224 0 2.347-.842.217-.153.42-.153.243 0 .396.179.166.165.166.446 0 .268-.204.472-1.378 1.11-3.125 1.11z"/>
        <path d="M14.99 3.242q.983 0 1.773.472.804.459 1.263 1.275.472.804.472 1.799v2.844q0 .281-.191.472-.179.179-.46.179-.28 0-.471-.179-.179-.191-.179-.472V9.16q-.446.549-1.084.855-.638.306-1.378.306-.918 0-1.67-.459-.74-.46-1.174-1.263-.421-.816-.421-1.811t.459-1.799q.46-.816 1.263-1.275.816-.472 1.798-.472zm0 5.931q.638 0 1.148-.306.523-.319.817-.855.293-.548.293-1.224 0-.676-.293-1.225-.294-.548-.817-.854-.51-.32-1.148-.32-.637 0-1.16.32-.51.306-.817.854-.293.549-.293 1.225t.293 1.224q.306.536.817.855.523.306 1.16.306zM27.98 6.673q0 .242-.166.408-.166.153-.421.153h-4.847q.14.893.803 1.442.676.548 1.646.548.382 0 .79-.14.421-.14.69-.345.178-.14.42-.14.243 0 .383.128.23.191.23.433 0 .23-.204.383-.434.344-1.085.561-.637.217-1.224.217-1.046 0-1.875-.446-.83-.46-1.301-1.263-.46-.804-.46-1.824t.434-1.824q.447-.817 1.225-1.263.79-.46 1.785-.46.983 0 1.697.434.714.434 1.097 1.212t.383 1.786zM24.802 4.34q-.93 0-1.518.51-.574.51-.727 1.365h4.248q-.115-.855-.638-1.365t-1.365-.51zM32.276 3.242q.918 0 1.658.459.753.46 1.174 1.276.433.803.433 1.798t-.459 1.811q-.459.804-1.275 1.276-.804.46-1.786.46t-1.786-.46q-.79-.472-1.263-1.276-.459-.816-.459-1.81V.958q0-.294.179-.472.191-.179.472-.179.293 0 .472.179.178.178.178.472v3.444q.447-.549 1.084-.855.638-.306 1.378-.306zm-.255 5.931q.638 0 1.148-.306.523-.319.816-.867.306-.549.306-1.225t-.306-1.212q-.293-.548-.816-.854-.51-.32-1.148-.32-.638 0-1.16.32-.511.306-.804.854-.294.536-.294 1.212 0 .676.294 1.225.293.548.803.867.523.306 1.161.306zM21.154 21.02c-.366 0-.698-.098-.995-.293a2.025 2.025 0 01-.676-.842 2.997 2.997 0 01-.243-1.225V.778c0-.187.06-.34.179-.46a.621.621 0 01.46-.178c.186 0 .34.06.458.178a.622.622 0 01.179.46V18.66c0 .315.06.574.178.779.12.204.272.306.46.306h.318c.17 0 .307.06.409.178.11.12.165.272.165.46 0 .187-.08.34-.242.459-.161.119-.37.178-.625.178z"/>
      </g>
    </mask>
  </defs>
  <g mask="url(#a)" transform="translate(7.186 7.314)">
    <path d="M-7.206-7.403v38.711h50.027v-38.71z" fill="#1c2942"/>
    <g class="full-name-shadow-bg">
      <path d="M-7.096-52.47l-.301 39.708 50.518-.945-.014-38.764z" fill="#1c2942"/>
      <path d="M1.827-13.01l.181.889 41.498-10.228-.313-4.482s-7.03-1.577-10.572-2.088c-3.11-.45-6.32-1.813-9.363-.86-8.083 2.529-21.43 16.77-21.43 16.77z" fill="#121d34"/>
      <path d="M1.329-15.464c-2.748.914-8.696.228-8.696.228l-.137 7.911L42.45-18.453l.09-6.166s-7.889-4.037-9.464-2.06c0 0-10.018 8.672-27.33 8.075-2.75-.095-2.698 2.567-4.417 3.14z" fill="#001229"/>
      <path d="M-7.44-11.747l.076 4.385L42.954-8.75l-.249-12.589s-5.672.557-8.494.242c-1.085-.121-2.189-1.324-3.206-.815-13.834 6.922-17.109 5.133-25.414 8.8-4.426 2.968-7.887 2.47-13.031 1.364z" fill="#121d34"/>
      <path d="M-7.503-10.322l-.105 3.53 50.54.262.248-8.311s-5.767 5.76-9.033 5.241c-2.76-.439-1.782-10.295-6.619-6.696-11.885 6.73-22.87 6.974-35.03 5.974z" fill="#1c2942"/>
      <path d="M-6.89-36.406l-.087 3.435 50.57-10.844-.314-4.482c-7.413-.609-22.251-4.173-27.303-1.118C.529-39.154-6.89-36.406-6.89-36.406z" fill="#001229"/>
      <path d="M-6.977-32.971l-.087 3.434s6.09 16.122 6.184 4.66c.054-6.546 18.178-16.422 30.35-13.14 11.553 3.117 14.036-2.219 14.036-2.219l-.313-4.626s-7.008-1.633-10.572-2.089c-4.608-.588-9.394-1.887-13.912-.823C9.065-45.502-6.977-32.97-6.977-32.97z" fill="#121d34"/>
    </g>
  </g>
  <path d="M-306.892 72.177a.637.637 0 01-.358-.106.728.728 0 01-.243-.302 1.078 1.078 0 01-.087-.44v-6.43c0-.067-.038-.16.005-.203.042-.043.155-.043.222-.043.068 0 .125.038.167.08a.223.223 0 01.065.166v6.43a.55.55 0 00.064.28c.043.072.098.11.165.11h.115c.06 0 .11.02.146.063.04.043.06.098.06.165a.197.197 0 01-.087.166.37.37 0 01-.225.064z" transform="matrix(5.53696 0 0 2.78134 1730.331 -172.138)" aria-label="l" fill="#1c2942" stroke="#1c2942" stroke-width=".265"/>
  <g mask="url(#b)" transform="translate(7.186 7.314)">
    <path d="M2.314-56.091V22.38h35.953v-78.471z" fill="#c4c4c5"/>
    <g class="first-name-bg" paint-order="markers fill stroke">
      <path d="M42.647-45.562L2.22-23.135.51-.652c28.304-15.399 14.798-11.9 48.573-33.08z" fill="#fff"/>
      <path d="M43.655-29.814s4.255-6.632-8.559.34C24.172-23.532 32.563-18.11 9.308-17.119 1.737-16.796 2.75-6.571-1.816-4.087l-1.611 16.173 42.455-23.1z" fill="#e0e0e1"/>
      <path d="M39.028-11.013s-8.572-3.698-11.524 1.312-31.24 21.21-31.24 21.21h42.767zM44.406-56.091H2.314l-.586 28.602c18.86-7.528 9.278-6.01 23.053-13.504 14.528-7.905 5.139-4.29 19.667-12.194z" fill="#c4c4c5"/>
      <path d="M44.406-56.091C39.744-50.667 27.27-51.8 29.92-49.016c2.697 2.834-12.605 19.043-20.52 15.457-1.722-.78 11.38-20.34.684-14.221-10.697 6.12-8.01 3.232-8.01 3.232l.32 24.46c13.776-7.495 13.268 6.141 24.459-4.845 5.185-5.09 1.185-6.892 15.713-14.797z" fill="#e0e0e1"/>
    </g>
  </g>
  <g class="last-name-bg" mask="url(#c)" paint-order="markers fill stroke" transform="translate(7.186 7.314)">
    <path d="M29.858-36.545L12.16-20.09-5.538-3.633l.605 17.382L21.33-10.227l14.773-16.456v-17.502z" fill="#fff"/>
    <path d="M29.858-20.478S10.809-6.078 4.91-.593C-.99 4.893-5.538 12.434-5.538 12.434l4.074 12.099L21.33 5.84l14.773-16.456v-16.067z" fill="#e0e0e1"/>
    <path d="M18.47 5.198C10.295 9.44.395 19.46-1.44 23.655l-.024.878h37.567v-35.149c-8.296 5.39-4.62 9.062-17.633 15.814z" fill="#c4c4c5"/>
    <path d="M-4.595-44.185l-.287 41.961s29.28-17.967 35.31-23.349c6.031-5.382 5.675-18.612 5.675-18.612z" fill="#e0e0e1"/>
    <path d="M-.704-44.185C-.068-29.64 2.98-16.77 13.92-20.42c10.86-3.854 19.466-19.908 22.183-23.765z" fill="#c4c4c5"/>
  </g>
</svg>