<?xml version="1.0" encoding="UTF-8" standalone="no"?>
<svg
   xmlns:dc="http://purl.org/dc/elements/1.1/"
   xmlns:cc="http://creativecommons.org/ns#"
   xmlns:rdf="http://www.w3.org/1999/02/22-rdf-syntax-ns#"
   xmlns:svg="http://www.w3.org/2000/svg"
   xmlns="http://www.w3.org/2000/svg"
   width="35.541451mm"
   height="23.71673mm"
   viewBox="0 0 35.541451 23.71673"
   version="1.1"
   id="svg8">
  <defs
     id="defs2" />
  <metadata
     id="metadata5">
    <rdf:RDF>
      <cc:Work
         rdf:about="">
        <dc:format>image/svg+xml</dc:format>
        <dc:type
           rdf:resource="http://purl.org/dc/dcmitype/StillImage" />
        <dc:title></dc:title>
      </cc:Work>
    </rdf:RDF>
  </metadata>
  <g
     id="layer1">
    <g
       aria-label="l"
       id="g2669"
       style="fill:#1c2942;fill-opacity:1;stroke:#1c2942;stroke-width:0.264583;stroke-opacity:1"
       transform="matrix(5.536956,0,0,2.7813409,1723.1455,-179.45286)">
      <path
         d="M -306.89244,72.17677 C -307.02391,72.17677 -307.14315,72.14161 -307.25016,72.07129 C -307.35411,71.997913 -307.43513,71.897018 -307.49322,71.768607 C -307.55131,71.637139 -307.58036,71.490384 -307.58036,71.328342 V 64.898784 C -307.58036,64.831522 -307.61849,64.738821 -307.57568,64.696017 C -307.53288,64.653214 -307.42015,64.652559 -307.35288,64.652559 C -307.28562,64.652559 -307.22876,64.690881 -307.18595,64.733684 C -307.14315,64.776488 -307.12175,64.831522 -307.12175,64.898784 V 71.328342 C -307.12175,71.441465 -307.10035,71.534716 -307.05754,71.608094 C -307.01474,71.681471 -306.95971,71.71816 -306.89244,71.71816 H -306.77779 C -306.71664,71.71816 -306.66772,71.739562 -306.63103,71.782366 C -306.59128,71.825169 -306.57141,71.880202 -306.57141,71.947465 C -306.57141,72.014728 -306.60046,72.069761 -306.65855,72.112565 C -306.71664,72.155368 -306.79155,72.17677 -306.88327,72.17677 Z"
         style="fill:#1c2942;fill-opacity:1;stroke:#1c2942;stroke-width:0.264583;stroke-opacity:1"
         id="path2667" />
    </g>
    <g
       aria-label="Caleb"
       id="g2679"
       style="fill:#c4c4c5;fill-opacity:1;stroke-width:0.264583"
       transform="matrix(2.7813409,0,0,2.7813409,873.96754,-179.72795)">
      <path
         d="M -311.26016,68.357545 Q -311.75087,68.357545 -312.15903,68.114481 Q -312.56261,67.871418 -312.7965,67.449497 Q -313.03039,67.027576 -313.03039,66.518519 Q -313.03039,66.014048 -312.7965,65.596712 Q -312.56261,65.174791 -312.15903,64.931728 Q -311.75087,64.684078 -311.26016,64.684078 Q -310.91161,64.684078 -310.65938,64.7758 Q -310.40256,64.867522 -310.14115,65.078483 Q -310.08612,65.119758 -310.06777,65.165619 Q -310.04943,65.206894 -310.04943,65.266513 Q -310.04943,65.358235 -310.11822,65.417854 Q -310.18242,65.477474 -310.26956,65.477474 Q -310.3567,65.477474 -310.43007,65.417854 Q -310.6181,65.257341 -310.79696,65.188549 Q -310.97582,65.115172 -311.26016,65.115172 Q -311.61787,65.115172 -311.92056,65.303202 Q -312.21865,65.491232 -312.39751,65.816845 Q -312.57178,66.137872 -312.57178,66.518519 Q -312.57178,66.903751 -312.39751,67.224778 Q -312.21865,67.545805 -311.92056,67.733835 Q -311.61787,67.921865 -311.26016,67.921865 Q -310.81989,67.921865 -310.41632,67.619183 Q -310.33835,67.564149 -310.26497,67.564149 Q -310.17784,67.564149 -310.12281,67.628355 Q -310.06319,67.687974 -310.06319,67.788868 Q -310.06319,67.885176 -310.13656,67.958554 Q -310.63186,68.357545 -311.26016,68.357545 Z"
         style="fill:#c4c4c5;fill-opacity:1;stroke-width:0.264583"
         id="path2671" />
      <path
         d="M -308.83563,65.784742 Q -308.4825,65.784742 -308.19816,65.954428 Q -307.90924,66.119528 -307.74414,66.413038 Q -307.57446,66.701963 -307.57446,67.059678 V 68.082379 Q -307.57446,68.183273 -307.64325,68.252064 Q -307.70745,68.31627 -307.80835,68.31627 Q -307.90924,68.31627 -307.97803,68.252064 Q -308.04224,68.183273 -308.04224,68.082379 V 67.912693 Q -308.20275,68.109895 -308.43206,68.219962 Q -308.66136,68.330028 -308.92735,68.330028 Q -309.25755,68.330028 -309.52813,68.164928 Q -309.79413,67.999829 -309.95006,67.710905 Q -310.1014,67.417394 -310.1014,67.059678 Q -310.1014,66.701963 -309.9363,66.413038 Q -309.7712,66.119528 -309.48227,65.954428 Q -309.18876,65.784742 -308.83563,65.784742 Z M -308.83563,67.917279 Q -308.60633,67.917279 -308.42288,67.807213 Q -308.23485,67.69256 -308.12937,67.499944 Q -308.02389,67.302742 -308.02389,67.059678 Q -308.02389,66.816615 -308.12937,66.619413 Q -308.23485,66.42221 -308.42288,66.312144 Q -308.60633,66.197492 -308.83563,66.197492 Q -309.06494,66.197492 -309.25297,66.312144 Q -309.43641,66.42221 -309.54648,66.619413 Q -309.65196,66.816615 -309.65196,67.059678 Q -309.65196,67.302742 -309.54648,67.499944 Q -309.43641,67.69256 -309.25297,67.807213 Q -309.06494,67.917279 -308.83563,67.917279 Z"
         style="fill:#c4c4c5;fill-opacity:1;stroke-width:0.264583"
         id="path2673" />
      <path
         d="M -304.16555,67.018403 Q -304.16555,67.105539 -304.22517,67.165159 Q -304.28479,67.220192 -304.37651,67.220192 H -306.11923 Q -306.06878,67.541219 -305.83031,67.738421 Q -305.58724,67.935623 -305.2387,67.935623 Q -305.10112,67.935623 -304.95436,67.885176 Q -304.80302,67.834729 -304.70671,67.761352 Q -304.64251,67.710905 -304.55537,67.710905 Q -304.46823,67.710905 -304.41779,67.756766 Q -304.33524,67.825557 -304.33524,67.912693 Q -304.33524,67.995243 -304.40861,68.050276 Q -304.56454,68.174101 -304.79843,68.252064 Q -305.02774,68.330028 -305.2387,68.330028 Q -305.61476,68.330028 -305.91286,68.169515 Q -306.21095,68.004415 -306.38064,67.715491 Q -306.54574,67.426566 -306.54574,67.059678 Q -306.54574,66.69279 -306.38981,66.403866 Q -306.2293,66.110356 -305.94954,65.949842 Q -305.66521,65.784742 -305.30749,65.784742 Q -304.95436,65.784742 -304.69754,65.94067 Q -304.44072,66.096597 -304.30313,66.376349 Q -304.16555,66.656102 -304.16555,67.018403 Z M -305.30749,66.179147 Q -305.64228,66.179147 -305.85324,66.362591 Q -306.05961,66.546035 -306.11464,66.853304 H -304.58747 Q -304.62875,66.546035 -304.81678,66.362591 Q -305.00481,66.179147 -305.30749,66.179147 Z"
         style="fill:#c4c4c5;fill-opacity:1;stroke-width:0.264583"
         id="path2675" />
      <path
         d="M -302.62076,65.784742 Q -302.29056,65.784742 -302.02457,65.949842 Q -301.75399,66.114942 -301.60265,66.408452 Q -301.44672,66.697376 -301.44672,67.055092 Q -301.44672,67.412808 -301.61182,67.706318 Q -301.77692,67.995243 -302.07043,68.164928 Q -302.35935,68.330028 -302.71248,68.330028 Q -303.06561,68.330028 -303.35454,68.164928 Q -303.63888,67.995243 -303.80856,67.706318 Q -303.97366,67.412808 -303.97366,67.055092 V 64.963831 Q -303.97366,64.85835 -303.90946,64.794145 Q -303.84066,64.729939 -303.73977,64.729939 Q -303.63429,64.729939 -303.57008,64.794145 Q -303.50588,64.85835 -303.50588,64.963831 V 66.202078 Q -303.34537,66.004875 -303.11606,65.894809 Q -302.88676,65.784742 -302.62076,65.784742 Z M -302.71248,67.917279 Q -302.48318,67.917279 -302.29973,67.807213 Q -302.1117,67.69256 -302.00622,67.495358 Q -301.89616,67.298156 -301.89616,67.055092 Q -301.89616,66.812029 -302.00622,66.619413 Q -302.1117,66.42221 -302.29973,66.312144 Q -302.48318,66.197492 -302.71248,66.197492 Q -302.94179,66.197492 -303.12982,66.312144 Q -303.31326,66.42221 -303.41874,66.619413 Q -303.52422,66.812029 -303.52422,67.055092 Q -303.52422,67.298156 -303.41874,67.495358 Q -303.31326,67.69256 -303.12982,67.807213 Q -302.94179,67.917279 -302.71248,67.917279 Z"
         style="fill:#c4c4c5;fill-opacity:1;stroke-width:0.264583"
         id="path2677" />
    </g>
    <g
       aria-label="Tayor"
       id="g2691"
       style="fill:#c4c4c5;fill-opacity:1;stroke-width:0.264583"
       transform="matrix(2.7813409,0,0,2.7813409,873.96754,-179.72795)">
      <path
         d="M -311.55155,68.463849 Q -311.45525,68.463849 -311.39563,68.528054 Q -311.33142,68.587674 -311.33142,68.683982 Q -311.33142,68.78029 -311.39563,68.844495 Q -311.45525,68.904115 -311.55155,68.904115 H -312.53757 V 71.807116 Q -312.53757,71.90801 -312.60636,71.976802 Q -312.67515,72.045593 -312.77604,72.045593 Q -312.87694,72.045593 -312.94573,71.976802 Q -313.01452,71.90801 -313.01452,71.807116 V 68.904115 H -314.00512 Q -314.10143,68.904115 -314.16563,68.844495 Q -314.22525,68.78029 -314.22525,68.683982 Q -314.22525,68.587674 -314.16563,68.528054 Q -314.10143,68.463849 -314.00512,68.463849 Z"
         style="fill:#c4c4c5;fill-opacity:1;stroke-width:0.264583"
         id="path2681" />
      <path
         d="M -310.99712,69.518652 Q -310.64399,69.518652 -310.35965,69.688338 Q -310.07073,69.853437 -309.90563,70.146948 Q -309.73594,70.435872 -309.73594,70.793588 V 71.816288 Q -309.73594,71.917182 -309.80473,71.985974 Q -309.86894,72.050179 -309.96983,72.050179 Q -310.07073,72.050179 -310.13952,71.985974 Q -310.20372,71.917182 -310.20372,71.816288 V 71.646603 Q -310.36424,71.843805 -310.59354,71.953871 Q -310.82285,72.063938 -311.08884,72.063938 Q -311.41904,72.063938 -311.68962,71.898838 Q -311.95561,71.733738 -312.11154,71.444814 Q -312.26288,71.151304 -312.26288,70.793588 Q -312.26288,70.435872 -312.09778,70.146948 Q -311.93268,69.853437 -311.64376,69.688338 Q -311.35025,69.518652 -310.99712,69.518652 Z M -310.99712,71.651189 Q -310.76781,71.651189 -310.58437,71.541122 Q -310.39634,71.42647 -310.29086,71.233854 Q -310.18538,71.036651 -310.18538,70.793588 Q -310.18538,70.550525 -310.29086,70.353322 Q -310.39634,70.15612 -310.58437,70.046054 Q -310.76781,69.931401 -310.99712,69.931401 Q -311.22642,69.931401 -311.41445,70.046054 Q -311.5979,70.15612 -311.70796,70.353322 Q -311.81344,70.550525 -311.81344,70.793588 Q -311.81344,71.036651 -311.70796,71.233854 Q -311.5979,71.42647 -311.41445,71.541122 Q -311.22642,71.651189 -310.99712,71.651189 Z"
         style="fill:#c4c4c5;fill-opacity:1;stroke-width:0.264583"
         id="path2683" />
      <path
         d="M -307.66303,69.559927 Q -307.52086,69.61496 -307.52086,69.738785 Q -307.52086,69.784646 -307.54838,69.848851 L -308.95173,73.004088 Q -309.00676,73.146257 -309.13059,73.146257 Q -309.17645,73.146257 -309.24065,73.118741 Q -309.37824,73.059121 -309.37824,72.939883 Q -309.37824,72.88485 -309.35072,72.829816 L -308.89211,71.797944 L -309.92398,69.839679 Q -309.94691,69.798404 -309.94691,69.743371 Q -309.94691,69.683752 -309.91022,69.633305 Q -309.87353,69.582858 -309.81391,69.555341 Q -309.77264,69.536997 -309.72219,69.536997 Q -309.59378,69.536997 -309.52958,69.665407 L -308.69032,71.334748 L -307.95196,69.669993 Q -307.89234,69.536997 -307.7731,69.536997 Q -307.71348,69.536997 -307.66303,69.559927 Z"
         style="fill:#c4c4c5;fill-opacity:1;stroke-width:0.264583"
         id="path2685" />
      <path
         d="M -305.08025,72.063938 Q -305.44714,72.063938 -305.73606,71.903424 Q -306.02499,71.738325 -306.1855,71.4494 Q -306.34602,71.160476 -306.34602,70.793588 Q -306.34602,70.422114 -306.1855,70.13319 Q -306.02499,69.844265 -305.73606,69.683752 Q -305.44714,69.518652 -305.08025,69.518652 Q -304.71795,69.518652 -304.43361,69.683752 Q -304.14469,69.844265 -303.98417,70.13319 Q -303.81907,70.422114 -303.81907,70.793588 Q -303.81907,71.160476 -303.97959,71.4494 Q -304.1401,71.738325 -304.42903,71.903424 Q -304.71336,72.063938 -305.08025,72.063938 Z M -305.08025,71.651189 Q -304.84636,71.651189 -304.66292,71.541122 Q -304.47489,71.431056 -304.37399,71.23844 Q -304.26851,71.041237 -304.26851,70.793588 Q -304.26851,70.545939 -304.37399,70.348736 Q -304.47489,70.151534 -304.66292,70.041468 Q -304.84636,69.931401 -305.08025,69.931401 Q -305.31414,69.931401 -305.50217,70.041468 Q -305.68562,70.151534 -305.7911,70.348736 Q -305.89658,70.545939 -305.89658,70.793588 Q -305.89658,71.041237 -305.7911,71.23844 Q -305.68562,71.431056 -305.50217,71.541122 Q -305.31414,71.651189 -305.08025,71.651189 Z"
         style="fill:#c4c4c5;fill-opacity:1;stroke-width:0.264583"
         id="path2687" />
      <path
         d="M -302.43838,69.50948 Q -302.19532,69.50948 -302.05774,69.582858 Q -301.92015,69.656235 -301.92015,69.766302 Q -301.92015,69.798404 -301.92474,69.812163 Q -301.96601,69.958918 -302.10818,69.958918 Q -302.13111,69.958918 -302.17697,69.949746 Q -302.36042,69.917643 -302.47507,69.917643 Q -302.80527,69.917643 -303.00706,70.068984 Q -303.20885,70.220325 -303.20885,70.477147 V 71.816288 Q -303.20885,71.926355 -303.26847,71.985974 Q -303.3235,72.045593 -303.43815,72.045593 Q -303.54822,72.045593 -303.60784,71.99056 Q -303.66746,71.930941 -303.66746,71.816288 V 69.766302 Q -303.66746,69.656235 -303.60784,69.596616 Q -303.54822,69.536997 -303.43815,69.536997 Q -303.20885,69.536997 -303.20885,69.766302 V 69.853437 Q -303.07126,69.692924 -302.86948,69.601202 Q -302.66769,69.50948 -302.43838,69.50948 Z"
         style="fill:#c4c4c5;fill-opacity:1;stroke-width:0.264583"
         id="path2689" />
    </g>
    <g
       aria-label="l"
       id="g2695"
       style="fill:#c4c4c5;fill-opacity:1;stroke-width:0.264583"
       transform="matrix(2.7813409,0,0,2.7813409,874.72605,-179.72795)">
      <path
         d="M -306.89244,72.17677 C -307.02391,72.17677 -307.14315,72.14161 -307.25016,72.07129 C -307.35411,71.997913 -307.43513,71.897018 -307.49322,71.768607 C -307.55131,71.637139 -307.58036,71.490384 -307.58036,71.328342 V 64.898784 C -307.58036,64.831522 -307.55896,64.776488 -307.51615,64.733684 C -307.47335,64.690881 -307.41832,64.669479 -307.35105,64.669479 C -307.28379,64.669479 -307.22876,64.690881 -307.18595,64.733684 C -307.14315,64.776488 -307.12175,64.831522 -307.12175,64.898784 V 71.328342 C -307.12175,71.441465 -307.10035,71.534716 -307.05754,71.608094 C -307.01474,71.681471 -306.95971,71.71816 -306.89244,71.71816 H -306.77779 C -306.71664,71.71816 -306.66772,71.739562 -306.63103,71.782366 C -306.59128,71.825169 -306.57141,71.880202 -306.57141,71.947465 C -306.57141,72.014728 -306.60046,72.069761 -306.65855,72.112565 C -306.71664,72.155368 -306.79155,72.17677 -306.88327,72.17677 Z"
         style="fill:#c4c4c5;fill-opacity:1;stroke-width:0.264583"
         id="path2693" />
    </g>
    <g
       aria-label="Caleb"
       id="g2699"
       style="fill:#e0e0e1;fill-opacity:1;stroke-width:0.264583"
       transform="matrix(2.7813409,0,0,2.7813409,873.94581,-179.73836)">
      <path
         d="M -312.7965,67.449497 C -312.95243,67.168216 -313.03039,66.85789 -313.03039,66.518519 C -313.03039,66.182205 -312.95243,65.874936 -312.7965,65.596712 C -312.64057,65.315431 -312.42808,65.09377 -312.15903,64.931728 C -311.88692,64.766628 -311.5873,64.684078 -311.26016,64.684078 C -311.02779,64.684078 -310.82753,64.714652 -310.65938,64.7758 C -310.48817,64.836948 -310.31542,64.937842 -310.14115,65.078483 C -310.10446,65.106 -310.08,65.135045 -310.06777,65.165619 C -310.05554,65.193136 -310.04943,65.226767 -310.04943,65.266513 C -310.04943,65.327661 -310.07236,65.378108 -310.11822,65.417854 C -310.16102,65.457601 -310.21147,65.477474 -310.26956,65.477474 C -310.32765,65.477474 -310.38116,65.457601 -310.43007,65.417854 C -310.55542,65.310845 -310.67772,65.23441 -310.79696,65.188549 C -310.9162,65.139631 -311.0706,65.115172 -311.26016,65.115172 C -311.49863,65.115172 -311.71877,65.177849 -311.92056,65.303202 C -312.11929,65.428555 -312.27827,65.59977 -312.39751,65.816845 C -312.51369,66.030863 -312.57178,66.264754 -312.57178,66.518519 C -312.57178,66.77534 -312.51369,67.01076 -312.39751,67.224778 Z"
         style="fill:#e0e0e1;fill-opacity:1;stroke-width:0.264583"
         id="path2697" />
    </g>
    <g
       aria-label="Tayor"
       id="g2703"
       style="fill:#e0e0e1;fill-opacity:1;stroke-width:0.264583"
       transform="matrix(2.7813409,0,0,2.7813409,869.89852,-178.50342)">
      <path
         d="M -310.08858,68.023583 C -310.02438,68.023583 -309.97241,68.044985 -309.93266,68.087788 C -309.88985,68.127535 -309.86845,68.179511 -309.86845,68.243716 C -309.86845,68.307921 -309.88985,68.361426 -309.93266,68.404229 C -309.97241,68.443976 -310.02438,68.463849 -310.08858,68.463849 H -311.0746 V 69.858163 L -311.55155,70.308939 V 68.463849 H -312.54215 C -312.60636,68.463849 -312.65986,68.443976 -312.70266,68.404229 C -312.74241,68.361426 -312.76228,68.307921 -312.76228,68.243716 C -312.76228,68.179511 -312.74241,68.127535 -312.70266,68.087788 C -312.65986,68.044985 -312.60636,68.023583 -312.54215,68.023583 Z"
         style="fill:#e0e0e1;fill-opacity:1;stroke-width:0.264583"
         id="path2701" />
    </g>
  </g>
</svg>
