<svg xmlns="http://www.w3.org/2000/svg" width="33.893" height="33.893" viewBox="0 0 8.967 8.967">
  <circle r="4.484" cy="4.484" cx="4.484" fill="#25385b" fill-rule="evenodd"/>
  <g fill="#fff">
    <path d="M4.501.773q1.153 0 2.15.703.077.15.077.233v.041q0 .33-.408.372H6.3l-.683-.351q-.682-.217-1.116-.217-1.39 0-2.403 1.27-.506.854-.506 1.66 0 1.628 1.524 2.578.677.352 1.35.352h.056q.858 0 1.736-.548h.12q.35.078.35.351v.057q0 .414-1.307.801-.408.12-.858.12h-.098q-1.834 0-3.07-1.701-.583-.982-.583-2.01 0-1.928 1.757-3.142Q3.509.773 4.5.773z" aria-label="C"/>
    <path d="M2.883 2.791a2.303 2.303 0 00-.635 2.263c.028.1.062.198.103.293l3.01-3.011a2.303 2.303 0 00-2.478.455zm-.201 3.11a2.303 2.303 0 002.87.59s.332-.18.13-.382L4.225 4.654c-.149-.15-.303.008-.303.008zm1.987-1.69l1.455 1.455c.215.215.356-.083.356-.083.292-.52.373-1.137.218-1.722a2.303 2.303 0 00-.781-1.194l-1.21 1.21s-.187.185-.038.334z" fill-rule="evenodd"/>
  </g>
</svg>