<?xml version="1.0" encoding="UTF-8" standalone="no"?>
<svg
   xmlns:dc="http://purl.org/dc/elements/1.1/"
   xmlns:cc="http://creativecommons.org/ns#"
   xmlns:rdf="http://www.w3.org/1999/02/22-rdf-syntax-ns#"
   xmlns:svg="http://www.w3.org/2000/svg"
   xmlns="http://www.w3.org/2000/svg"
   xmlns:sodipodi="http://sodipodi.sourceforge.net/DTD/sodipodi-0.dtd"
   xmlns:inkscape="http://www.inkscape.org/namespaces/inkscape"
   viewBox="0 0 9.413 7.684"
   version="1.1"
   id="svg87"
   sodipodi:docname="a11y-animation-proto.svg"
   inkscape:version="1.0.2 (394de47547, 2021-03-26)">
  <metadata
     id="metadata93">
    <rdf:RDF>
      <cc:Work
         rdf:about="">
        <dc:format>image/svg+xml</dc:format>
        <dc:type
           rdf:resource="http://purl.org/dc/dcmitype/StillImage" />
        <dc:title />
      </cc:Work>
    </rdf:RDF>
  </metadata>
  <defs
     id="defs91">
    <clipPath
       clipPathUnits="userSpaceOnUse"
       id="clipPath887">
      <rect
         style="fill:#ffffff;stroke:none;stroke-width:0.0731799;stroke-linecap:round;stroke-dashoffset:16.9701"
         id="rect889"
         width="5.3433719"
         height="7.1913681"
         x="1.7195772"
         y="0.25681958" />
    </clipPath>
  </defs>
  <sodipodi:namedview
     pagecolor="#ffffff"
     bordercolor="#666666"
     borderopacity="1"
     objecttolerance="10"
     gridtolerance="10"
     guidetolerance="10"
     inkscape:pageopacity="0"
     inkscape:pageshadow="2"
     inkscape:window-width="1920"
     inkscape:window-height="1016"
     id="namedview89"
     showgrid="false"
     inkscape:zoom="64"
     inkscape:cx="6.4735923"
     inkscape:cy="2.9373464"
     inkscape:window-x="0"
     inkscape:window-y="27"
     inkscape:window-maximized="1"
     inkscape:current-layer="g958"
     inkscape:document-rotation="0"
     inkscape:snap-bbox="false"
     inkscape:object-paths="false"
     inkscape:snap-intersection-paths="true"
     inkscape:snap-smooth-nodes="true"
     showguides="true"
     inkscape:guide-bbox="true"
     inkscape:object-nodes="false" />
  <g
     id="g950"
     class="card">
    <path
       d="m 3.672,2.293 h 4.253 c 0.13,0 0.234,0.104 0.234,0.234 v 2.622 c 0,0.13 -0.104,0.233 -0.234,0.233 H 3.672 A 0.233,0.233 0 0 1 3.438,5.149 V 2.527 c 0,-0.13 0.104,-0.234 0.234,-0.234 z"
       fill="#ffffff"
       paint-order="markers fill stroke"
       id="path2" />
    <g
       id="g930"
       class="card-art">
      <path
         d="m 8.001,2.748 a 0.292,0.292 0 1 1 -0.584,0 a 0.292,0.292 0 0 1 0.584,0 z"
         fill="#5858ff"
         paint-order="markers fill stroke"
         id="path26"
         class="moon" />
      <path
         id="path920"
         style="fill:#ffffff;fill-opacity:1;stroke:none;stroke-width:0;stroke-linecap:round;stroke-miterlimit:4;stroke-dasharray:none;stroke-dashoffset:16.9701"
         d="m 7.3384513,3.2015026 c 0,0.1620489 -0.1313659,0.2934155 -0.2934156,0.2934155 c -0.095772,0 -0.1808281,-0.045886 -0.2343816,-0.116872 C 6.8653026,2.9746183 7.190526,2.9740192 7.2068244,2.9566843 c 0.079319,0.052523 0.1316265,0.1425622 0.1316269,0.2448183 z"
         sodipodi:nodetypes="ssccs"
         class="moon-shadow" />
      <path
         d="m 7.1992351,2.637523 c 0,0 -0.240866,0.1244069 -0.3410179,0.4981784 C 6.7580657,3.5094735 6.8434748,3.5375212 6.94944,3.5659147 c 0.107893,0.02891 0.1958831,0.047325 0.296035,-0.3264476 C 7.3456277,2.8656951 7.2001983,2.6377812 7.2001983,2.6377812 Z"
         fill="#ff2d79"
         id="path947"
         style="fill:#fe2dff;fill-opacity:1;stroke-width:0.997313;paint-order:markers fill stroke"
         class="flower-petal-3" />
      <path
         d="m 6.9543595,2.4361212 c 0,0 -0.2354971,0.2144082 -0.2354979,0.6689991 c 8e-7,0.4545917 0.1054471,0.4604498 0.2343262,0.4604497 c 0.1312224,-2e-7 0.2366687,-0.00586 0.2366687,-0.4604495 C 7.1898565,2.6505287 6.955531,2.436121 6.955531,2.436121 Z"
         fill="#ff2d79"
         id="path945"
         style="fill:#ff2db5;fill-opacity:1;stroke-width:1.17163;paint-order:markers fill stroke"
         class="flower-petal-2" />
      <path
         d="M 6.958,5.376 V 3.4038258"
         fill="none"
         stroke="#008000"
         stroke-width="0.059"
         id="path6"
         sodipodi:nodetypes="cc"
         class="flower-stem" />
      <g
         id="g1002"
         class="flower-leaf-1">
        <path
           d="m 6.2437709,3.777661 c 0,0 0.2595082,0.099702 0.4518412,0.099702 c 0.1923331,0 0.1695373,-0.067202 0.244659,-0.1004092 z"
           fill="#8fff8f"
           id="path8"
           sodipodi:nodetypes="cscc"
           style="paint-order:markers fill stroke" />
        <path
           d="m 6.2437709,3.777661 c 0,0 0.2595082,-0.099702 0.4518412,-0.099702 c 0.1923331,0 0.244659,0.045255 0.244659,0.098995 z"
           fill="#008000"
           id="path10"
           style="paint-order:markers fill stroke" />
      </g>
      <g
         id="g996"
         class="flower-leaf-0">
        <path
           d="m 7.733516,4.311477 c 0,0 -0.2842569,0.1088945 -0.4949747,0.1088945 c -0.2107178,0 -0.1921129,-0.063321 -0.2687006,-0.1088945 z"
           fill="#8fff8f"
           id="path14"
           sodipodi:nodetypes="cscc"
           style="stroke-width:0.912;paint-order:markers fill stroke" />
        <path
           d="m 7.733516,4.311477 c 0,0 -0.2835498,-0.1096015 -0.4942676,-0.1096015 c -0.212132,0 -0.2694077,0.04879 -0.2694077,0.1096015 z"
           fill="#008000"
           id="path16"
           style="stroke-width:0.912;paint-order:markers fill stroke" />
      </g>
      <g
         paint-order="markers fill stroke"
         id="g24">
        <path
           d="m 6.969,2.6 c 0,0 -0.201,0.183 -0.201,0.571 c 0,0.388 0.09,0.393 0.2,0.393 C 7.08,3.564 7.17,3.559 7.17,3.171 C 7.17,2.783 6.97,2.6 6.97,2.6 Z"
           fill="#ff2d79"
           id="path20"
           class="flower-petal-1" />
        <path
           d="m 6.8,2.957 c 0,0 -0.032,-0.174 -0.032,0.214 c 0,0.388 0.09,0.393 0.2,0.393 C 7.203,3.544 6.828,3.152 6.8,2.957 Z"
           fill="#d42100"
           id="path22"
           class="flower-petal-0" />
      </g>
    </g>
    <text
       xml:space="preserve"
       style="font-size:1.87254px;line-height:1.25;font-family:sans-serif;letter-spacing:0px;word-spacing:0px;stroke-width:0.108032"
       x="3.9804175"
       y="4.5209889"
       id="text876"
       class="card-text"><tspan
         sodipodi:role="line"
         id="tspan874"
         x="3.9804175"
         y="4.5209889"
         style="font-style:normal;font-variant:normal;font-weight:normal;font-stretch:normal;font-size:1.87254px;font-family:Ubuntu;-inkscape-font-specification:'Ubuntu, Normal';font-variant-ligatures:normal;font-variant-caps:normal;font-variant-numeric:normal;font-variant-east-asian:normal;stroke-width:0.108032">Hi</tspan></text>
  </g>
  <rect
     style="fill:#ffffff;fill-opacity:1;stroke:#000000;stroke-width:0.057;stroke-linecap:round;stroke-linejoin:round;stroke-miterlimit:4;stroke-dasharray:none;stroke-dashoffset:16.9701;stroke-opacity:1"
     id="rect1176"
     width="15.670042"
     height="10.340999"
     x="-4.8030243"
     y="-2.210536" />
  <g
     id="g958"
     class="contrast">
    <path
       d="M 1.518,2.02 A 0.212,0.212 0 0 0 1.305,2.233 V 5.45 a 0.212,0.212 0 0 0 0.213,0.213 h 3.51 A 0.212,0.212 0 0 0 5.24,5.45 V 4.48 L 6.253,3.895 L 5.24,3.31 V 2.233 A 0.212,0.212 0 0 0 5.028,2.02 Z"
       fill="#ffffff"
       stroke="#000000"
       stroke-width="0.104"
       stroke-linecap="round"
       stroke-linejoin="round"
       stroke-dashoffset="16.97"
       paint-order="markers fill stroke"
       id="path30" />
    <g
       id="g990"
       class="color-container">
      <circle
         style="fill:none;stroke:#000000;stroke-width:0.0472376;stroke-linecap:round;stroke-miterlimit:4;stroke-dasharray:none;stroke-dashoffset:16.9701"
         id="path966"
         cx="4.5514998"
         cy="2.6875"
         r="0.40388119" />
      <circle
         style="fill:#ff0000;stroke:none;stroke-width:0.0327132;stroke-linecap:round;stroke-miterlimit:4;stroke-dasharray:none;stroke-dashoffset:16.9701"
         id="circle968"
         cx="4.5514998"
         cy="2.6875"
         r="0.27969763"
         class="color" />
    </g>
    <g
       class="contrast-small-fail"
       id="g36">
      <path
         fill="#ffffff"
         d="m 4.548,3.449 a 0.355,0.355 0 1 0 0.003,0 z"
         id="path32" />
      <path
         d="M 4.547,3.377 A 0.427,0.427 0 0 0 4.124,3.804 A 0.427,0.427 0 0 0 4.551,4.231 A 0.427,0.427 0 0 0 4.979,3.804 A 0.427,0.427 0 0 0 4.551,3.377 a 0.427,0.427 0 0 0 -0.004,0 z M 4.38,3.58 L 4.551,3.752 L 4.722,3.58 L 4.775,3.633 L 4.604,3.804 L 4.775,3.975 L 4.722,4.028 L 4.552,3.857 L 4.38,4.027 L 4.328,3.975 l 0.17,-0.17 L 4.328,3.633 Z"
         fill="#ba115b"
         id="path34" />
    </g>
    <g
       class="contrast-small-success"
       id="g42">
      <path
         d="m 4.548,3.432 a 0.372,0.372 0 1 0 0.003,0 z"
         fill="#ffffff"
         id="path38" />
      <path
         fill="#19ad19"
         d="M 4.547,3.377 A 0.427,0.427 0 0 0 4.124,3.804 A 0.427,0.427 0 0 0 4.551,4.231 A 0.427,0.427 0 0 0 4.979,3.804 A 0.427,0.427 0 0 0 4.551,3.377 a 0.427,0.427 0 0 0 -0.004,0 z M 4.772,3.596 L 4.825,3.648 L 4.513,3.96 L 4.461,4.012 L 4.408,3.96 L 4.278,3.83 L 4.33,3.777 l 0.13,0.13 z"
         id="path40" />
    </g>
    <g
       class="contrast-large-fail"
       id="g48">
      <path
         fill="#ffffff"
         d="m 4.548,4.527 a 0.355,0.355 0 1 0 0.003,0 z"
         id="path44" />
      <path
         d="M 4.547,4.455 A 0.427,0.427 0 0 0 4.124,4.882 A 0.427,0.427 0 0 0 4.551,5.31 A 0.427,0.427 0 0 0 4.979,4.882 A 0.427,0.427 0 0 0 4.551,4.455 a 0.427,0.427 0 0 0 -0.004,0 z M 4.38,4.659 l 0.171,0.17 L 4.722,4.659 L 4.775,4.711 L 4.604,4.882 L 4.775,5.054 L 4.722,5.106 L 4.552,4.935 L 4.38,5.106 L 4.328,5.054 l 0.17,-0.172 l -0.17,-0.17 z"
         fill="#ba115b"
         id="path46" />
    </g>
    <g
       class="contrast-large-success"
       id="g54">
      <path
         d="m 4.548,4.51 a 0.372,0.372 0 1 0 0.003,0 z"
         fill="#ffffff"
         id="path50" />
      <path
         fill="#19ad19"
         d="M 4.547,4.455 A 0.427,0.427 0 0 0 4.124,4.882 A 0.427,0.427 0 0 0 4.551,5.31 A 0.427,0.427 0 0 0 4.979,4.882 A 0.427,0.427 0 0 0 4.551,4.455 a 0.427,0.427 0 0 0 -0.004,0 z M 4.772,4.674 L 4.825,4.726 L 4.513,5.038 L 4.461,5.091 L 4.408,5.038 L 4.278,4.908 L 4.33,4.855 l 0.13,0.13 z"
         id="path52" />
    </g>
    <text
       style="line-height:1.25"
       x="1.772105"
       y="4.1610413"
       font-size="1.029px"
       font-family="sans-serif"
       letter-spacing="0"
       word-spacing="0"
       stroke-width="0.223"
       id="text58"><tspan
         x="1.772105"
         y="4.1610413"
         style="-inkscape-font-specification:'Ubuntu, Normal';font-variant-ligatures:normal;font-variant-caps:normal;font-variant-numeric:normal;font-variant-east-asian:normal"
         font-weight="400"
         font-family="Ubuntu"
         stroke-width="0.05"
         id="tspan56">AA</tspan></text>
    <text
       style="line-height:1.25"
       x="1.772105"
       y="5.277"
       font-size="1.029px"
       font-family="sans-serif"
       letter-spacing="0"
       word-spacing="0"
       stroke-width="0.223"
       id="text62"><tspan
         x="1.772105"
         y="5.277"
         style="-inkscape-font-specification:'Ubuntu, Normal';font-variant-ligatures:normal;font-variant-caps:normal;font-variant-numeric:normal;font-variant-east-asian:normal"
         font-weight="400"
         font-family="Ubuntu"
         stroke-width="0.05"
         id="tspan60">AAA</tspan></text>
    <text
       xml:space="preserve"
       style="font-size:0.979539px;line-height:1.25;font-family:sans-serif;letter-spacing:0px;word-spacing:0px;stroke-width:0.0565121"
       x="1.7264624"
       y="3.0303888"
       id="text937"><tspan
         sodipodi:role="line"
         id="tspan935"
         x="1.7264624"
         y="3.0303888"
         style="font-style:normal;font-variant:normal;font-weight:normal;font-stretch:normal;font-size:0.979539px;font-family:Ubuntu;-inkscape-font-specification:'Ubuntu, Normal';font-variant-ligatures:normal;font-variant-caps:normal;font-variant-numeric:normal;font-variant-east-asian:normal;stroke-width:0.0565121">3.3</tspan></text>
    <g
       id="g902"
       class="rgb">
      <text
         style="line-height:1.25;fill:#0c8e00;fill-opacity:1"
         x="-0.76742935"
         y="4.1610413"
         font-size="1.029px"
         font-family="sans-serif"
         letter-spacing="0"
         word-spacing="0"
         stroke-width="0.223"
         id="text886"><tspan
           x="-0.76742935"
           y="4.1610413"
           style="-inkscape-font-specification:'Ubuntu, Normal';font-variant-ligatures:normal;font-variant-caps:normal;font-variant-numeric:normal;font-variant-east-asian:normal;fill:#0c8e00;fill-opacity:1"
           font-weight="400"
           font-family="Ubuntu"
           stroke-width="0.05"
           id="tspan884"><tspan
   style="font-style:normal;font-variant:normal;font-weight:500;font-stretch:normal;font-family:Ubuntu;-inkscape-font-specification:'Ubuntu Medium'"
   id="tspan906">G</tspan>reen</tspan></text>
      <text
         style="line-height:1.25;fill:#0808d7;fill-opacity:1"
         x="-0.79624134"
         y="5.277"
         font-size="1.029px"
         font-family="sans-serif"
         letter-spacing="0"
         word-spacing="0"
         stroke-width="0.223"
         id="text890"><tspan
           x="-0.79624134"
           y="5.277"
           style="-inkscape-font-specification:'Ubuntu, Normal';font-variant-ligatures:normal;font-variant-caps:normal;font-variant-numeric:normal;font-variant-east-asian:normal;fill:#0808d7;fill-opacity:1"
           font-weight="400"
           font-family="Ubuntu"
           stroke-width="0.05"
           id="tspan888"><tspan
   style="font-style:normal;font-variant:normal;font-weight:500;font-stretch:normal;font-family:Ubuntu;-inkscape-font-specification:'Ubuntu Medium'"
   id="tspan908">B</tspan>lue</tspan></text>
      <text
         xml:space="preserve"
         style="font-size:0.979539px;line-height:1.25;font-family:sans-serif;letter-spacing:0px;word-spacing:0px;fill:#d20000;fill-opacity:1;stroke-width:0.057;stroke-miterlimit:4;stroke-dasharray:none"
         x="-0.79213607"
         y="3.0303888"
         id="text894"><tspan
           sodipodi:role="line"
           id="tspan892"
           x="-0.79213607"
           y="3.0303888"
           style="font-style:normal;font-variant:normal;font-weight:normal;font-stretch:normal;font-size:0.979539px;font-family:Ubuntu;-inkscape-font-specification:'Ubuntu, Normal';font-variant-ligatures:normal;font-variant-caps:normal;font-variant-numeric:normal;font-variant-east-asian:normal;fill:#d20000;fill-opacity:1;stroke-width:0.057;stroke-miterlimit:4;stroke-dasharray:none"><tspan
   style="font-style:normal;font-variant:normal;font-weight:500;font-stretch:normal;font-family:Ubuntu;-inkscape-font-specification:'Ubuntu Medium';stroke-width:0.057;stroke-miterlimit:4;stroke-dasharray:none"
   id="tspan904">R</tspan>ed</tspan></text>
    </g>
    <path
       style="fill:none;stroke:#000000;stroke-width:0.13;stroke-linecap:round;stroke-linejoin:miter;stroke-miterlimit:4;stroke-dasharray:none;stroke-opacity:1"
       d="M -1.0313038,2.7501437 H 1.1696126"
       id="path910" />
    <path
       style="fill:none;stroke:#000000;stroke-width:0.13;stroke-linecap:round;stroke-linejoin:miter;stroke-miterlimit:4;stroke-dasharray:none;stroke-opacity:1"
       d="M -1.0313038,3.8654258 H 2.3086654"
       id="path912"
       sodipodi:nodetypes="cc" />
    <path
       style="fill:none;stroke:#000000;stroke-width:0.13;stroke-linecap:round;stroke-linejoin:miter;stroke-miterlimit:4;stroke-dasharray:none;stroke-opacity:1"
       d="M -1.0313038,5.0040872 H 1.6153519"
       id="path914"
       sodipodi:nodetypes="cc" />
    <g
       id="g959"
       class="rgb"
       transform="translate(7.1110674,0.76081866)">
      <text
         style="line-height:1.25;fill:#b3b3b3;fill-opacity:1"
         x="-0.76742935"
         y="4.1610413"
         font-size="1.029px"
         font-family="sans-serif"
         letter-spacing="0"
         word-spacing="0"
         stroke-width="0.223"
         id="text944"><tspan
           x="-0.76742935"
           y="4.1610413"
           style="-inkscape-font-specification:'Ubuntu, Normal';font-variant-ligatures:normal;font-variant-caps:normal;font-variant-numeric:normal;font-variant-east-asian:normal;fill:#b3b3b3;fill-opacity:1"
           font-weight="400"
           font-family="Ubuntu"
           stroke-width="0.05"
           id="tspan942"><tspan
   style="font-style:normal;font-variant:normal;font-weight:500;font-stretch:normal;font-family:Ubuntu;-inkscape-font-specification:'Ubuntu Medium';fill:#b3b3b3"
   id="tspan940">G</tspan>reen</tspan></text>
      <text
         style="line-height:1.25;fill:#0808d7;fill-opacity:1"
         x="-0.79624134"
         y="5.277"
         font-size="1.029px"
         font-family="sans-serif"
         letter-spacing="0"
         word-spacing="0"
         stroke-width="0.223"
         id="text950"><tspan
           x="-0.79624134"
           y="5.277"
           style="-inkscape-font-specification:'Ubuntu, Normal';font-variant-ligatures:normal;font-variant-caps:normal;font-variant-numeric:normal;font-variant-east-asian:normal;fill:#0808d7;fill-opacity:1"
           font-weight="400"
           font-family="Ubuntu"
           stroke-width="0.05"
           id="tspan948"><tspan
   style="font-style:normal;font-variant:normal;font-weight:500;font-stretch:normal;font-family:Ubuntu;-inkscape-font-specification:'Ubuntu Medium'"
   id="tspan946">B</tspan>lue</tspan></text>
      <text
         xml:space="preserve"
         style="font-size:0.979539px;line-height:1.25;font-family:sans-serif;letter-spacing:0px;word-spacing:0px;fill:#d20000;fill-opacity:1;stroke-width:0.0565121"
         x="-0.79213607"
         y="3.0303888"
         id="text956"><tspan
           sodipodi:role="line"
           id="tspan954"
           x="-0.79213607"
           y="3.0303888"
           style="font-style:normal;font-variant:normal;font-weight:normal;font-stretch:normal;font-size:0.979539px;font-family:Ubuntu;-inkscape-font-specification:'Ubuntu, Normal';font-variant-ligatures:normal;font-variant-caps:normal;font-variant-numeric:normal;font-variant-east-asian:normal;fill:#d20000;fill-opacity:1;stroke-width:0.0565121"><tspan
   style="font-style:normal;font-variant:normal;font-weight:500;font-stretch:normal;font-family:Ubuntu;-inkscape-font-specification:'Ubuntu Medium'"
   id="tspan952">R</tspan>ed</tspan></text>
    </g>
    <path
       style="fill:none;stroke:#b3b3b3;stroke-width:0.13;stroke-linecap:round;stroke-linejoin:miter;stroke-miterlimit:4;stroke-dasharray:none;stroke-opacity:1"
       d="M 6.0797636,4.6262445 H 9.4197328"
       id="path963"
       sodipodi:nodetypes="cc" />
  </g>
  <path
     d="M 5.001,2.347 A 0.734,0.734 0 0 0 5.04,1.047 A 0.688,0.688 0 0 0 4.706,0.973 A 0.674,0.674 0 0 0 4.372,1.047 A 0.767,0.767 0 0 0 3.99,1.693 c 0,0.294 0.223,0.598 0.508,0.691 C 4.635,2.429 4.868,2.412 5.001,2.347 Z M 4.107,6.651 C 4.167,6.601 4.198,6.534 4.275,6.287 C 4.385,5.934 4.495,5.504 4.576,5.104 C 4.634,4.823 4.661,4.756 4.716,4.756 c 0.067,0 0.107,0.106 0.203,0.537 c 0.108,0.48 0.288,1.142 0.346,1.27 c 0.07,0.152 0.286,0.192 0.41,0.075 C 5.765,6.553 5.768,6.46 5.687,6.197 C 5.434,5.37 5.277,4.557 5.231,3.822 C 5.2,3.335 5.215,3.226 5.322,3.172 A 1.38,1.38 0 0 1 5.648,3.123 C 6.244,3.086 6.828,3.007 6.912,2.953 C 7.106,2.826 7.018,2.491 6.789,2.489 c -0.041,0 -0.245,0.02 -0.453,0.047 C 5.356,2.657 4.103,2.663 2.952,2.551 C 2.587,2.515 2.504,2.53 2.437,2.639 C 2.329,2.817 2.434,3.014 2.653,3.046 c 0.176,0.025 0.995,0.087 1.154,0.087 c 0.18,0 0.292,0.03 0.366,0.1 c 0.051,0.048 0.055,0.07 0.055,0.304 c 0,0.659 -0.147,1.549 -0.399,2.41 C 3.712,6.349 3.684,6.535 3.733,6.595 c 0.107,0.13 0.26,0.153 0.374,0.056 z"
     fill="#888f9b"
     id="path85"
     class="person"
     clip-path="url(#clipPath887)" />
</svg>
