<?xml version="1.0" encoding="UTF-8" standalone="no"?>
<svg
   xmlns:dc="http://purl.org/dc/elements/1.1/"
   xmlns:cc="http://creativecommons.org/ns#"
   xmlns:rdf="http://www.w3.org/1999/02/22-rdf-syntax-ns#"
   xmlns:svg="http://www.w3.org/2000/svg"
   xmlns="http://www.w3.org/2000/svg"
   xmlns:xlink="http://www.w3.org/1999/xlink"
   xmlns:sodipodi="http://sodipodi.sourceforge.net/DTD/sodipodi-0.dtd"
   xmlns:inkscape="http://www.inkscape.org/namespaces/inkscape"
   viewBox="0 0 9.413 7.684"
   version="1.1"
   id="svg264"
   sodipodi:docname="performance-animation.svg"
   inkscape:version="1.0.2 (394de47547, 2021-03-26)">
  <metadata
     id="metadata268">
    <rdf:RDF>
      <cc:Work
         rdf:about="">
        <dc:format>image/svg+xml</dc:format>
        <dc:type
           rdf:resource="http://purl.org/dc/dcmitype/StillImage" />
      </cc:Work>
    </rdf:RDF>
  </metadata>
  <sodipodi:namedview
     pagecolor="#ffffff"
     bordercolor="#666666"
     borderopacity="1"
     objecttolerance="10"
     gridtolerance="10"
     guidetolerance="10"
     inkscape:pageopacity="0"
     inkscape:pageshadow="2"
     inkscape:window-width="1920"
     inkscape:window-height="1016"
     id="namedview266"
     showgrid="false"
     inkscape:zoom="256"
     inkscape:cx="3.5139996"
     inkscape:cy="5.2902727"
     inkscape:window-x="0"
     inkscape:window-y="27"
     inkscape:window-maximized="1"
     inkscape:current-layer="svg264" />
  <defs
     id="defs38">
    <linearGradient
       inkscape:collect="always"
       id="linearGradient1099">
      <stop
         style="stop-color:#f75eff;stop-opacity:1"
         offset="0"
         id="stop1095" />
      <stop
         style="stop-color:#4031ff;stop-opacity:1"
         offset="1"
         id="stop1097" />
    </linearGradient>
    <linearGradient
       id="perf-d">
      <stop
         offset="0"
         stop-color="#629bff"
         id="stop2" />
      <stop
         offset="1"
         stop-color="#003eaa"
         stop-opacity=".996"
         id="stop4" />
    </linearGradient>
    <linearGradient
       id="perf-c">
      <stop
         offset="0"
         stop-color="#d60000"
         id="stop7" />
      <stop
         offset="1"
         stop-color="#ff8989"
         id="stop9" />
    </linearGradient>
    <linearGradient
       id="perf-b">
      <stop
         offset="0"
         stop-color="#0056eb"
         id="stop12" />
      <stop
         offset=".77"
         stop-color="#0a55db"
         id="stop14" />
      <stop
         offset=".807"
         stop-color="#3c7ff4"
         id="stop16" />
      <stop
         offset=".839"
         stop-color="#1263f1"
         id="stop18" />
      <stop
         offset=".954"
         stop-color="#0b2be8"
         id="stop20" />
      <stop
         offset="1"
         stop-color="#3880ff"
         id="stop22" />
    </linearGradient>
    <linearGradient
       id="perf-a">
      <stop
         offset="0"
         stop-color="#0056eb"
         id="stop25" />
      <stop
         offset=".453"
         stop-color="#1969f4"
         id="stop27" />
      <stop
         offset="1"
         stop-color="#3880ff"
         id="stop29" />
    </linearGradient>
    <linearGradient
       xlink:href="#perf-b"
       id="perf-g"
       gradientUnits="userSpaceOnUse"
       gradientTransform="matrix(.24306 0 0 .24306 -24.461 -87.63)"
       x1="121.506"
       y1="387.748"
       x2="121.506"
       y2="377.14" />
    <linearGradient
       xlink:href="#perf-c"
       id="perf-h"
       gradientUnits="userSpaceOnUse"
       gradientTransform="matrix(.24306 0 0 .24306 -24.461 -87.533)"
       x1="129.93"
       y1="378.776"
       x2="128.408"
       y2="377.335" />
    <linearGradient
       xlink:href="#perf-d"
       id="perf-i"
       gradientUnits="userSpaceOnUse"
       gradientTransform="matrix(.24306 0 0 .24306 -25.093 -87.533)"
       x1="126"
       y1="377.497"
       x2="127.015"
       y2="378.728" />
    <linearGradient
       xlink:href="#perf-d"
       id="perf-j"
       gradientUnits="userSpaceOnUse"
       gradientTransform="matrix(.24306 0 0 .24306 -24.442 -87.533)"
       x1="126"
       y1="377.497"
       x2="127.015"
       y2="378.728" />
    <linearGradient
       xlink:href="#perf-b"
       id="perf-e"
       gradientUnits="userSpaceOnUse"
       gradientTransform="matrix(.24306 0 0 .24306 -24.461 -87.63)"
       x1="121.506"
       y1="387.748"
       x2="121.506"
       y2="377.14" />
    <linearGradient
       xlink:href="#perf-b"
       id="perf-f"
       gradientUnits="userSpaceOnUse"
       gradientTransform="matrix(.24306 0 0 .24306 -24.461 -87.63)"
       x1="121.506"
       y1="387.748"
       x2="121.506"
       y2="377.14" />
    <linearGradient
       inkscape:collect="always"
       xlink:href="#linearGradient1099"
       id="linearGradient1101"
       x1="2.132"
       y1="4.7514899"
       x2="7.1213465"
       y2="4.7514901"
       gradientUnits="userSpaceOnUse"
       gradientTransform="translate(0,0.04851015)" />
    <clipPath
       clipPathUnits="userSpaceOnUse"
       id="clipPath1114">
      <path
         id="path1116"
         style="fill:#ffffff;stroke:none;stroke-width:0.250148;stroke-linecap:round;stroke-miterlimit:4;stroke-dasharray:none;stroke-opacity:1"
         d="M 2.132,4.625 H 7.283 V 5.1507472 H 2.132 Z"
         sodipodi:nodetypes="ccccc" />
    </clipPath>
  </defs>
  <g
     class="files"
     id="g88">
    <g
       class="file-img-2"
       id="g46">
      <path
         d="M4.98.861L4.837.697a.026.026 0 00-.02-.009h-.363a.03.03 0 00-.03.03v.716a.03.03 0 00.03.03h.502a.03.03 0 00.03-.03V.878A.026.026 0 004.98.861z"
         id="path40" />
      <path
         d="M4.454 1.436V.719h.353v.156c0 .008.006.014.015.014h.134v.547z"
         fill="#e580ff"
         id="path42" />
      <path
         d="M4.507 1.326c-.013-.003-.022-.016-.02-.03V.975c.005-.012.016-.022.03-.019h.385c.011.005.022.016.019.03v.323c-.005.011-.017.022-.03.019h-.384zm.075-.154c.02-.024.04-.05.062-.073.021-.015.036.013.05.025.015.014.026.034.045.042.019-.002.029-.03.05-.024.035.035.067.072.1.108 0-.083.002-.166 0-.248C4.89.984 4.87.986 4.87.986h-.334c-.026-.004-.017.028-.019.043v.22l.065-.077zm.22-.064c-.031-.007-.046-.046-.028-.071.016-.025.057-.027.074-.003.021.023.009.064-.02.073a.044.044 0 01-.027.001z"
         fill="#405"
         id="path44" />
    </g>
    <g
       class="file-img-1"
       id="g54">
      <path
         d="M4.98.861L4.836.697a.026.026 0 00-.02-.009h-.362a.03.03 0 00-.03.03v.716a.03.03 0 00.03.03h.502a.03.03 0 00.03-.03V.88A.026.026 0 004.98.86z"
         id="path48" />
      <path
         d="M4.454 1.436V.719h.352v.156c0 .008.007.015.016.015h.134v.546z"
         fill="#e580ff"
         id="path50" />
      <path
         d="M4.507 1.326c-.013-.003-.023-.016-.02-.029V.974c.005-.012.016-.021.029-.019H4.9c.012.005.022.016.02.03v.323c-.005.011-.017.022-.03.02-.128 0-.256 0-.384-.002zm.075-.154c.02-.024.04-.05.062-.073.02-.015.036.013.049.025.015.014.027.034.046.042.019-.002.029-.03.05-.023.034.034.067.07.1.107v-.248C4.89.984 4.87.986 4.87.986h-.333c-.026-.004-.017.028-.019.043v.22zm.219-.064c-.03-.006-.046-.046-.027-.07.016-.026.056-.028.074-.004.021.023.008.064-.02.073a.044.044 0 01-.027.001z"
         fill="#405"
         id="path52" />
    </g>
    <g
       class="file-img-0"
       id="g62">
      <path
         d="M4.98.861L4.836.697a.026.026 0 00-.02-.009h-.362a.03.03 0 00-.03.03v.717a.03.03 0 00.03.03h.502a.03.03 0 00.03-.03V.878A.026.026 0 004.98.86z"
         id="path56" />
      <path
         d="M4.454 1.436V.719h.352v.155c0 .009.007.016.015.016h.135v.546z"
         fill="#e580ff"
         id="path58" />
      <path
         d="M4.506 1.327c-.012-.004-.022-.017-.02-.03V.974c.005-.011.017-.022.03-.02h.386c.011.006.022.017.019.03v.323c-.005.012-.017.022-.03.02h-.384zm.076-.155c.02-.024.04-.05.062-.073.02-.015.036.012.049.025.015.014.027.034.046.042.019-.003.029-.03.05-.024l.1.107v-.248c.001-.017-.02-.015-.02-.015h-.334c-.025-.004-.016.028-.018.043v.22zm.219-.064c-.03-.007-.046-.046-.027-.07.016-.027.056-.028.074-.004.021.023.008.064-.021.073a.044.044 0 01-.027.001z"
         fill="#405"
         id="path60" />
    </g>
    <g
       class="file-js"
       id="g70">
      <path
         d="M4.98.861L4.836.698a.026.026 0 00-.02-.01h-.362a.03.03 0 00-.03.031v.715a.03.03 0 00.03.03h.502a.03.03 0 00.03-.03V.879A.026.026 0 004.98.862z"
         id="path64" />
      <path
         d="M4.454 1.435V.719h.352v.156c0 .008.007.015.016.015h.134v.545z"
         fill="#f5de19"
         id="path66" />
      <path
         d="M4.725 1.238a.062.062 0 00.057.035c.024 0 .039-.012.039-.028 0-.02-.016-.027-.042-.038L4.765 1.2c-.041-.017-.069-.04-.069-.086 0-.042.033-.075.084-.075a.085.085 0 01.081.045l-.044.03a.039.039 0 00-.037-.026.025.025 0 00-.028.025c0 .017.011.024.035.035l.015.006c.048.02.076.042.076.09 0 .052-.04.08-.095.08a.11.11 0 01-.104-.06zm-.202.005c.01.016.018.03.037.03s.03-.008.03-.037v-.194h.058v.195c0 .06-.035.086-.085.086a.089.089 0 01-.086-.052z"
         id="path68" />
    </g>
    <g
       class="file-css"
       id="g78">
      <path
         d="M4.98.861L4.836.698a.026.026 0 00-.02-.009h-.362a.03.03 0 00-.03.03v.715c0 .016.013.03.03.03h.502a.03.03 0 00.03-.03V.879A.026.026 0 004.98.86z"
         id="path72" />
      <path
         d="M4.454 1.435V.719h.352v.156c0 .008.007.015.015.015h.135v.545z"
         fill="#1572b6"
         id="path74" />
      <path
         d="M4.56.972l.002.016.002.031.001.014H4.8l-.006.063H4.64l.002.016.003.031v.014h.144l-.008.08-.068.018-.068-.019-.004-.049h-.062l.009.096.125.035.126-.034v-.01l.01-.117.016-.169.001-.016h-.153z"
         fill="#fff"
         id="path76" />
    </g>
    <g
       class="file-html"
       id="g86">
      <path
         d="M4.98.862L4.836.698a.026.026 0 00-.02-.01h-.362a.03.03 0 00-.03.031v.715c0 .017.013.03.03.03h.502a.03.03 0 00.03-.03V.879A.026.026 0 004.98.862z"
         id="path80" />
      <path
         d="M4.454 1.436V.72h.352v.155c0 .008.007.015.016.015h.134v.546z"
         fill="#e44f26"
         id="path82" />
      <path
         d="M4.559 1.026l.001.015.014.159h.2l-.006.075-.064.018-.065-.018-.004-.046h-.058l.008.09.118.034.119-.033v-.01l.014-.152.001-.015h-.21l-.005-.06h.22l.002-.013.003-.03v-.014h-.143z"
         fill="#fff"
         id="path84" />
    </g>
  </g>
  <g
     class="browser"
     id="g222">
    <rect
       width="5.15"
       height="3.397"
       x="2.132"
       y="4.248"
       ry=".237"
       class="browser-body"
       fill="#fff"
       id="rect90" />
    <path
       style="fill:none;stroke:url(#linearGradient1101);stroke-width:0.35;stroke-linecap:round;stroke-linejoin:miter;stroke-miterlimit:4;stroke-dasharray:none;stroke-opacity:1"
       d="m 2.132,4.799 l 5.1,0"
       id="path1093"
       sodipodi:nodetypes="cc"
       clip-path="url(#clipPath1114)"
       class="loading-bar" />
    <g
       class="page"
       id="g100">
      <path
         d="M3.039 7.515h1.207M3.039 6.107h3.445m-3.445.31h2.945m-2.945.309h3.096"
         class="page-txt"
         stroke="gray"
         stroke-width=".064"
         id="path92" />
      <path
         fill="#43b7ff"
         paint-order="markers fill stroke"
         d="M2.132 4.413h5.151v1.469H2.132z"
         class="hero-bg"
         id="path94"
         style="opacity:1" />
      <path
         fill="#43b7ff"
         paint-order="markers fill stroke"
         d="M3.03 6.925h.693v.415H3.03zm.953 0h.693v.415h-.693z"
         class="page-img-bg"
         id="path96" />
      <path
         d="M3.225 7.02l.068.12.07.119h-.276l.069-.12zm.945.233l-.111-.077-.012-.134.123-.058.122.058-.011.134z"
         fill="#0067a9"
         paint-order="markers fill stroke"
         class="page-img-img"
         id="path98" />
    </g>
    <g
       class="hero-windowsxp"
       fill="#238223"
       id="g106">
      <path
         d="M6.165 5.264l-.117.405c-.101-.07-.212-.126-.446-.028l.114-.4.001-.001c.234-.097.347-.046.448.024zM6.226 5.303l-.115.4c.101.07.214.125.448.027l.111-.39c-.238.082-.342.032-.444-.037z"
         id="path102" />
      <path
         d="M6.185 5.19l.115-.4c-.102-.07-.214-.125-.449-.027l-.115.403a.595.595 0 01.228-.056c.094 0 .16.04.22.08zM6.36 4.832l-.115.403c.102.07.224.126.448.025l.116-.402c-.234.097-.347.043-.448-.026z"
         id="path104" />
    </g>
    <path
       d="M6.158 5.715l-.001-.442.6.003-.001.524zm-.504-.068v-.378l.451.004v.435zm0-.795l.45-.065.001.437-.452.003zm.503-.072l.598-.087.001.518-.6.012z"
       class="hero-windows10"
       fill="#0067a9"
       id="path108" />
    <g
       class="page-btn"
       id="g120">
      <rect
         width="1.436"
         height=".479"
         x="3.03"
         y="5.065"
         ry=".15"
         fill="#002c5a"
         id="rect110" />
      <rect
         width="1.436"
         height=".479"
         x="3.03"
         y="4.976"
         ry=".15"
         fill="#005f94"
         id="rect112" />
      <text
         style="line-height:1.25;-inkscape-font-specification:'Ubuntu, Normal';font-variant-ligatures:normal;font-variant-caps:normal;font-variant-numeric:normal;font-variant-east-asian:normal"
         x="3.383"
         y="5.359"
         class="page-btn-txt"
         font-weight="400"
         font-size=".469"
         font-family="Ubuntu"
         letter-spacing=".08"
         word-spacing="0"
         fill="#fff"
         stroke-width=".027"
         id="text116"><tspan
           x="3.383"
           y="5.359"
           id="tspan114">
              try
            </tspan></text>
      <path
         d="M4.12 5.215l-.218-.125m.217.125l-.217.126m-.459-.126h.676"
         class="page-btn-arrow"
         fill="none"
         stroke="#fff"
         stroke-width=".043"
         stroke-linecap="round"
         id="path118" />
    </g>
    <path
       d="M6.47 5.68c-.051.05-.108.042-.162.019a.205.205 0 00-.17 0c-.075.032-.115.023-.16-.019-.256-.263-.218-.664.073-.68.07.004.12.04.161.042.062-.012.121-.048.187-.043.08.006.139.037.179.094a.208.208 0 00.025.374.53.53 0 01-.133.214zm-.264-.682a.215.215 0 01.197-.223c.015.135-.123.236-.197.223z"
       class="hero-apple"
       fill="#333"
       id="path122" />
    <g
       class="browser-windowsxp"
       id="g156">
      <path
         class="frame"
         fill="none"
         stroke="#0056eb"
         stroke-width=".097"
         stroke-linecap="round"
         stroke-dashoffset="16.97"
         d="M2.18 4.544h5.053v3.087H2.18z"
         id="path124" />
      <g
         class="title-bar-windowsxp"
         id="g154">
        <path
           d="M6.65 3.985v.645h.633v-.39a.256.256 0 00-.256-.255z"
           fill="url(#perf-e)"
           paint-order="markers fill stroke"
           id="path126" />
        <path
           d="M2.567 3.985v.645h4.326v-.645z"
           fill="url(#perf-f)"
           paint-order="markers fill stroke"
           id="path128" />
        <path
           d="M2.388 3.985a.256.256 0 00-.256.256v.389h.604v-.645z"
           fill="url(#perf-g)"
           paint-order="markers fill stroke"
           id="path130" />
        <g
           class="title-bar-buttons"
           id="g152">
          <g
             class="title-bar-close"
             id="g136">
            <rect
               width=".482"
               height=".482"
               x="6.661"
               y="4.089"
               ry=".095"
               class="hover"
               fill="url(#perf-h)"
               stroke="#fff"
               stroke-width=".026"
               stroke-linecap="round"
               stroke-dashoffset="16.97"
               id="rect132" />
            <path
               d="M6.75 4.486l.304-.305m-.305 0l.305.305"
               fill="none"
               stroke="#fff"
               stroke-width=".064"
               id="path134" />
          </g>
          <g
             class="title-bar-collapse"
             id="g142">
            <rect
               width=".482"
               height=".482"
               x="5.36"
               y="4.089"
               ry=".095"
               class="hover"
               fill="url(#perf-i)"
               stroke="#fff"
               stroke-width=".026"
               stroke-linecap="round"
               stroke-dashoffset="16.97"
               id="rect138" />
            <path
               d="M5.645 4.44h-.202"
               fill="none"
               stroke="#fff"
               stroke-width=".064"
               id="path140" />
          </g>
          <g
             class="title-bar-expand"
             id="g150">
            <rect
               width=".482"
               height=".482"
               x="6.01"
               y="4.089"
               ry=".095"
               class="hover"
               fill="url(#perf-j)"
               stroke="#fff"
               stroke-width=".026"
               stroke-linecap="round"
               stroke-dashoffset="16.97"
               id="rect144" />
            <path
               d="M6.112 4.24h.279m-.28-.044h.28v.279h-.28z"
               class="expand"
               fill="none"
               stroke="#fff"
               stroke-width=".05"
               id="path146" />
            <path
               d="M6.183 4.28v-.075h.213v.173h-.054m-.235-.097h.212v.173h-.212z"
               class="minimize"
               fill="none"
               stroke="#fff"
               stroke-width=".039"
               stroke-linecap="round"
               stroke-dashoffset="16.97"
               paint-order="markers fill stroke"
               id="path148" />
          </g>
        </g>
      </g>
    </g>
    <g
       class="title-bar-windows10"
       id="g182">
      <path
         d="M2.132 4.147h5.151v.433H2.132z"
         fill="#fff"
         paint-order="markers fill stroke"
         id="path158" />
      <g
         class="title-bar-buttons"
         id="g180">
        <g
           class="title-bar-close"
           id="g164">
          <path
             d="M6.427 4.147h.856v.433h-.856z"
             class="hover"
             fill="red"
             id="path160" />
          <path
             d="M6.742 4.477l.226-.227m-.226 0l.226.227"
             class="hover-icon"
             fill="none"
             stroke="#000"
             stroke-width=".03"
             id="path162" />
        </g>
        <g
           class="title-bar-collapse"
           id="g170">
          <path
             class="hover"
             fill="#e6e6e6"
             d="M4.716 4.147h.856v.433h-.856z"
             id="path166" />
          <path
             d="M5.26 4.364h-.233"
             fill="none"
             stroke="#000"
             stroke-width=".03"
             id="path168" />
        </g>
        <g
           class="title-bar-expand"
           id="g178">
          <path
             class="hover"
             fill="#e6e6e6"
             d="M5.572 4.147h.856v.433h-.856z"
             id="path172" />
          <path
             class="expand"
             fill="none"
             stroke="#000"
             stroke-width=".028"
             stroke-linecap="round"
             stroke-dashoffset="16.97"
             paint-order="markers fill stroke"
             d="M5.896 4.26h.208v.208h-.208z"
             id="path174" />
          <path
             d="M6.055 4.414h.035v-.14h-.14v.035m-.041.145h.14v-.14h-.14z"
             class="minimize"
             fill="none"
             stroke="#000"
             stroke-width=".02"
             id="path176" />
        </g>
      </g>
    </g>
    <g
       class="title-bar-mac"
       id="g220">
      <path
         d="M6.763 4.08v.546h.52v-.291a.255.255 0 00-.256-.254z"
         id="path184" />
      <path
         d="M2.615 4.08v.546H6.87V4.08z"
         id="path186" />
      <path
         d="M2.388 4.079a.256.256 0 00-.256.256v.29h.564v-.544h-.308z"
         id="path188" />
      <g
         class="title-bar-buttons"
         id="g218">
        <g
           class="title-bar-close"
           id="g196">
          <circle
             cx="2.437"
             cy="4.37"
             r=".115"
             fill="#ff2a2a"
             paint-order="markers fill stroke"
             id="circle190" />
          <g
             class="hover"
             fill="none"
             stroke="#640000"
             stroke-width=".03"
             id="g194">
            <path
               d="M2.379 4.311l.116.117M2.379 4.428l.116-.117"
               id="path192" />
          </g>
        </g>
        <g
           class="title-bar-collapse"
           id="g202">
          <circle
             cx="2.86"
             cy="4.37"
             r=".115"
             fill="#fc0"
             paint-order="markers fill stroke"
             id="circle198" />
          <path
             d="M2.794 4.37h.131"
             class="hover"
             fill="none"
             stroke="#5c4a00"
             stroke-width=".04"
             id="path200" />
        </g>
        <g
           class="title-bar-expand"
           id="g216">
          <circle
             cx="3.282"
             cy="4.37"
             r=".115"
             fill="#00eb13"
             paint-order="markers fill stroke"
             id="circle204" />
          <g
             class="minimize hover"
             fill="#006100"
             id="g210">
            <path
               d="M3.373 4.375l-.086.086-.007-.093z"
               id="path206" />
            <path
               d="M3.19 4.364l.086-.086.007.093z"
               id="path208" />
          </g>
          <g
             class="expand hover"
             fill="#006100"
             id="g214">
            <path
               d="M3.254 4.427l.085-.085.007.092zM3.31 4.312l-.086.086-.006-.093z"
               id="path212" />
          </g>
        </g>
      </g>
    </g>
  </g>
  <g
     class="percent"
     id="g232">
    <circle
       transform="rotate(-90)"
       cx="-7.507"
       cy="7.01"
       r="1.179"
       fill="#afe9af"
       paint-order="markers fill stroke"
       id="circle224" />
    <circle
       transform="rotate(-90)"
       r="1.179"
       cy="7.01"
       cx="-7.507"
       class="percent-progress-bar"
       fill="none"
       stroke="#006d00"
       stroke-width=".274"
       stroke-linecap="round"
       stroke-linejoin="round"
       stroke-dashoffset="16.97"
       paint-order="markers fill stroke"
       id="circle226" />
    <text
       style="line-height:1.25;text-align:center"
       x="6.988"
       y="7.863"
       font-size="1.044"
       font-family="sans-serif"
       letter-spacing="0"
       word-spacing="0"
       text-anchor="middle"
       fill="#006d00"
       stroke-width=".06"
       id="text230"><tspan
         x="6.988"
         y="7.863"
         style="-inkscape-font-specification:'Ubuntu, Normal';font-variant-ligatures:normal;font-variant-caps:normal;font-variant-numeric:normal;font-variant-east-asian:normal;text-align:center"
         font-weight="400"
         font-family="Ubuntu"
         id="tspan228">
            100
          </tspan></text>
  </g>
  <g
     class="checkmark"
     id="g238">
    <path
       d="M6.999 6.36a1.147 1.147 0 10.01 0z"
       fill="#fff"
       id="path234" />
    <path
       fill="green"
       d="M6.997 6.191a1.316 1.316 0 00-1.303 1.316 1.316 1.316 0 001.315 1.316 1.316 1.316 0 001.316-1.316A1.316 1.316 0 007.01 6.191a1.316 1.316 0 00-.012 0zm.693.674l.162.162-.96.96-.162.162a6.139 6.139 0 01-.161-.162l-.402-.402.161-.161.402.401z"
       id="path236" />
  </g>
  <g
     class="url-bar"
     id="g246">
    <rect
       width="4.398"
       height=".704"
       x="2.514"
       y="4.928"
       ry=".244"
       fill="#fff"
       stroke="#4d4d4d"
       stroke-width=".072"
       stroke-linecap="round"
       stroke-linejoin="round"
       stroke-dashoffset="16.97"
       paint-order="markers fill stroke"
       id="rect240" />
    <text
       style="line-height:1.25;-inkscape-font-specification:'Ubuntu, Normal';font-variant-ligatures:normal;font-variant-caps:normal;font-variant-numeric:normal;font-variant-east-asian:normal"
       x="2.987"
       y="5.475"
       font-weight="400"
       font-size=".585"
       font-family="Ubuntu"
       letter-spacing="0"
       word-spacing="0"
       stroke-width=".243"
       id="text244"><tspan
         x="2.987"
         y="5.475"
         style="-inkscape-font-specification:'Ubuntu, Normal';font-variant-ligatures:normal;font-variant-caps:normal;font-variant-numeric:normal;font-variant-east-asian:normal"
         id="tspan242">
            www.foo.bar
          </tspan></text>
  </g>
  <g
     class="airplane"
     fill="#888f9b"
     id="g262">
    <path
       d="M4.705 6.408s.315-.613.385-2.346l2.287.414.002-.214-2.25-1.285-.02-1.28s-.08-.539-.335-.74c-.05-.037-.087-.033-.138 0-.255.201-.335.74-.335.74l-.02 1.28-2.25 1.285.002.214 2.287-.414c.07 1.733.385 2.346.385 2.346"
       id="path248" />
    <path
       d="M6.032 6.182v-.314l-1.327-.46-1.323.46v.319l1.323-.212z"
       id="path250" />
    <rect
       width=".392"
       height=".635"
       x="5.435"
       y="2.875"
       ry=".102"
       id="rect252" />
    <rect
       width=".392"
       height=".635"
       x="6.034"
       y="3.177"
       ry=".102"
       id="rect254" />
    <rect
       width=".392"
       height=".635"
       x="-3.987"
       y="2.875"
       ry=".102"
       transform="scale(-1 1)"
       id="rect256" />
    <rect
       width=".392"
       height=".635"
       x="-3.387"
       y="3.177"
       ry=".102"
       transform="scale(-1 1)"
       id="rect258" />
    <path
       d="M2.896 4.549a.106.106 0 00-.106.106.106.106 0 000 .01l.09 1.545L3 4.67a.106.106 0 000-.016.106.106 0 00-.105-.106zm-.731.329a.106.106 0 00-.107.107.106.106 0 00.001.01l.089 1.543.122-1.537a.106.106 0 000-.016.106.106 0 00-.105-.107zm4.437-.329a.106.106 0 00-.106.106.106.106 0 000 .01l.089 1.544.122-1.538a.106.106 0 00.001-.016.106.106 0 00-.106-.106zm.674.329a.106.106 0 00-.106.107.106.106 0 000 .01l.09 1.543.121-1.537a.106.106 0 00.002-.016.106.106 0 00-.107-.107z"
       id="path260" />
  </g>
</svg>
