<?xml version="1.0" standalone="no"?>
<!DOCTYPE svg PUBLIC "-//W3C//DTD SVG 20010904//EN"
 "http://www.w3.org/TR/2001/REC-SVG-20010904/DTD/svg10.dtd">
<svg version="1.0" xmlns="http://www.w3.org/2000/svg"
 width="700.000000pt" height="700.000000pt" viewBox="0 0 700.000000 700.000000"
 preserveAspectRatio="xMidYMid meet">
<metadata>
Created by potrace 1.11, written by Peter Selinger 2001-2013
</metadata>
<g transform="translate(0.000000,700.000000) scale(0.100000,-0.100000)"
fill="#000000" stroke="none">
<path d="M3269 6990 c-1267 -89 -2377 -841 -2923 -1981 -233 -487 -339 -959
-339 -1509 0 -553 106 -1023 343 -1517 777 -1622 2675 -2388 4367 -1762 740
273 1379 806 1787 1489 599 1002 656 2248 151 3297 -182 378 -385 664 -684
964 -335 334 -681 568 -1117 754 -472 202 -1066 301 -1585 265z m476 -600
c465 -40 902 -189 1311 -449 l139 -89 29 -68 c24 -57 29 -83 28 -146 -1 -162
-87 -256 -263 -289 l-65 -12 -274 141 c-173 88 -306 149 -360 165 -130 39
-313 84 -440 107 -146 28 -432 38 -581 21 -584 -67 -1101 -360 -1541 -871 -91
-106 -106 -130 -198 -315 -206 -417 -280 -706 -280 -1100 0 -800 362 -1443
1085 -1930 225 -152 567 -277 873 -319 165 -23 460 -21 633 4 151 22 336 70
485 125 126 47 359 159 470 225 85 52 86 52 157 48 127 -7 243 -78 283 -173
24 -59 23 -178 -3 -235 -74 -163 -353 -326 -828 -482 -344 -113 -555 -148
-891 -148 -815 0 -1479 289 -2068 901 -131 136 -301 341 -365 439 -89 138
-220 420 -292 630 -193 559 -209 1183 -44 1747 167 574 525 1074 1070 1498
159 123 224 165 396 254 502 258 1011 365 1534 321z m40 -1095 c164 -30 384
-97 392 -120 5 -16 -2335 -2351 -2346 -2340 -16 17 -78 208 -99 306 -41 189
-52 382 -31 567 56 514 325 975 746 1279 106 77 354 201 480 242 107 35 255
67 363 81 106 13 388 4 495 -15z m938 -465 c584 -549 734 -1400 372 -2120 -61
-122 -86 -154 -142 -181 -88 -42 -59 -67 -726 599 -329 328 -605 609 -613 624
-20 39 -17 102 7 151 14 28 187 209 507 530 268 268 489 487 493 487 3 0 49
-41 102 -90z m-1476 -1423 c38 -21 1185 -1160 1214 -1206 34 -53 36 -88 10
-140 -31 -59 -95 -109 -215 -166 -486 -231 -1041 -231 -1532 -1 -211 100 -429
263 -579 435 l-56 65 493 493 c311 312 508 501 533 513 45 22 99 25 132 7z"/>
</g>
</svg>
