<?xml version="1.0" encoding="UTF-8"?>
<svg version="1.1" viewBox="0 0 9.413 7.684" xmlns="http://www.w3.org/2000/svg">
 <defs>
  <clipPath id="a11y-a">
   <rect x="1.7196" y=".25682" width="5.3434" height="7.1914" fill="#fff"/>
  </clipPath>
  <clipPath id="a11y-b">
   <path d="m1.0555 2.2161h4.1895v1.0965l0.695 0.56179-0.695 0.55837v1.0166h-4.1895z" fill="#fff" style="paint-order:normal"/>
  </clipPath>
 </defs>
 <path class="person" d="m5.001 2.347a0.734 0.734 0 0 0 0.039-1.3 0.688 0.688 0 0 0-0.334-0.074 0.674 0.674 0 0 0-0.334 0.074 0.767 0.767 0 0 0-0.382 0.646c0 0.294 0.223 0.598 0.508 0.691 0.137 0.045 0.37 0.028 0.503-0.037zm-0.894 4.304c0.06-0.05 0.091-0.117 0.168-0.364 0.11-0.353 0.22-0.783 0.301-1.183 0.058-0.281 0.085-0.348 0.14-0.348 0.067 0 0.107 0.106 0.203 0.537 0.108 0.48 0.288 1.142 0.346 1.27 0.07 0.152 0.286 0.192 0.41 0.075 0.09-0.085 0.093-0.178 0.012-0.441-0.253-0.827-0.41-1.64-0.456-2.375-0.031-0.487-0.016-0.596 0.091-0.65a1.38 1.38 0 0 1 0.326-0.049c0.596-0.037 1.18-0.116 1.264-0.17 0.194-0.127 0.106-0.462-0.123-0.464-0.041 0-0.245 0.02-0.453 0.047-0.98 0.121-2.233 0.127-3.384 0.015-0.365-0.036-0.448-0.021-0.515 0.088-0.108 0.178-3e-3 0.375 0.216 0.407 0.176 0.025 0.995 0.087 1.154 0.087 0.18 0 0.292 0.03 0.366 0.1 0.051 0.048 0.055 0.07 0.055 0.304 0 0.659-0.147 1.549-0.399 2.41-0.117 0.402-0.145 0.588-0.096 0.648 0.107 0.13 0.26 0.153 0.374 0.056z" clip-path="url(#a11y-a)" fill="#888f9b"/>
 <g class="card">
  <path d="m3.672 2.293h4.253c0.13 0 0.234 0.104 0.234 0.234v2.622c0 0.13-0.104 0.233-0.234 0.233h-4.253a0.233 0.233 0 0 1-0.234-0.233v-2.622c0-0.13 0.104-0.234 0.234-0.234z" fill="#fff" paint-order="markers fill stroke"/>
  <g class="card-art">
   <path class="moon" d="m8.001 2.748a0.292 0.292 0 1 1-0.584 0 0.292 0.292 0 0 1 0.584 0z" fill="#5858ff" paint-order="markers fill stroke"/>
   <g>
    <path class="moon-shadow" d="m7.3385 3.2015c0 0.16205-0.13137 0.29342-0.29342 0.29342-0.095772 0-0.18083-0.045886-0.23438-0.11687 0.054648-0.40343 0.37987-0.40403 0.39617-0.42136 0.079319 0.052523 0.13163 0.14256 0.13163 0.24482z" fill="#fff"/>
    <path class="flower-petal-3" d="m7.1992 2.6375s-0.24087 0.12441-0.34102 0.49818c-0.10015 0.37377-0.014742 0.40182 0.091223 0.43021 0.10789 0.02891 0.19588 0.047325 0.29604-0.32645 0.10015-0.37377-0.045277-0.60169-0.045277-0.60169z" fill="#fe2dff" stroke-width=".99731" style="paint-order:markers fill stroke"/>
    <path class="flower-petal-2" d="m6.9544 2.4361s-0.2355 0.21441-0.2355 0.669c8e-7 0.45459 0.10545 0.46045 0.23433 0.46045 0.13122-2e-7 0.23667-0.00586 0.23667-0.46045 0-0.45459-0.23433-0.669-0.23433-0.669z" fill="#ff2db5" stroke-width="1.1716" style="paint-order:markers fill stroke"/>
   </g>
   <path class="flower-stem" d="m6.958 5.376v-1.9722" fill="none" stroke="#008000" stroke-width=".059"/>
   <g class="flower-leaf-1">
    <path d="m6.2438 3.7777s0.25951 0.099702 0.45184 0.099702c0.19233 0 0.16954-0.067202 0.24466-0.10041z" fill="#8fff8f" style="paint-order:markers fill stroke"/>
    <path d="m6.2438 3.7777s0.25951-0.099702 0.45184-0.099702c0.19233 0 0.24466 0.045255 0.24466 0.098995z" fill="#008000" style="paint-order:markers fill stroke"/>
   </g>
   <g class="flower-leaf-0" stroke-width=".912">
    <path d="m7.7335 4.3115s-0.28426 0.10889-0.49497 0.10889-0.19211-0.063321-0.2687-0.10889z" fill="#8fff8f" style="paint-order:markers fill stroke"/>
    <path d="m7.7335 4.3115s-0.28355-0.1096-0.49427-0.1096c-0.21213 0-0.26941 0.04879-0.26941 0.1096z" fill="#008000" style="paint-order:markers fill stroke"/>
   </g>
   <g paint-order="markers fill stroke">
    <path class="flower-petal-1" d="m6.969 2.6s-0.201 0.183-0.201 0.571 0.09 0.393 0.2 0.393c0.112 0 0.202-5e-3 0.202-0.393s-0.2-0.571-0.2-0.571z" fill="#ff2d79"/>
    <path class="flower-petal-0" d="m6.8 2.957s-0.032-0.174-0.032 0.214 0.09 0.393 0.2 0.393c0.235-0.02-0.14-0.412-0.168-0.607z" fill="#d42100"/>
   </g>
  </g>
  <text class="card-text" x="3.9804175" y="4.5209889" fill="#ff9b9b" font-family="sans-serif" font-size="1.8725px" letter-spacing="0px" stroke-width=".10803" word-spacing="0px" style="line-height:1.25" xml:space="preserve"><tspan x="3.9804175" y="4.5209889" fill="#ff9b9b" font-family="Ubuntu" font-size="1.8725px" stroke-width=".10803" style="font-variant-caps:normal;font-variant-east-asian:normal;font-variant-ligatures:normal;font-variant-numeric:normal">Hi</tspan></text>
 </g>
 <g class="talk-bubble">
  <rect class="talk-bubble-rect" x="1.0555" y="1.9945" width="4.2423" height="3.6861" ry=".25017" fill="#fff" stroke="#000" stroke-dashoffset="16.97" stroke-linecap="round" stroke-linejoin="round" stroke-width=".10375"/>
  <g class="talk-bubble-tail" fill="#fff">
   <rect x="5.24" y="3.1908" width=".078737" height="1.3327" style="paint-order:normal"/>
   <path d="m5.2982 5.3874-2.3e-6 -0.92801 0.7269-0.585-0.7269-0.585v-0.9743" stroke="#000" stroke-dashoffset="16.97" stroke-linecap="round" stroke-linejoin="round" stroke-width=".104" style="paint-order:normal" paint-order="markers fill stroke"/>
  </g>
  <g class="talk-bubble-content" clip-path="url(#a11y-b)">
   <g class="contrast">
    <g class="color-container">
     <circle cx="4.3236" cy="2.74" r=".40388" fill="none" stroke="#000" stroke-dashoffset="16.97" stroke-linecap="round" stroke-width=".047238"/>
     <circle class="color" cx="4.3236" cy="2.74" r=".2797" fill="#ff9b9b"/>
    </g>
    <g class="contrast-small-fail">
     <path d="m4.3201 3.5015a0.355 0.355 0 1 0 3e-3 0z" fill="#fff"/>
     <path d="m4.3191 3.4295a0.427 0.427 0 0 0-0.423 0.427 0.427 0.427 0 0 0 0.427 0.427 0.427 0.427 0 0 0 0.428-0.427 0.427 0.427 0 0 0-0.428-0.427 0.427 0.427 0 0 0-4e-3 0zm-0.167 0.203 0.171 0.172 0.171-0.172 0.053 0.053-0.171 0.171 0.171 0.171-0.053 0.053-0.17-0.171-0.172 0.17-0.052-0.052 0.17-0.17-0.17-0.172z" fill="#ba115b"/>
    </g>
    <g class="contrast-large-fail">
     <path d="m4.3201 4.5795a0.355 0.355 0 1 0 3e-3 0z" fill="#fff"/>
     <path d="m4.3191 4.5075a0.427 0.427 0 0 0-0.423 0.427 0.427 0.427 0 0 0 0.427 0.428 0.427 0.427 0 0 0 0.428-0.428 0.427 0.427 0 0 0-0.428-0.427 0.427 0.427 0 0 0-4e-3 0zm-0.167 0.204 0.171 0.17 0.171-0.17 0.053 0.052-0.171 0.171 0.171 0.172-0.053 0.052-0.17-0.171-0.172 0.171-0.052-0.052 0.17-0.172-0.17-0.17z" fill="#ba115b"/>
    </g>
    <g font-family="sans-serif">
     <text x="1.5441886" y="4.2135415" font-size="1.029px" letter-spacing="0" stroke-width=".223" word-spacing="0" style="line-height:1.25"><tspan x="1.5441886" y="4.2135415" font-family="Ubuntu" font-weight="400" stroke-width=".05" style="font-variant-caps:normal;font-variant-east-asian:normal;font-variant-ligatures:normal;font-variant-numeric:normal">AA</tspan></text>
     <text x="1.5441886" y="5.3294997" font-size="1.029px" letter-spacing="0" stroke-width=".223" word-spacing="0" style="line-height:1.25"><tspan x="1.5441886" y="5.3294997" font-family="Ubuntu" font-weight="400" stroke-width=".05" style="font-variant-caps:normal;font-variant-east-asian:normal;font-variant-ligatures:normal;font-variant-numeric:normal">AAA</tspan></text>
     <text x="1.498546" y="3.0828896" font-size=".97954px" letter-spacing="0px" stroke-width=".056512" word-spacing="0px" style="line-height:1.25" xml:space="preserve"><tspan x="1.498546" y="3.0828896" font-family="Ubuntu" font-size=".97954px" stroke-width=".056512" style="font-variant-caps:normal;font-variant-east-asian:normal;font-variant-ligatures:normal;font-variant-numeric:normal">3.3</tspan></text>
    </g>
    <g class="contrast-large-success">
     <circle cx="4.3235" cy="4.9345" r=".4275" fill="#19ad19" style="paint-order:normal"/>
     <path class="sucess-check" d="m4.0757 4.9448 0.15047 0.15047 0.33794-0.33794" fill="none" stroke="#fff" stroke-dasharray="0.68999997" stroke-width=".075"/>
    </g>
    <g class="contrast-small-success">
     <circle cx="4.3235" cy="3.8565" r=".4275" fill="#19ad19" style="paint-order:normal"/>
     <path class="success-check" d="m4.0757 3.8668 0.15047 0.15047 0.33794-0.33794" fill="none" stroke="#fff" stroke-dasharray="0.69" stroke-width=".075"/>
    </g>
   </g>
   <g class="rgb">
    <text class="rgb-b" x="1.472146" y="5.3275061" fill="#0808d7" font-family="sans-serif" font-size="1.029px" letter-spacing="0" stroke-width=".223" word-spacing="0" style="line-height:1.25"><tspan x="1.472146" y="5.3275061" fill="#0808d7" font-family="Ubuntu" font-weight="400" stroke-width=".05" style="font-variant-caps:normal;font-variant-east-asian:normal;font-variant-ligatures:normal;font-variant-numeric:normal"><tspan font-family="Ubuntu" font-weight="500">B</tspan>lue</tspan></text>
    <text class="rgb-r" x="1.4762514" y="3.0808949" fill="#d20000" font-family="sans-serif" font-size=".97954px" letter-spacing="0px" stroke-width=".057" word-spacing="0px" style="line-height:1.25" xml:space="preserve"><tspan x="1.4762514" y="3.0808949" fill="#d20000" font-family="Ubuntu" font-size=".97954px" stroke-width=".057" style="font-variant-caps:normal;font-variant-east-asian:normal;font-variant-ligatures:normal;font-variant-numeric:normal"><tspan font-family="Ubuntu" font-weight="500" stroke-width=".057">R</tspan>ed</tspan></text>
    <path class="rgb-r-block" d="m1.2371 2.8006h2.2009" fill="none" stroke="#b3b3b3" stroke-linecap="round" stroke-width=".13"/>
    <text class="rgb-g" x="1.5009581" y="4.2115474" fill="#0c8e00" font-family="sans-serif" font-size="1.029px" letter-spacing="0" stroke-width=".223" word-spacing="0" style="line-height:1.25"><tspan x="1.5009581" y="4.2115474" fill="#0c8e00" font-family="Ubuntu" font-weight="400" stroke-width=".05" style="font-variant-caps:normal;font-variant-east-asian:normal;font-variant-ligatures:normal;font-variant-numeric:normal"><tspan font-family="Ubuntu" font-weight="500">G</tspan>reen</tspan></text>
    <path class="rgb-g-block" d="m1.2371 3.9159h3.34" fill="none" stroke="#b3b3b3" stroke-linecap="round" stroke-width=".13"/>
    <path class="rgb-b-block" d="m1.2371 5.0546h2.6467" fill="none" stroke="#b3b3b3" stroke-linecap="round" stroke-width=".13"/>
   </g>
  </g>
 </g>
</svg>
