<?xml version="1.0" encoding="UTF-8" standalone="no"?>
<svg
   xmlns:dc="http://purl.org/dc/elements/1.1/"
   xmlns:cc="http://creativecommons.org/ns#"
   xmlns:rdf="http://www.w3.org/1999/02/22-rdf-syntax-ns#"
   xmlns:svg="http://www.w3.org/2000/svg"
   xmlns="http://www.w3.org/2000/svg"
   xmlns:xlink="http://www.w3.org/1999/xlink"
   xmlns:sodipodi="http://sodipodi.sourceforge.net/DTD/sodipodi-0.dtd"
   xmlns:inkscape="http://www.inkscape.org/namespaces/inkscape"
   viewBox="0 0 9.413 7.684"
   version="1.1"
   id="svg62"
   sodipodi:docname="all-animations.svg"
   inkscape:version="1.0.2 (394de47547, 2021-03-26)"
   width="9.4130001"
   height="7.684">
  <metadata
     id="metadata68">
    <rdf:RDF>
      <cc:Work
         rdf:about="">
        <dc:format>image/svg+xml</dc:format>
        <dc:type
           rdf:resource="http://purl.org/dc/dcmitype/StillImage" />
        <dc:title></dc:title>
      </cc:Work>
    </rdf:RDF>
  </metadata>
  <defs
     id="defs66" />
  <sodipodi:namedview
     pagecolor="#ffffff"
     bordercolor="#666666"
     borderopacity="1"
     objecttolerance="10"
     gridtolerance="10"
     guidetolerance="10"
     inkscape:pageopacity="0"
     inkscape:pageshadow="2"
     inkscape:window-width="1920"
     inkscape:window-height="1016"
     id="namedview64"
     showgrid="false"
     inkscape:zoom="12.051683"
     inkscape:cx="-15.103661"
     inkscape:cy="13.322058"
     inkscape:window-x="0"
     inkscape:window-y="27"
     inkscape:window-maximized="1"
     inkscape:current-layer="svg62" />
  <g
     class="page"
     id="g36">
    <path
       d="m 0.466,0.696 l 8.48,-0.003 l 0.239,0.37 v 0.66 H 0.32 v -0.66 z"
       class="navbar-bg"
       fill="#5d8aff"
       paint-order="markers fill stroke"
       id="path2" />
    <path
       d="M 1.656,1.48 L 1.382,1.364 l 0.274,-0.46 l 0.273,0.46 z"
       class="logo"
       fill="#0030ab"
       paint-order="markers fill stroke"
       id="path4" />
    <rect
       width="0.94"
       height="0.18799999"
       x="7.1739998"
       y="1.156"
       ry="0.068000004"
       class="nav-link-2"
       fill="#0030ab"
       paint-order="markers fill stroke"
       id="rect6" />
    <rect
       width="0.94"
       height="0.18799999"
       x="5.7740002"
       y="1.156"
       ry="0.068000004"
       class="nav-link-1"
       fill="#0030ab"
       paint-order="markers fill stroke"
       id="rect8" />
    <rect
       width="0.94"
       height="0.18799999"
       x="4.3740001"
       y="1.156"
       ry="0.068000004"
       class="nav-link-0"
       fill="#0030ab"
       paint-order="markers fill stroke"
       id="rect10" />
    <g
       class="page-content-column-0"
       id="g16">
      <rect
         width="1.561"
         height="1.3049999"
         x="1.0700001"
         y="1.933"
         ry="0.032000002"
         fill="#ffd287"
         paint-order="markers fill stroke"
         id="rect12" />
      <path
         d="M 1.118,3.725 H 2.555 M 1.118,4.171 H 2.013 M 1.118,4.618 h 1.437"
         class="page-text"
         fill="none"
         stroke="#c9ccdf"
         stroke-width="0.159"
         id="path14" />
    </g>
    <g
       class="page-content-column-1"
       id="g22">
      <rect
         width="1.561"
         height="1.3049999"
         x="3.0610001"
         y="1.933"
         ry="0.032000002"
         fill="#77ffd1"
         paint-order="markers fill stroke"
         id="rect18" />
      <path
         d="M 3.082,3.725 H 4.046 M 3.082,4.171 H 4.519 M 3.082,4.618 h 1.437"
         class="page-text"
         fill="none"
         stroke="#c9ccdf"
         stroke-width="0.159"
         id="path20" />
    </g>
    <g
       class="page-content-column-2"
       id="g28">
      <rect
         width="1.561"
         height="1.3049999"
         x="5.053"
         y="1.933"
         ry="0.032000002"
         fill="#e881ff"
         paint-order="markers fill stroke"
         id="rect24" />
      <path
         d="M 5.096,3.725 H 6.533 M 5.096,4.171 H 6.533 M 5.096,4.618 h 0.817"
         class="page-text"
         fill="none"
         stroke="#c9ccdf"
         stroke-width="0.159"
         id="path26" />
    </g>
    <g
       class="page-chat"
       paint-order="markers fill stroke"
       id="g34">
      <rect
         width="1.561"
         height="3.536"
         x="6.9860001"
         y="1.933"
         ry="0.086000003"
         fill="#acc1ff"
         id="rect30" />
      <rect
         width="1.367"
         height="0.27200001"
         x="7.0760002"
         y="5.0630002"
         ry="0.0070000002"
         fill="#f9f9f9"
         id="rect32" />
    </g>
  </g>
  <g
     class="screen-container"
     id="g42">
    <rect
       width="5.099"
       height="3.1400001"
       x="2.4690001"
       y="1.8609999"
       ry="0.48300001"
       fill="none"
       stroke="#888f9b"
       stroke-width="0.253"
       stroke-linecap="round"
       stroke-linejoin="round"
       stroke-dashoffset="16.97"
       paint-order="markers fill stroke"
       id="rect38" />
    <path
       d="m 4.541,4.924 v 0.709 c 0,0 -0.017,0.117 -0.078,0.182 a 0.71,0.71 0 0 1 -0.22,0.119 h 1.551 c 0,0 -0.16,-0.055 -0.22,-0.12 A 0.39,0.39 0 0 1 5.496,5.633 V 4.924 Z"
       class="desktop-stand"
       fill="#888f9b"
       id="path40" />
  </g>
  <rect
     width="1.7460001"
     height="2.8299999"
     x="1.847"
     y="2.983"
     ry="0.28400001"
     class="mobile"
     fill="#25385b"
     stroke="#888f9b"
     stroke-width="0.251"
     stroke-linecap="round"
     stroke-linejoin="round"
     id="rect44" />
  <rect
     width="9.5450001"
     height="6.8559999"
     x="-0.066"
     y="5.934"
     ry="0"
     class="bg-hider"
     fill="#25385b"
     paint-order="markers fill stroke"
     id="rect46" />
  <g
     class="laptop-bottom"
     paint-order="markers fill stroke"
     id="g54">
    <rect
       width="8.7370005"
       height="0.55500001"
       x="0.338"
       y="5.934"
       ry="0.131"
       fill="#888f9b"
       id="rect50" />
    <rect
       width="1.368"
       height="0.193"
       x="4.0219998"
       y="-6.1269999"
       ry="0.046"
       transform="scale(1,-1)"
       fill="#545a64"
       id="rect52" />
  </g>
  <g
     class="latop-bottom"
     paint-order="markers fill stroke"
     id="g60">
    <path
       d="m 7.555,1.354 l 0.516,0.042 l 0.062,4.75 L 7.555,6.258 Z"
       fill="#888f9b"
       id="path56" />
    <circle
       cx="7.8790002"
       cy="3.724"
       r="0.178"
       fill="#545a64"
       id="circle58" />
  </g>
  <g
     id="g1495"
     transform="translate(-29.371086,-20.523595)">
    <g
       class="browser"
       transform="translate(-122.204,-441.435)"
       id="g1393">
      <path
         d="m 123.253,458.953 h 19.09 c 0.58,0 1.048,0.468 1.048,1.049 v 11.767 c 0,0.581 -0.468,1.049 -1.049,1.049 h -19.089 a 1.047,1.047 0 0 1 -1.049,-1.05 v -11.766 c 0,-0.581 0.468,-1.05 1.05,-1.05 z"
         fill="#ffffff"
         paint-order="markers fill stroke"
         id="path1359" />
      <path
         d="m 123.253,458.142 h 19.09 c 0.58,0 1.048,0.468 1.048,1.049 v 1.198 h -21.187 v -1.198 c 0,-0.581 0.468,-1.05 1.05,-1.05 z"
         fill="#333333"
         paint-order="markers fill stroke"
         id="path1361" />
      <circle
         cx="123.428"
         cy="459.33499"
         r="0.47400001"
         fill="#ff2a2a"
         paint-order="markers fill stroke"
         id="circle1363" />
      <circle
         cx="125.168"
         cy="459.33499"
         r="0.47400001"
         fill="#ffcc00"
         paint-order="markers fill stroke"
         id="circle1365" />
      <circle
         cx="126.907"
         cy="459.33499"
         r="0.47400001"
         fill="#00d400"
         paint-order="markers fill stroke"
         id="circle1367" />
      <g
         class="page"
         id="g1383">
        <path
           opacity="0.392"
           fill="#550000"
           paint-order="markers fill stroke"
           d="m 122.204,460.389 h 21.213 v 5.167 h -21.213 z"
           id="path1369" />
        <path
           d="m 125.905,466.48 h 14.174 m -14.174,1.273 h 12.117 m -12.117,1.273 h 12.74"
           fill="none"
           stroke="#808080"
           stroke-width="0.265"
           id="path1371" />
        <path
           opacity="0.392"
           fill="#550000"
           paint-order="markers fill stroke"
           d="m 125.869,469.845 h 2.851 v 1.708 h -2.851 z m 3.919,0 h 2.851 v 1.708 h -2.851 z"
           id="path1373" />
        <circle
           cx="131.465"
           cy="462.745"
           r="2.073"
           fill="#6d06ff"
           fill-opacity="0.579"
           paint-order="markers fill stroke"
           id="circle1375" />
        <circle
           cx="134.21201"
           cy="462.745"
           r="2.073"
           fill="#25ffc5"
           fill-opacity="0.546"
           paint-order="markers fill stroke"
           id="circle1377" />
        <path
           d="m 126.669,470.237 l 0.283,0.49 l 0.283,0.491 h -1.133 l 0.283,-0.49 z m 3.889,0.96 L 130.1,470.88 l -0.046,-0.555 l 0.504,-0.238 l 0.503,0.238 l -0.046,0.555 z"
           fill="#714c4c"
           paint-order="markers fill stroke"
           id="path1379" />
        <path
           d="m 125.905,472.273 h 4.965"
           fill="none"
           stroke="#808080"
           stroke-width="0.265"
           id="path1381" />
      </g>
      <g
         class="url-bar"
         id="g1391">
        <rect
           width="18.094"
           height="2.8970001"
           x="123.75"
           y="461.63501"
           ry="1.003"
           fill="#ffffff"
           stroke="#4d4d4d"
           stroke-width="0.297"
           stroke-linecap="round"
           stroke-linejoin="round"
           stroke-dashoffset="16.97"
           paint-order="markers fill stroke"
           id="rect1385" />
        <text
           style="line-height:1.25;-inkscape-font-specification:'Ubuntu, Normal';font-variant-ligatures:normal;font-variant-caps:normal;font-variant-numeric:normal;font-variant-east-asian:normal"
           x="125.697"
           y="463.884"
           font-weight="400"
           font-size="2.407px"
           font-family="Ubuntu"
           letter-spacing="0"
           word-spacing="0"
           id="text1389"><tspan
             x="125.697"
             y="463.884"
             style="-inkscape-font-specification:'Ubuntu, Normal';font-variant-ligatures:normal;font-variant-caps:normal;font-variant-numeric:normal;font-variant-east-asian:normal"
             id="tspan1387">www.foo.bar</tspan></text>
      </g>
    </g>
    <use
       xlink:href="#a"
       transform="translate(1.043,1.184)"
       width="100%"
       height="100%"
       class="file-img-2"
       stroke-width="1.014"
       id="use1395"
       x="0"
       y="0" />
    <g
       id="a"
       class="file-img-1"
       stroke-width="0.999">
      <path
         d="m 105.745,259.277 l -1.6,-1.825 a 0.293,0.293 0 0 0 -0.22,-0.1 h -4.04 a 0.339,0.339 0 0 0 -0.34,0.34 v 7.967 a 0.34,0.34 0 0 0 0.34,0.339 h 5.594 a 0.34,0.34 0 0 0 0.339,-0.34 v -6.188 a 0.293,0.293 0 0 0 -0.073,-0.193 z"
         stroke-width="0.264"
         transform="matrix(1.0015,0,0,1.0015,-91.16,-252.924)"
         id="path1397" />
      <path
         d="m 99.885,265.673 v -7.981 h 3.927 v 1.734 c 0,0.094 0.076,0.17 0.17,0.17 h 1.497 v 6.076 z"
         fill="#e580ff"
         stroke-width="0.264"
         transform="matrix(1.0015,0,0,1.0015,-91.16,-252.924)"
         id="path1399" />
      <path
         d="m 100.473,264.457 c -0.14,-0.039 -0.25,-0.18 -0.222,-0.326 v -3.593 c 0.054,-0.132 0.182,-0.244 0.33,-0.216 h 4.286 c 0.132,0.053 0.245,0.182 0.216,0.33 v 3.594 c -0.054,0.132 -0.182,0.244 -0.33,0.216 c -1.427,-10e-4 -2.854,0.008 -4.28,-0.005 z m 0.837,-1.72 c 0.232,-0.27 0.447,-0.556 0.69,-0.815 c 0.235,-0.166 0.402,0.142 0.55,0.279 c 0.17,0.155 0.297,0.382 0.513,0.473 c 0.209,-0.03 0.317,-0.342 0.548,-0.266 c 0.39,0.385 0.752,0.795 1.126,1.194 c 0,-0.92 0.012,-1.842 -0.004,-2.762 c 0.013,-0.197 -0.215,-0.176 -0.215,-0.176 c -1.141,0 -2.578,-0.011 -3.719,0.006 c -0.292,-0.05 -0.187,0.307 -0.207,0.48 c -0.002,0.817 -0.001,1.635 -0.001,2.453 c 0.24,-0.287 0.479,-0.577 0.718,-0.866 z m 2.44,-0.708 c -0.334,-0.077 -0.506,-0.515 -0.3,-0.792 c 0.178,-0.284 0.628,-0.305 0.828,-0.035 c 0.234,0.26 0.093,0.712 -0.234,0.814 a 0.494,0.494 0 0 1 -0.295,0.013 z"
         fill="#440055"
         transform="matrix(1.0015,0,0,1.0015,-91.16,-252.924)"
         id="path1401" />
    </g>
    <use
       xlink:href="#a"
       transform="translate(-1.043,-1.184)"
       width="100%"
       height="100%"
       class="file-img-0"
       stroke-width="1.014"
       id="use1404"
       x="0"
       y="0" />
    <g
       class="file-js"
       id="g1412">
      <path
         d="m 12.638,4.326 l -1.6,-1.824 a 0.293,0.293 0 0 0 -0.22,-0.1 h -4.04 a 0.339,0.339 0 0 0 -0.34,0.34 v 7.967 a 0.34,0.34 0 0 0 0.34,0.339 h 5.594 a 0.339,0.339 0 0 0 0.339,-0.34 V 4.52 A 0.293,0.293 0 0 0 12.638,4.327 Z"
         id="path1406" />
      <path
         d="m 6.778,10.722 v -7.98 h 3.927 v 1.734 c 0,0.093 0.076,0.17 0.17,0.17 h 1.497 v 6.076 z"
         fill="#f5de19"
         id="path1408" />
      <path
         d="m 9.803,8.526 a 0.694,0.694 0 0 0 0.63,0.387 c 0.263,0 0.432,-0.132 0.432,-0.315 c 0,-0.218 -0.173,-0.296 -0.464,-0.423 L 10.241,8.107 C 9.781,7.911 9.476,7.665 9.476,7.147 c 0,-0.478 0.364,-0.842 0.934,-0.842 a 0.942,0.942 0 0 1 0.906,0.51 L 10.818,7.134 A 0.433,0.433 0 0 0 10.408,6.86 a 0.277,0.277 0 0 0 -0.304,0.274 c 0,0.19 0.118,0.268 0.392,0.387 l 0.16,0.068 c 0.54,0.233 0.847,0.47 0.847,1.002 c 0,0.574 -0.45,0.888 -1.056,0.888 A 1.225,1.225 0 0 1 9.285,8.827 Z M 7.55,8.58 c 0.1,0.177 0.191,0.328 0.41,0.328 c 0.21,0 0.342,-0.082 0.342,-0.4 V 6.34 h 0.637 v 2.176 c 0,0.66 -0.388,0.96 -0.952,0.96 A 0.99,0.99 0 0 1 7.031,8.895 Z"
         id="path1410" />
    </g>
    <g
       class="file-css"
       id="g1420">
      <path
         d="M 11.58,3.125 L 9.98,1.301 A 0.293,0.293 0 0 0 9.76,1.201 H 5.72 a 0.339,0.339 0 0 0 -0.34,0.34 v 7.966 c 0,0.188 0.152,0.34 0.34,0.34 h 5.593 a 0.34,0.34 0 0 0 0.34,-0.34 V 3.318 A 0.293,0.293 0 0 0 11.58,3.125 Z"
         id="path1414" />
      <path
         d="m 5.72,9.521 v -7.98 h 3.926 v 1.734 c 0,0.093 0.076,0.17 0.17,0.17 h 1.497 V 9.52 Z"
         fill="#1572b6"
         id="path1416" />
      <path
         d="m 6.9,4.358 l 0.017,0.183 l 0.03,0.346 L 6.961,5.04 H 9.572 L 9.51,5.74 H 7.797 L 7.812,5.922 L 7.843,6.268 L 7.857,6.421 H 9.449 L 9.369,7.306 L 8.609,7.511 L 7.849,7.306 L 7.8,6.762 H 7.115 l 0.096,1.071 l 1.397,0.388 h 0.003 l 1.396,-0.388 l 0.01,-0.115 l 0.117,-1.297 l 0.167,-1.88 L 10.318,4.358 H 8.607 Z"
         fill="#ffffff"
         id="path1418" />
    </g>
    <g
       class="file-html"
       id="g1428">
      <path
         d="M 10.521,1.924 L 8.921,0.1 A 0.293,0.293 0 0 0 8.701,0 h -4.04 a 0.339,0.339 0 0 0 -0.34,0.339 v 7.967 c 0,0.188 0.153,0.34 0.34,0.34 h 5.594 a 0.34,0.34 0 0 0 0.339,-0.34 V 2.117 A 0.293,0.293 0 0 0 10.521,1.924 Z"
         id="path1422" />
      <path
         d="M 4.66,8.32 V 0.339 h 3.928 v 1.735 c 0,0.093 0.076,0.17 0.17,0.17 h 1.497 V 8.32 Z"
         fill="#e44f26"
         id="path1424" />
      <path
         d="m 5.828,3.752 l 0.016,0.173 l 0.158,1.773 h 2.23 L 8.157,6.533 L 7.442,6.726 H 7.439 L 6.722,6.533 L 6.676,6.02 H 6.031 l 0.09,1.01 L 7.439,7.396 H 7.442 L 8.759,7.03 L 8.769,6.922 L 8.92,5.228 L 8.935,5.055 H 6.591 L 6.532,4.395 H 8.994 L 9.007,4.251 L 9.037,3.925 L 9.052,3.752 H 7.44 Z"
         fill="#ffffff"
         id="path1426" />
    </g>
    <g
       class="percent"
       transform="translate(-122.204,-441.435)"
       id="g1436">
      <circle
         transform="rotate(-90)"
         cx="-472.21201"
         cy="142.271"
         r="4.8509998"
         fill="#afe9af"
         paint-order="markers fill stroke"
         id="circle1430" />
      <circle
         transform="rotate(-90)"
         r="4.8509998"
         cy="142.271"
         cx="-472.21201"
         class="percent-progress-bar"
         fill="none"
         stroke="#008000"
         stroke-width="1.126"
         stroke-linecap="round"
         stroke-linejoin="round"
         stroke-dashoffset="16.97"
         paint-order="markers fill stroke"
         id="circle1432" />
      <path
         d="m 138.977,473.315 h 0.632 v -2.183 l -0.688,0.138 v -0.352 l 0.684,-0.138 h 0.387 v 2.535 h 0.633 v 0.326 h -1.648 z m 3.259,-2.28 q -0.299,0 -0.45,0.295 q -0.15,0.293 -0.15,0.883 q 0,0.589 0.15,0.884 q 0.151,0.293 0.45,0.293 q 0.301,0 0.45,-0.293 q 0.152,-0.295 0.152,-0.884 q 0,-0.59 -0.151,-0.883 q -0.15,-0.295 -0.45,-0.295 z m 0,-0.307 q 0.481,0 0.734,0.381 q 0.255,0.38 0.255,1.104 q 0,0.723 -0.255,1.104 q -0.253,0.38 -0.734,0.38 q -0.48,0 -0.735,-0.38 q -0.253,-0.381 -0.253,-1.104 q 0,-0.724 0.253,-1.104 q 0.254,-0.381 0.735,-0.381 z m 2.499,0.307 q -0.298,0 -0.45,0.295 q -0.15,0.293 -0.15,0.883 q 0,0.589 0.15,0.884 q 0.152,0.293 0.45,0.293 q 0.301,0 0.45,-0.293 q 0.152,-0.295 0.152,-0.884 q 0,-0.59 -0.151,-0.883 q -0.15,-0.295 -0.45,-0.295 z m 0,-0.307 q 0.481,0 0.734,0.381 q 0.255,0.38 0.255,1.104 q 0,0.723 -0.255,1.104 q -0.252,0.38 -0.734,0.38 q -0.48,0 -0.735,-0.38 q -0.253,-0.381 -0.253,-1.104 q 0,-0.724 0.253,-1.104 q 0.254,-0.381 0.735,-0.381 z"
         aria-label="100"
         fill="#008000"
         id="path1434" />
    </g>
    <g
       class="result"
       id="g1442">
      <path
         d="m 20.023,26.059 a 4.718,4.718 0 1 0 0.043,0 z"
         fill="#ffffff"
         id="path1438" />
      <path
         fill="#008000"
         d="m 20.017,25.362 a 5.414,5.414 0 0 0 -5.365,5.415 a 5.414,5.414 0 0 0 5.414,5.414 a 5.414,5.414 0 0 0 5.415,-5.414 a 5.414,5.414 0 0 0 -5.415,-5.415 a 5.414,5.414 0 0 0 -0.049,0 z m 2.851,2.773 l 0.665,0.666 l -3.951,3.95 l -0.665,0.666 l -0.003,0.002 c -0.22,-0.221 -0.45,-0.446 -0.662,-0.667 L 16.6,31.099 l 0.664,-0.665 l 1.653,1.652 z"
         id="path1440" />
    </g>
  </g>
  <g
     id="g1613"
     transform="translate(11.249414,-11.019715)">
    <g
       class="card"
       id="g1523">
      <path
         d="m 10.853,1.455 h 19.09 c 0.58,0 1.048,0.468 1.048,1.049 v 11.767 c 0,0.581 -0.468,1.049 -1.049,1.049 H 10.853 A 1.047,1.047 0 0 1 9.804,14.271 V 2.504 c 0,-0.581 0.468,-1.049 1.05,-1.049 z"
         fill="#ffffff"
         paint-order="markers fill stroke"
         id="path1497" />
      <path
         d="m 12.986,5.643 h 0.78 v 2.364 h 2.835 V 5.643 h 0.78 v 5.766 h -0.78 V 8.663 h -2.835 v 2.746 h -0.78 z m 5.917,1.441 h 0.71 v 4.325 h -0.71 z m 0,-1.684 h 0.71 v 0.9 h -0.71 z"
         aria-label="Hi"
         fill="#8d8d8d"
         id="path1499" />
      <path
         d="M 25.601,15.292 V 3.68"
         fill="none"
         stroke="#008000"
         stroke-width="0.265"
         id="path1501" />
      <g
         paint-order="markers fill stroke"
         id="g1507">
        <path
           d="m 23.265,6.968 c 0,0 0.505,1.137 1.115,1.747 c 0.61,0.61 0.92,0.636 1.094,0.461 z"
           fill="#8fff8f"
           id="path1503" />
        <path
           d="m 23.265,6.968 c 0,0 1.137,0.505 1.747,1.115 c 0.61,0.61 0.636,0.919 0.462,1.093 z"
           fill="#008000"
           id="path1505" />
      </g>
      <g
         stroke-width="0.912"
         paint-order="markers fill stroke"
         id="g1513">
        <path
           d="m 28.16,9.25 c 0,0 -0.555,1.247 -1.224,1.916 c -0.669,0.67 -1.008,0.698 -1.2,0.507 z"
           fill="#8fff8f"
           id="path1509" />
        <path
           d="m 28.16,9.25 c 0,0 -1.248,0.554 -1.917,1.223 c -0.669,0.67 -0.698,1.008 -0.506,1.2 z"
           fill="#008000"
           id="path1511" />
      </g>
      <g
         paint-order="markers fill stroke"
         id="g1519">
        <path
           d="m 25.65,2.833 c 0,0 -0.903,0.82 -0.903,2.563 c 0,1.742 0.404,1.765 0.903,1.765 c 0.499,0 0.903,-0.023 0.903,-1.765 c 0,-1.743 -0.903,-2.563 -0.903,-2.563 z"
           fill="#ff2d79"
           id="path1515" />
        <path
           d="m 24.89,4.437 c 0,0 -0.143,-0.784 -0.143,0.959 c 0,1.742 0.404,1.765 0.903,1.765 C 26.701,7.067 25.02,5.311 24.89,4.437 Z"
           fill="#d42100"
           id="path1517" />
      </g>
      <path
         d="m 30.282,3.498 a 1.311,1.311 0 1 1 -2.622,0 a 1.311,1.311 0 0 1 2.622,0 z"
         fill="#5858ff"
         paint-order="markers fill stroke"
         id="path1521" />
    </g>
    <path
       d="M 1.185,0.232 A 0.95,0.95 0 0 0 0.233,1.184 V 15.63 a 0.95,0.95 0 0 0 0.952,0.952 H 16.939 A 0.95,0.95 0 0 0 17.891,15.63 V 11.269 L 22.438,8.643 L 17.891,6.018 V 1.184 A 0.95,0.95 0 0 0 16.939,0.232 Z"
       fill="#ffffff"
       stroke="#000000"
       stroke-width="0.465"
       stroke-linecap="round"
       stroke-linejoin="round"
       stroke-dashoffset="16.97"
       paint-order="markers fill stroke"
       id="path1525" />
    <g
       id="a-3"
       class="contrast-small-fail"
       stroke-width="1.468">
      <path
         fill="#ffffff"
         d="m 4.057,0.688 a 3.4,3.4 0 1 0 0.03,0 z"
         transform="matrix(0.46922,0,0,0.46922,12.882,6.319)"
         id="path1527" />
      <path
         d="M 4.05,0 A 4.088,4.088 0 0 0 0,4.088 A 4.088,4.088 0 0 0 4.088,8.175 A 4.088,4.088 0 0 0 8.175,4.088 A 4.088,4.088 0 0 0 4.088,0 A 4.088,4.088 0 0 0 4.05,0 Z M 2.45,1.948 L 4.088,3.586 L 5.725,1.948 L 6.227,2.45 L 4.589,4.088 L 6.227,5.725 L 5.725,6.227 L 4.088,4.59 L 2.45,6.227 L 1.948,5.725 L 3.586,4.088 L 1.948,2.45 Z"
         fill="#ba115b"
         transform="matrix(0.46922,0,0,0.46922,12.882,6.319)"
         id="path1529" />
    </g>
    <g
       id="b"
       class="contrast-small-success"
       stroke-width="1.481">
      <path
         d="m 4.072,0.528 a 3.577,3.577 0 1 0 0.033,0 z"
         fill="#ffffff"
         transform="matrix(0.4672,0,0,0.4672,12.882,6.319)"
         id="path1532" />
      <path
         fill="#19ad19"
         d="M 4.068,0 A 4.105,4.105 0 0 0 0,4.105 A 4.105,4.105 0 0 0 4.105,8.21 A 4.105,4.105 0 0 0 8.21,4.105 A 4.105,4.105 0 0 0 4.105,0 A 4.105,4.105 0 0 0 4.068,0 Z M 6.229,2.102 L 6.734,2.607 L 3.738,5.602 L 3.234,6.106 L 3.232,6.108 C 3.065,5.94 2.89,5.77 2.729,5.602 L 1.477,4.35 L 1.98,3.846 l 1.254,1.253 z"
         transform="matrix(0.4672,0,0,0.4672,12.882,6.319)"
         id="path1534" />
    </g>
    <use
       xlink:href="#a-3"
       transform="translate(0,4.839)"
       width="100%"
       height="100%"
       class="contrast-large-fail"
       id="use1537"
       x="0"
       y="0" />
    <use
       xlink:href="#b"
       transform="translate(0,4.839)"
       width="100%"
       height="100%"
       class="contrast-large-success"
       id="use1539"
       x="0"
       y="0" />
    <text
       style="line-height:1.25"
       x="2.3670001"
       y="9.6479998"
       font-size="4.619px"
       font-family="sans-serif"
       letter-spacing="0"
       word-spacing="0"
       id="text1543"><tspan
         x="2.3670001"
         y="9.6479998"
         style="-inkscape-font-specification:'Ubuntu, Normal';font-variant-ligatures:normal;font-variant-caps:normal;font-variant-numeric:normal;font-variant-east-asian:normal"
         font-weight="400"
         font-family="Ubuntu"
         id="tspan1541">AA</tspan></text>
    <text
       style="line-height:1.25"
       x="2.3670001"
       y="14.847"
       font-size="4.619px"
       font-family="sans-serif"
       letter-spacing="0"
       word-spacing="0"
       id="text1547"><tspan
         x="2.3670001"
         y="14.847"
         style="-inkscape-font-specification:'Ubuntu, Normal';font-variant-ligatures:normal;font-variant-caps:normal;font-variant-numeric:normal;font-variant-east-asian:normal"
         font-weight="400"
         font-family="Ubuntu"
         id="tspan1545">AAA</tspan></text>
    <g
       class="rgb"
       transform="translate(-265.66,-337.842)"
       id="g1566">
      <rect
         width="14.524"
         height="5.1360002"
         x="267.51999"
         y="339.01801"
         ry="1.021"
         fill="#ffffff"
         paint-order="markers fill stroke"
         id="rect1549" />
      <text
         x="269.53699"
         y="343.36301"
         id="text1559"><tspan
           x="269.53699"
           y="343.36301"
           style="-inkscape-font-specification:'Ubuntu, Normal';font-variant-ligatures:normal;font-variant-caps:normal;font-variant-numeric:normal;font-variant-east-asian:normal"
           font-weight="400"
           font-size="5.276px"
           font-family="Ubuntu"
           id="tspan1557"><tspan
             class="rgb-r"
             fill="#d20000"
             id="tspan1551">R</tspan><tspan
             class="rgb-g"
             fill="#0d9c00"
             id="tspan1553">G</tspan><tspan
             class="rgb-b"
             fill="#0000d6"
             id="tspan1555">B</tspan></tspan></text>
      <use
         xlink:href="#c"
         transform="translate(3.456)"
         width="100%"
         height="100%"
         class="block-g"
         id="use1561"
         x="0"
         y="0" />
      <path
         d="m 271.203,340.116 a 1.49,1.49 0 0 0 -1.487,1.486 a 1.49,1.49 0 0 0 1.487,1.487 a 1.49,1.49 0 0 0 1.486,-1.487 a 1.49,1.49 0 0 0 -1.486,-1.486 z m -1.19,1.486 c 0,-0.654 0.536,-1.189 1.19,-1.189 c 0.267,0 0.52,0.09 0.728,0.253 l -1.665,1.665 a 1.171,1.171 0 0 1 -0.252,-0.729 z m 1.19,1.19 c -0.268,0 -0.52,-0.09 -0.729,-0.253 l 1.665,-1.665 c 0.164,0.208 0.253,0.46 0.253,0.728 c 0,0.654 -0.535,1.19 -1.19,1.19 z"
         id="c"
         class="block-r"
         fill="#000000"
         fill-rule="evenodd"
         stroke="none"
         stroke-width="0.265" />
      <use
         xlink:href="#c"
         transform="translate(6.911)"
         width="100%"
         height="100%"
         class="block-b"
         id="use1564"
         x="0"
         y="0" />
    </g>
  </g>
  <g
     inkscape:label="Layer 1"
     id="layer1"
     transform="matrix(0.15664349,0,0,0.15688247,1.8506939,14.711292)"
     style="stroke-width:24.1098">
    <path
       style="fill:#888f9b;fill-opacity:1;stroke:none;stroke-width:6.37906px;stroke-linecap:butt;stroke-linejoin:miter;stroke-opacity:1"
       d="m 20.75073,42.36356 c 0,0 2.42592,-4.73192 2.96633,-18.08703 l 17.63347,3.19337 l 0.01781,-1.65587 L 24.0202,15.91007 l -0.15634,-9.8676 c 0,0 -0.61834,-4.15413 -2.58266,-5.71104 c -0.38655,-0.28305 -0.66935,-0.2474 -1.06093,0 C 18.25594,1.88834 17.6376,6.04247 17.6376,6.04247 l -0.15634,9.8676 L 0.13312,25.81403 L 0.15094,27.4699 L 17.7844,24.27653 c 0.54041,13.35511 2.96633,18.08703 2.96633,18.08703"
       id="path2727"
       sodipodi:nodetypes="cccccccccccccc" />
    <path
       style="fill:#888f9b;fill-opacity:1;stroke:none;stroke-width:5.63019px;stroke-linecap:butt;stroke-linejoin:miter;stroke-opacity:1"
       d="M 30.98514,40.61521 V 38.20133 L 20.75073,34.65669 l -10.1967,3.54464 l -10e-6,2.45337 l 10.19671,-1.62848 z"
       id="path2729"
       sodipodi:nodetypes="ccccccc" />
    <rect
       style="fill:#888f9b;fill-opacity:1;stroke:none;stroke-width:4.26616;stroke-linecap:round;stroke-linejoin:round;stroke-miterlimit:4;stroke-dasharray:none;stroke-opacity:1"
       id="rect2731"
       width="3.0235422"
       height="4.8921947"
       x="26.379564"
       y="15.126271"
       ry="0.78612125" />
    <rect
       style="fill:#888f9b;fill-opacity:1;stroke:none;stroke-width:4.26616;stroke-linecap:round;stroke-linejoin:round;stroke-miterlimit:4;stroke-dasharray:none;stroke-opacity:1"
       id="rect2733"
       width="3.0235422"
       height="4.8921947"
       x="31.000475"
       y="17.448965"
       ry="0.78612125" />
    <rect
       style="fill:#888f9b;fill-opacity:1;stroke:none;stroke-width:4.26616;stroke-linecap:round;stroke-linejoin:round;stroke-miterlimit:4;stroke-dasharray:none;stroke-opacity:1"
       id="rect2735"
       width="3.0235422"
       height="4.8921947"
       x="-15.215318"
       y="15.126271"
       ry="0.78612125"
       transform="scale(-1,1)" />
    <rect
       style="fill:#888f9b;fill-opacity:1;stroke:none;stroke-width:4.26616;stroke-linecap:round;stroke-linejoin:round;stroke-miterlimit:4;stroke-dasharray:none;stroke-opacity:1"
       id="rect2737"
       width="3.0235422"
       height="4.8921947"
       x="-10.594407"
       y="17.448965"
       ry="0.78612125"
       transform="scale(-1,1)" />
    <path
       id="path2739"
       style="fill:#888f9b;fill-opacity:1;stroke:none;stroke-width:4.82197;stroke-linecap:round;stroke-linejoin:round;stroke-miterlimit:4;stroke-dasharray:none;stroke-opacity:1"
       d="M 6.80307,28.02654 A 0.81846284,0.81846284 0 0 0 5.98452,28.8451 a 0.81846284,0.81846284 0 0 0 0.00466,0.08319 L 6.67286,40.82525 L 7.61182,28.97222 A 0.81846284,0.81846284 0 0 0 7.62163,28.8451 A 0.81846284,0.81846284 0 0 0 6.80307,28.02654 Z" />
    <path
       id="path2741"
       style="fill:#888f9b;fill-opacity:1;stroke:none;stroke-width:4.82197;stroke-linecap:round;stroke-linejoin:round;stroke-miterlimit:4;stroke-dasharray:none;stroke-opacity:1"
       d="m 1.16701,30.56813 a 0.81846284,0.81846284 0 0 0 -0.81855,0.81856 a 0.81846284,0.81846284 0 0 0 0.00466,0.08319 L 1.0368,43.36684 L 1.97576,31.51381 A 0.81846284,0.81846284 0 0 0 1.98557,31.38669 A 0.81846284,0.81846284 0 0 0 1.16701,30.56813 Z" />
    <path
       id="path2743"
       style="fill:#888f9b;fill-opacity:1;stroke:none;stroke-width:4.82197;stroke-linecap:round;stroke-linejoin:round;stroke-miterlimit:4;stroke-dasharray:none;stroke-opacity:1"
       d="m 35.3754,28.02654 a 0.81846284,0.81846284 0 0 0 -0.81855,0.81856 a 0.81846284,0.81846284 0 0 0 0.0047,0.08319 l 0.68368,11.89696 l 0.93896,-11.85303 a 0.81846284,0.81846284 0 0 0 0.0098,-0.12712 A 0.81846284,0.81846284 0 0 0 35.3754,28.02654 Z" />
    <path
       id="path2745"
       style="fill:#888f9b;fill-opacity:1;stroke:none;stroke-width:4.82197;stroke-linecap:round;stroke-linejoin:round;stroke-miterlimit:4;stroke-dasharray:none;stroke-opacity:1"
       d="m 40.57513,30.56813 a 0.81846284,0.81846284 0 0 0 -0.81855,0.81856 a 0.81846284,0.81846284 0 0 0 0.0047,0.08319 l 0.68368,11.89696 l 0.93896,-11.85303 a 0.81846284,0.81846284 0 0 0 0.0098,-0.12712 a 0.81846284,0.81846284 0 0 0 -0.81856,-0.81856 z" />
  </g>
  <g
     inkscape:label="Layer 1"
     id="layer1-6"
     transform="matrix(1.1926819,0,0,1.1926819,7.6117447,18.846043)"
     style="stroke-width:3.16893">
    <path
       style="fill:#888f9b;fill-opacity:1;stroke-width:0.0820364"
       d="M 2.82774,1.49004 C 3.40512,1.21054 3.42935,0.39556 2.86966,0.08022 C 2.74144,0.00797 2.59491,0 2.50723,0 C 2.41287,0 2.27302,0.00797 2.1448,0.08022 C 1.89803,0.21925 1.7306,0.5023 1.7306,0.78042 c 0,0.31936 0.24219,0.64882 0.55123,0.74985 c 0.1486,0.04858 0.40084,0.02999 0.54591,-0.04023 z"
       id="path2755" />
    <path
       style="fill:#888f9b;fill-opacity:1;stroke-width:0.0820364"
       d="M 1.85796,6.15906 C 1.92284,6.10446 1.95644,6.03161 2.04,5.76427 C 2.15974,5.3812 2.27871,4.91428 2.36695,4.48115 C 2.4292,4.17554 2.45837,4.10321 2.51933,4.10321 c 0.07212,0 0.11559,0.11523 0.21972,0.58247 c 0.11624,0.5216 0.31172,1.23904 0.37529,1.37736 C 3.19048,6.22871 3.42416,6.2719 3.559,6.14523 C 3.65698,6.05317 3.65976,5.95194 3.57212,5.66651 C 3.29671,4.76952 3.12722,3.88832 3.07651,3.08974 C 3.043,2.56214 3.05968,2.44357 3.17567,2.38479 C 3.21382,2.36545 3.37318,2.34168 3.5298,2.33194 C 4.17557,2.29182 4.81013,2.20639 4.90007,2.14747 C 5.11082,2.00938 5.01512,1.64617 4.76753,1.64445 C 4.72214,1.64413 4.5008,1.66678 4.27567,1.69477 C 3.21336,1.82687 1.85368,1.833 0.60448,1.71131 C 0.20904,1.67279 0.11921,1.68824 0.04664,1.80726 C -0.07075,1.99978 0.04302,2.21399 0.28088,2.24828 c 0.1903,0.02744 1.07849,0.09456 1.25129,0.09456 c 0.19629,0 0.31722,0.03275 0.39673,0.10744 C 1.98501,2.503 1.98947,2.52735 1.98939,2.78097 C 1.98916,3.49537 1.82926,4.46101 1.55659,5.3947 C 1.42919,5.83097 1.39907,6.0332 1.45191,6.09775 c 0.11571,0.14138 0.2812,0.16636 0.40605,0.06131 z"
       id="path2757" />
  </g>
  <rect
     style="fill:#25385b;fill-opacity:1;stroke:none;stroke-width:3.77953;stroke-linecap:round;stroke-linejoin:round;stroke-dashoffset:16.9701;paint-order:markers fill stroke"
     id="rect1805"
     width="9.4130001"
     height="7.684"
     x="-6.3310003"
     y="-3.9590001" />
</svg>
