<?xml version="1.0" encoding="UTF-8"?>
<svg version="1.1" viewBox="0 0 9.413 7.684" xmlns="http://www.w3.org/2000/svg" xmlns:xlink="http://www.w3.org/1999/xlink">
 <defs>
  <linearGradient id="perf-a">
   <stop stop-color="#629bff" offset="0"/>
   <stop stop-color="#003eaa" stop-opacity=".996" offset="1"/>
  </linearGradient>
  <linearGradient id="perf-l">
   <stop stop-color="#0056eb" offset="0"/>
   <stop stop-color="#0a55db" offset=".77"/>
   <stop stop-color="#3c7ff4" offset=".807"/>
   <stop stop-color="#1263f1" offset=".839"/>
   <stop stop-color="#0b2be8" offset=".954"/>
   <stop stop-color="#3880ff" offset="1"/>
  </linearGradient>
  <linearGradient id="perf-k" x1="121.51" x2="121.51" y1="387.75" y2="377.14" gradientTransform="matrix(.24306 0 0 .24306 -24.461 -87.63)" gradientUnits="userSpaceOnUse" xlink:href="#perf-l"/>
  <linearGradient id="perf-f" x1="129.93" x2="128.41" y1="378.78" y2="377.34" gradientTransform="matrix(.24306 0 0 .24306 -24.461 -87.533)" gradientUnits="userSpaceOnUse">
   <stop stop-color="#d60000" offset="0"/>
   <stop stop-color="#ff8989" offset="1"/>
  </linearGradient>
  <linearGradient id="perf-e" x1="126" x2="127.02" y1="377.5" y2="378.73" gradientTransform="matrix(.24306 0 0 .24306 -25.093 -87.533)" gradientUnits="userSpaceOnUse" xlink:href="#perf-a"/>
  <linearGradient id="perf-c" x1="126" x2="127.02" y1="377.5" y2="378.73" gradientTransform="matrix(.24306 0 0 .24306 -24.442 -87.533)" gradientUnits="userSpaceOnUse" xlink:href="#perf-a"/>
  <linearGradient id="perf-m" x1="2.132" x2="7.1213" y1="4.7515" y2="4.7515" gradientTransform="translate(0 .04851)" gradientUnits="userSpaceOnUse">
   <stop stop-color="#f75eff" offset="0"/>
   <stop stop-color="#4031ff" offset="1"/>
  </linearGradient>
  <clipPath id="perf-n">
   <path d="m2.132 4.625h5.151v0.52575h-5.151z" fill="#fff"/>
  </clipPath>
 </defs>
 <g class="files">
  <g class="file-img-2">
   <path d="M4.98.861L4.837.697a.026.026 0 00-.02-.009h-.363a.03.03 0 00-.03.03v.716a.03.03 0 00.03.03h.502a.03.03 0 00.03-.03V.878A.026.026 0 004.98.861z"/>
   <path d="M4.454 1.436V.719h.353v.156c0 .008.006.014.015.014h.134v.547z" fill="#e580ff"/>
   <path d="M4.507 1.326c-.013-.003-.022-.016-.02-.03V.975c.005-.012.016-.022.03-.019h.385c.011.005.022.016.019.03v.323c-.005.011-.017.022-.03.019h-.384zm.075-.154c.02-.024.04-.05.062-.073.021-.015.036.013.05.025.015.014.026.034.045.042.019-.002.029-.03.05-.024.035.035.067.072.1.108 0-.083.002-.166 0-.248C4.89.984 4.87.986 4.87.986h-.334c-.026-.004-.017.028-.019.043v.22l.065-.077zm.22-.064c-.031-.007-.046-.046-.028-.071.016-.025.057-.027.074-.003.021.023.009.064-.02.073a.044.044 0 01-.027.001z" fill="#405"/>
  </g>
  <g class="file-img-1">
   <path d="M4.98.861L4.836.697a.026.026 0 00-.02-.009h-.362a.03.03 0 00-.03.03v.716a.03.03 0 00.03.03h.502a.03.03 0 00.03-.03V.88A.026.026 0 004.98.86z"/>
   <path d="M4.454 1.436V.719h.352v.156c0 .008.007.015.016.015h.134v.546z" fill="#e580ff"/>
   <path d="M4.507 1.326c-.013-.003-.023-.016-.02-.029V.974c.005-.012.016-.021.029-.019H4.9c.012.005.022.016.02.03v.323c-.005.011-.017.022-.03.02-.128 0-.256 0-.384-.002zm.075-.154c.02-.024.04-.05.062-.073.02-.015.036.013.049.025.015.014.027.034.046.042.019-.002.029-.03.05-.023.034.034.067.07.1.107v-.248C4.89.984 4.87.986 4.87.986h-.333c-.026-.004-.017.028-.019.043v.22zm.219-.064c-.03-.006-.046-.046-.027-.07.016-.026.056-.028.074-.004.021.023.008.064-.02.073a.044.044 0 01-.027.001z" fill="#405"/>
  </g>
  <g class="file-img-0">
   <path d="M4.98.861L4.836.697a.026.026 0 00-.02-.009h-.362a.03.03 0 00-.03.03v.717a.03.03 0 00.03.03h.502a.03.03 0 00.03-.03V.878A.026.026 0 004.98.86z"/>
   <path d="M4.454 1.436V.719h.352v.155c0 .009.007.016.015.016h.135v.546z" fill="#e580ff"/>
   <path d="M4.506 1.327c-.012-.004-.022-.017-.02-.03V.974c.005-.011.017-.022.03-.02h.386c.011.006.022.017.019.03v.323c-.005.012-.017.022-.03.02h-.384zm.076-.155c.02-.024.04-.05.062-.073.02-.015.036.012.049.025.015.014.027.034.046.042.019-.003.029-.03.05-.024l.1.107v-.248c.001-.017-.02-.015-.02-.015h-.334c-.025-.004-.016.028-.018.043v.22zm.219-.064c-.03-.007-.046-.046-.027-.07.016-.027.056-.028.074-.004.021.023.008.064-.021.073a.044.044 0 01-.027.001z" fill="#405"/>
  </g>
  <g class="file-js">
   <path d="M4.98.861L4.836.698a.026.026 0 00-.02-.01h-.362a.03.03 0 00-.03.031v.715a.03.03 0 00.03.03h.502a.03.03 0 00.03-.03V.879A.026.026 0 004.98.862z"/>
   <path d="M4.454 1.435V.719h.352v.156c0 .008.007.015.016.015h.134v.545z" fill="#f5de19"/>
   <path d="M4.725 1.238a.062.062 0 00.057.035c.024 0 .039-.012.039-.028 0-.02-.016-.027-.042-.038L4.765 1.2c-.041-.017-.069-.04-.069-.086 0-.042.033-.075.084-.075a.085.085 0 01.081.045l-.044.03a.039.039 0 00-.037-.026.025.025 0 00-.028.025c0 .017.011.024.035.035l.015.006c.048.02.076.042.076.09 0 .052-.04.08-.095.08a.11.11 0 01-.104-.06zm-.202.005c.01.016.018.03.037.03s.03-.008.03-.037v-.194h.058v.195c0 .06-.035.086-.085.086a.089.089 0 01-.086-.052z"/>
  </g>
  <g class="file-css">
   <path d="M4.98.861L4.836.698a.026.026 0 00-.02-.009h-.362a.03.03 0 00-.03.03v.715c0 .016.013.03.03.03h.502a.03.03 0 00.03-.03V.879A.026.026 0 004.98.86z"/>
   <path d="M4.454 1.435V.719h.352v.156c0 .008.007.015.015.015h.135v.545z" fill="#1572b6"/>
   <path d="M4.56.972l.002.016.002.031.001.014H4.8l-.006.063H4.64l.002.016.003.031v.014h.144l-.008.08-.068.018-.068-.019-.004-.049h-.062l.009.096.125.035.126-.034v-.01l.01-.117.016-.169.001-.016h-.153z" fill="#fff"/>
  </g>
  <g class="file-html">
   <path d="M4.98.862L4.836.698a.026.026 0 00-.02-.01h-.362a.03.03 0 00-.03.031v.715c0 .017.013.03.03.03h.502a.03.03 0 00.03-.03V.879A.026.026 0 004.98.862z"/>
   <path d="M4.454 1.436V.72h.352v.155c0 .008.007.015.016.015h.134v.546z" fill="#e44f26"/>
   <path d="M4.559 1.026l.001.015.014.159h.2l-.006.075-.064.018-.065-.018-.004-.046h-.058l.008.09.118.034.119-.033v-.01l.014-.152.001-.015h-.21l-.005-.06h.22l.002-.013.003-.03v-.014h-.143z" fill="#fff"/>
  </g>
 </g>
 <g class="browser">
  <rect class="browser-body" x="2.132" y="4.248" width="5.15" height="3.397" ry=".237" fill="#fff"/>
  <path class="loading-bar" d="m2.132 4.799h5.1" clip-path="url(#perf-n)" fill="none" stroke="url(#perf-m)" stroke-linecap="round" stroke-width=".35"/>
  <g class="page">
   <path class="page-txt" d="M3.039 7.515h1.207M3.039 6.107h3.445m-3.445.31h2.945m-2.945.309h3.096" stroke="gray" stroke-width=".064"/>
   <path class="hero-bg" d="M2.132 4.413h5.151v1.469H2.132z" fill="#43b7ff" paint-order="markers fill stroke"/>
   <path class="page-img-bg" d="M3.03 6.925h.693v.415H3.03zm.953 0h.693v.415h-.693z" fill="#43b7ff" paint-order="markers fill stroke"/>
   <path class="page-img-img" d="M3.225 7.02l.068.12.07.119h-.276l.069-.12zm.945.233l-.111-.077-.012-.134.123-.058.122.058-.011.134z" fill="#0067a9" paint-order="markers fill stroke"/>
  </g>
  <g class="hero-windowsxp" fill="#238223">
   <path d="M6.165 5.264l-.117.405c-.101-.07-.212-.126-.446-.028l.114-.4.001-.001c.234-.097.347-.046.448.024zM6.226 5.303l-.115.4c.101.07.214.125.448.027l.111-.39c-.238.082-.342.032-.444-.037z"/>
   <path d="M6.185 5.19l.115-.4c-.102-.07-.214-.125-.449-.027l-.115.403a.595.595 0 01.228-.056c.094 0 .16.04.22.08zM6.36 4.832l-.115.403c.102.07.224.126.448.025l.116-.402c-.234.097-.347.043-.448-.026z"/>
  </g>
  <path class="hero-windows10" d="M6.158 5.715l-.001-.442.6.003-.001.524zm-.504-.068v-.378l.451.004v.435zm0-.795l.45-.065.001.437-.452.003zm.503-.072l.598-.087.001.518-.6.012z" fill="#0067a9"/>
  <g class="page-btn">
   <rect x="3.03" y="5.065" width="1.436" height=".479" ry=".15" fill="#002c5a"/>
   <rect x="3.03" y="4.976" width="1.436" height=".479" ry=".15" fill="#005f94"/>
   <text class="page-btn-txt" x="3.383" y="5.359" fill="#fff" font-family="Ubuntu" font-size=".469" font-weight="400" letter-spacing=".08" stroke-width=".027" word-spacing="0" style="font-variant-caps:normal;font-variant-east-asian:normal;font-variant-ligatures:normal;font-variant-numeric:normal;line-height:1.25"><tspan x="3.383" y="5.359">try </tspan></text>
   <path class="page-btn-arrow" d="M4.12 5.215l-.218-.125m.217.125l-.217.126m-.459-.126h.676" fill="none" stroke="#fff" stroke-linecap="round" stroke-width=".043"/>
  </g>
  <path class="hero-apple" d="M6.47 5.68c-.051.05-.108.042-.162.019a.205.205 0 00-.17 0c-.075.032-.115.023-.16-.019-.256-.263-.218-.664.073-.68.07.004.12.04.161.042.062-.012.121-.048.187-.043.08.006.139.037.179.094a.208.208 0 00.025.374.53.53 0 01-.133.214zm-.264-.682a.215.215 0 01.197-.223c.015.135-.123.236-.197.223z" fill="#333"/>
  <g class="browser-windowsxp">
   <path class="frame" d="M2.18 4.544h5.053v3.087H2.18z" fill="none" stroke="#0056eb" stroke-dashoffset="16.97" stroke-linecap="round" stroke-width=".097"/>
   <g class="title-bar-windowsxp">
    <g fill="url(#perf-k)">
     <path d="M6.65 3.985v.645h.633v-.39a.256.256 0 00-.256-.255z" paint-order="markers fill stroke"/>
     <path d="M2.567 3.985v.645h4.326v-.645z" paint-order="markers fill stroke"/>
     <path d="M2.388 3.985a.256.256 0 00-.256.256v.389h.604v-.645z" paint-order="markers fill stroke"/>
    </g>
    <g class="title-bar-buttons" stroke="#fff">
     <g class="title-bar-close">
      <rect class="hover" x="6.661" y="4.089" width=".482" height=".482" ry=".095" fill="url(#perf-f)" stroke-dashoffset="16.97" stroke-linecap="round" stroke-width=".026"/>
      <path d="M6.75 4.486l.304-.305m-.305 0l.305.305" fill="none" stroke-width=".064"/>
     </g>
     <g class="title-bar-collapse">
      <rect class="hover" x="5.36" y="4.089" width=".482" height=".482" ry=".095" fill="url(#perf-e)" stroke-dashoffset="16.97" stroke-linecap="round" stroke-width=".026"/>
      <path d="M5.645 4.44h-.202" fill="none" stroke-width=".064"/>
     </g>
     <g class="title-bar-expand">
      <rect class="hover" x="6.01" y="4.089" width=".482" height=".482" ry=".095" fill="url(#perf-c)" stroke-dashoffset="16.97" stroke-linecap="round" stroke-width=".026"/>
      <path class="expand" d="M6.112 4.24h.279m-.28-.044h.28v.279h-.28z" fill="none" stroke-width=".05"/>
      <path class="minimize" d="M6.183 4.28v-.075h.213v.173h-.054m-.235-.097h.212v.173h-.212z" fill="none" stroke-dashoffset="16.97" stroke-linecap="round" stroke-width=".039" paint-order="markers fill stroke"/>
     </g>
    </g>
   </g>
  </g>
  <g class="title-bar-windows10">
   <path d="M2.132 4.147h5.151v.433H2.132z" fill="#fff" paint-order="markers fill stroke"/>
   <g class="title-bar-buttons">
    <g class="title-bar-close">
     <path class="hover" d="M6.427 4.147h.856v.433h-.856z" fill="red"/>
     <path class="hover-icon" d="M6.742 4.477l.226-.227m-.226 0l.226.227" fill="none" stroke="#000" stroke-width=".03"/>
    </g>
    <g class="title-bar-collapse">
     <path class="hover" d="M4.716 4.147h.856v.433h-.856z" fill="#e6e6e6"/>
     <path d="M5.26 4.364h-.233" fill="none" stroke="#000" stroke-width=".03"/>
    </g>
    <g class="title-bar-expand">
     <path class="hover" d="M5.572 4.147h.856v.433h-.856z" fill="#e6e6e6"/>
     <path class="expand" d="M5.896 4.26h.208v.208h-.208z" fill="none" stroke="#000" stroke-dashoffset="16.97" stroke-linecap="round" stroke-width=".028" paint-order="markers fill stroke"/>
     <path class="minimize" d="M6.055 4.414h.035v-.14h-.14v.035m-.041.145h.14v-.14h-.14z" fill="none" stroke="#000" stroke-width=".02"/>
    </g>
   </g>
  </g>
  <g class="title-bar-mac">
   <path d="M6.763 4.08v.546h.52v-.291a.255.255 0 00-.256-.254z"/>
   <path d="M2.615 4.08v.546H6.87V4.08z"/>
   <path d="M2.388 4.079a.256.256 0 00-.256.256v.29h.564v-.544h-.308z"/>
   <g class="title-bar-buttons">
    <g class="title-bar-close">
     <circle cx="2.437" cy="4.37" r=".115" fill="#ff2a2a" paint-order="markers fill stroke"/>
     <g class="hover" fill="none" stroke="#640000" stroke-width=".03">
      <path d="M2.379 4.311l.116.117M2.379 4.428l.116-.117"/>
     </g>
    </g>
    <g class="title-bar-collapse">
     <circle cx="2.86" cy="4.37" r=".115" fill="#fc0" paint-order="markers fill stroke"/>
     <path class="hover" d="M2.794 4.37h.131" fill="none" stroke="#5c4a00" stroke-width=".04"/>
    </g>
    <g class="title-bar-expand">
     <circle cx="3.282" cy="4.37" r=".115" fill="#00eb13" paint-order="markers fill stroke"/>
     <g class="minimize hover" fill="#006100">
      <path d="M3.373 4.375l-.086.086-.007-.093z"/>
      <path d="M3.19 4.364l.086-.086.007.093z"/>
     </g>
     <g class="expand hover" fill="#006100">
      <path d="M3.254 4.427l.085-.085.007.092zM3.31 4.312l-.086.086-.006-.093z"/>
     </g>
    </g>
   </g>
  </g>
 </g>
 <g class="percent">
  <circle transform="rotate(-90)" cx="-7.507" cy="7.01" r="1.179" fill="#afe9af" paint-order="markers fill stroke"/>
  <circle class="percent-progress-bar" transform="rotate(-90)" cx="-7.507" cy="7.01" r="1.179" fill="none" stroke="#006d00" stroke-dashoffset="16.97" stroke-linecap="round" stroke-linejoin="round" stroke-width=".274" paint-order="markers fill stroke"/>
  <text x="6.988" y="7.863" fill="#006d00" font-family="sans-serif" font-size="1.044" letter-spacing="0" stroke-width=".06" text-align="center" text-anchor="middle" word-spacing="0" style="line-height:1.25"><tspan x="6.988" y="7.863" font-family="Ubuntu" font-weight="400" text-align="center" style="font-variant-caps:normal;font-variant-east-asian:normal;font-variant-ligatures:normal;font-variant-numeric:normal">100 </tspan></text>
 </g>
 <g class="checkmark">
  <path d="M6.999 6.36a1.147 1.147 0 10.01 0z" fill="#fff"/>
  <path d="M6.997 6.191a1.316 1.316 0 00-1.303 1.316 1.316 1.316 0 001.315 1.316 1.316 1.316 0 001.316-1.316A1.316 1.316 0 007.01 6.191a1.316 1.316 0 00-.012 0zm.693.674l.162.162-.96.96-.162.162a6.139 6.139 0 01-.161-.162l-.402-.402.161-.161.402.401z" fill="green"/>
 </g>
 <g class="url-bar">
  <rect x="2.514" y="4.928" width="4.398" height=".704" ry=".244" fill="#fff" stroke="#4d4d4d" stroke-dashoffset="16.97" stroke-linecap="round" stroke-linejoin="round" stroke-width=".072" paint-order="markers fill stroke"/>
  <text x="2.987" y="5.475" font-family="Ubuntu" font-size=".585" font-weight="400" letter-spacing="0" stroke-width=".243" word-spacing="0" style="font-variant-caps:normal;font-variant-east-asian:normal;font-variant-ligatures:normal;font-variant-numeric:normal;line-height:1.25"><tspan x="2.987" y="5.475" style="font-variant-caps:normal;font-variant-east-asian:normal;font-variant-ligatures:normal;font-variant-numeric:normal">www.foo.bar </tspan></text>
 </g>
 <g class="airplane" fill="#888f9b">
  <path d="M4.705 6.408s.315-.613.385-2.346l2.287.414.002-.214-2.25-1.285-.02-1.28s-.08-.539-.335-.74c-.05-.037-.087-.033-.138 0-.255.201-.335.74-.335.74l-.02 1.28-2.25 1.285.002.214 2.287-.414c.07 1.733.385 2.346.385 2.346"/>
  <path d="M6.032 6.182v-.314l-1.327-.46-1.323.46v.319l1.323-.212z"/>
  <rect x="5.435" y="2.875" width=".392" height=".635" ry=".102"/>
  <rect x="6.034" y="3.177" width=".392" height=".635" ry=".102"/>
  <rect transform="scale(-1 1)" x="-3.987" y="2.875" width=".392" height=".635" ry=".102"/>
  <rect transform="scale(-1 1)" x="-3.387" y="3.177" width=".392" height=".635" ry=".102"/>
  <path d="M2.896 4.549a.106.106 0 00-.106.106.106.106 0 000 .01l.09 1.545L3 4.67a.106.106 0 000-.016.106.106 0 00-.105-.106zm-.731.329a.106.106 0 00-.107.107.106.106 0 00.001.01l.089 1.543.122-1.537a.106.106 0 000-.016.106.106 0 00-.105-.107zm4.437-.329a.106.106 0 00-.106.106.106.106 0 000 .01l.089 1.544.122-1.538a.106.106 0 00.001-.016.106.106 0 00-.106-.106zm.674.329a.106.106 0 00-.106.107.106.106 0 000 .01l.09 1.543.121-1.537a.106.106 0 00.002-.016.106.106 0 00-.107-.107z"/>
 </g>
</svg>
