<svg xmlns="http://www.w3.org/2000/svg" xmlns:xlink="http://www.w3.org/1999/xlink" viewBox="0 0 9.413 7.684">
  <defs>
    <linearGradient id="c">
      <stop offset="0" stop-color="#629bff"/>
      <stop offset="1" stop-color="#003eaa" stop-opacity=".996"/>
    </linearGradient>
    <linearGradient id="b">
      <stop offset="0" stop-color="#d60000"/>
      <stop offset="1" stop-color="#ff8989"/>
    </linearGradient>
    <linearGradient id="a">
      <stop offset="0" stop-color="#0056eb"/>
      <stop offset=".77" stop-color="#0a55db"/>
      <stop offset=".807" stop-color="#3c7ff4"/>
      <stop offset=".839" stop-color="#1263f1"/>
      <stop offset=".954" stop-color="#0b2be8"/>
      <stop offset="1" stop-color="#3880ff"/>
    </linearGradient>
    <linearGradient xlink:href="#a" id="f" gradientUnits="userSpaceOnUse" gradientTransform="translate(-24.461 -87.63) scale(.24306)" x1="121.506" y1="387.748" x2="121.506" y2="377.14"/>
    <linearGradient xlink:href="#b" id="g" gradientUnits="userSpaceOnUse" gradientTransform="translate(-24.461 -87.533) scale(.24306)" x1="129.93" y1="378.776" x2="128.408" y2="377.335"/>
    <linearGradient xlink:href="#c" id="h" gradientUnits="userSpaceOnUse" gradientTransform="translate(-25.093 -87.533) scale(.24306)" x1="126" y1="377.497" x2="127.015" y2="378.728"/>
    <linearGradient xlink:href="#c" id="i" gradientUnits="userSpaceOnUse" gradientTransform="translate(-24.442 -87.533) scale(.24306)" x1="126" y1="377.497" x2="127.015" y2="378.728"/>
    <linearGradient xlink:href="#a" id="d" gradientUnits="userSpaceOnUse" gradientTransform="translate(-24.461 -87.63) scale(.24306)" x1="121.506" y1="387.748" x2="121.506" y2="377.14"/>
    <linearGradient xlink:href="#a" id="e" gradientUnits="userSpaceOnUse" gradientTransform="translate(-24.461 -87.63) scale(.24306)" x1="121.506" y1="387.748" x2="121.506" y2="377.14"/>
  </defs>
  <g class="title-bar-windows10">
    <path d="M6.763 4.196v.434h.52v-.434z" class="title-right" fill="#fff"/>
    <path d="M2.615 4.196v.434H6.87v-.434z" class="title-mid" fill="#fff"/>
    <path d="M2.132 4.196v.434h.564v-.434z" class="title-left" fill="#fff"/>
  </g>
  <g class="title-bar-windowsxp">
    <path d="M6.763 3.985v.645h.52v-.39a.256.256 0 00-.256-.255z" class="title-right" fill="url(#d)" paint-order="markers fill stroke"/>
    <path d="M2.615 3.985v.645h4.254v-.645z" class="title-mid" fill="url(#e)" paint-order="markers fill stroke"/>
    <path d="M2.388 3.985a.256.256 0 00-.256.256v.389h.564v-.645z" class="title-left" fill="url(#f)" paint-order="markers fill stroke"/>
    <g class="title-bar-buttons">
      <g class="title-bar-close">
        <rect width=".482" height=".482" x="6.661" y="4.089" ry=".095" class="hover" fill="url(#g)" stroke="#fff" stroke-width=".026" stroke-linecap="round" stroke-dashoffset="16.97"/>
        <path d="M6.75 4.486l.304-.305m-.305 0l.305.305" fill="none" stroke="#fff" stroke-width=".064"/>
      </g>
      <g class="title-bar-collapse">
        <rect width=".482" height=".482" x="5.36" y="4.089" ry=".095" class="hover" fill="url(#h)" stroke="#fff" stroke-width=".026" stroke-linecap="round" stroke-dashoffset="16.97"/>
        <path d="M5.645 4.44h-.202" fill="none" stroke="#fff" stroke-width=".064"/>
      </g>
      <g class="title-bar-expand">
        <rect width=".482" height=".482" x="6.01" y="4.089" ry=".095" class="hover" fill="url(#i)" stroke="#fff" stroke-width=".026" stroke-linecap="round" stroke-dashoffset="16.97"/>
        <path d="M6.112 4.24h.279m-.28-.044h.28v.279h-.28z" class="expand" fill="none" stroke="#fff" stroke-width=".05"/>
        <path d="M6.183 4.28v-.075h.213v.173h-.054m-.235-.097h.212v.173h-.212z" class="minimize" fill="none" stroke="#fff" stroke-width=".039" stroke-linecap="round" stroke-dashoffset="16.97" paint-order="markers fill stroke"/>
      </g>
    </g>
  </g>
  <g class="title-bar-mac">
    <path d="M6.763 4.08v.546h.52v-.291a.255.255 0 00-.256-.254z" class="title-right"/>
    <path d="M2.615 4.08v.546H6.87V4.08z" class="title-mid"/>
    <path d="M2.388 4.079a.256.256 0 00-.256.256v.29h.564v-.544h-.308z" class="title-left"/>
    <g class="title-bar-buttons">
      <g class="title-bar-close">
        <circle cx="2.437" cy="4.37" r=".115" fill="#ff2a2a" paint-order="markers fill stroke"/>
        <path d="M2.379 4.311l.116.117m-.116 0l.116-.117" fill="none" stroke="#640000" stroke-width=".03"/>
      </g>
      <g class="title-bar-collapse">
        <circle cx="2.86" cy="4.37" r=".115" fill="#fc0" paint-order="markers fill stroke"/>
        <path d="M2.794 4.37h.131" class="hover" fill="none" stroke="#5c4a00" stroke-width=".04"/>
      </g>
      <g class="title-bar-expand">
        <circle cx="3.282" cy="4.37" r=".115" fill="#00eb13" paint-order="markers fill stroke"/>
        <g class="minimize hover" fill="#006100">
          <path d="M3.373 4.375l-.086.086-.007-.093z"/>
          <path d="M3.19 4.364l.086-.086.007.093z"/>
        </g>
        <path d="M3.254 4.427l.085-.085.007.092zm.056-.115l-.086.086-.006-.093z" fill="#006100"/>
      </g>
    </g>
  </g>
</svg>