<svg xmlns="http://www.w3.org/2000/svg" viewBox="0 0 9.413 7.684">
  <defs>
    <clipPath clipPathUnits="userSpaceOnUse" id="a">
      <rect width="5.099" height="3.14" x="2.469" y="1.861" ry=".483" fill="#fff" stroke-width=".253" stroke-linecap="round" stroke-linejoin="round" stroke-dashoffset="16.97" paint-order="markers fill stroke" class="monitor"/>
    </clipPath>
    <clipPath clipPathUnits="userSpaceOnUse" id="b">
      <rect width="2.861" height="3.555" x="1.109" y="2.555" ry="0" class="mobile" fill="#fff" stroke-width=".031" stroke-linecap="round" stroke-dashoffset="16.97"/>
    </clipPath>
  </defs>
  <g class="page" clip-path="url(#a)">
    <rect width="11.987" height="7.158" x="-1.316" y="1.723" ry="0" fill="#fff" class="page-body"/>
    <path d="M10.685-.13v1.853h-11.99V-.13c4.202.006 8.362.001 11.99 0z" class="navbar-bg" fill="#5d8aff" paint-order="markers fill stroke"/>
    <path d="M1.656 1.48l-.274-.116.274-.46.273.46z" class="logo" fill="#0030ab" paint-order="markers fill stroke"/>
    <rect width=".94" height=".188" x="7.174" y="1.156" ry=".068" class="nav-link-2" fill="#0030ab" paint-order="markers fill stroke"/>
    <rect width=".94" height=".188" x="5.774" y="1.156" ry=".068" class="nav-link-1" fill="#0030ab" paint-order="markers fill stroke"/>
    <rect width=".94" height=".188" x="4.374" y="1.156" ry=".068" class="nav-link-0" fill="#0030ab" paint-order="markers fill stroke"/>
    <g class="page-content-column-0">
      <rect width="1.561" height="1.305" x="1.07" y="1.933" ry=".032" fill="#ffd287" paint-order="markers fill stroke"/>
      <path d="M1.118 3.725h1.437m-1.437.446h.895m-.895.447h1.437" class="page-text" fill="none" stroke="#c9ccdf" stroke-width=".159"/>
    </g>
    <g class="page-content-column-1">
      <rect width="1.561" height="1.305" x="3.061" y="1.933" ry=".032" fill="#77ffd1" paint-order="markers fill stroke"/>
      <path d="M3.082 3.725h.964m-.964.446h1.437m-1.437.447h1.437" class="page-text" fill="none" stroke="#c9ccdf" stroke-width=".159"/>
    </g>
    <g class="page-content-column-2">
      <rect width="1.561" height="1.305" x="5.053" y="1.933" ry=".032" fill="#e881ff" paint-order="markers fill stroke"/>
      <path d="M5.096 3.725h1.437m-1.437.446h1.437m-1.437.447h.817" class="page-text" fill="none" stroke="#c9ccdf" stroke-width=".159"/>
    </g>
    <g class="page-chat" paint-order="markers fill stroke">
      <rect width="1.561" height="3.536" x="6.986" y="1.933" ry=".086" fill="#acc1ff"/>
      <rect width="1.367" height=".272" x="7.076" y="5.063" ry=".007" fill="#f9f9f9"/>
    </g>
  </g>
  <g class="screen-container">
    <rect width="5.099" height="3.14" x="2.469" y="1.861" ry=".483" fill="none" stroke="#888f9b" stroke-width=".253" stroke-linecap="round" stroke-linejoin="round" stroke-dashoffset="16.97" paint-order="markers fill stroke" class="monitor-border"/>
    <path d="M4.541 4.924v.709s-.017.117-.078.182a.71.71 0 01-.22.119h1.551s-.16-.055-.22-.12a.39.39 0 01-.078-.181v-.709z" class="desktop-stand" fill="#888f9b"/>
  </g>
  <rect width="1.746" height="2.83" x="1.847" y="2.983" ry=".284" class="mobile-mask" fill="#25385b" stroke="#888f9b" stroke-width=".251" stroke-linecap="round" stroke-linejoin="round" clip-path="url(#b)"/>
  <g class="laptop-bottom" paint-order="markers fill stroke">
    <path d="M.757 5.934H9.28c.072 0 .082.081.029.131-.08.075-.189.185-.229.224H.958c-.094-.063-.14-.137-.229-.224-.053-.05-.043-.131.028-.131z" fill="#888f9b"/>
    <rect width="1.343" height=".193" x="4.346" y="5.934" ry=".046" fill="#545a64"/>
  </g>
  <g class="tablet-bars">
    <g class="tablet-bar-bottom" paint-order="markers fill stroke">
      <path d="M8.076 1.815l.51.037v4.18l-.51.099z" fill="#888f9b"/>
      <circle cx="8.361" cy="3.901" r=".157" fill="#545a64"/>
    </g>
    <path d="M1.96 1.815l-.508.037v4.18l.509.099z" fill="#888f9b" class="tablet-bar-top" paint-order="markers fill stroke"/>
  </g>
</svg>